<?xml version="1.0" encoding="UTF-8"?>
<svg xmlns="http://www.w3.org/2000/svg" xmlns:xlink="http://www.w3.org/1999/xlink" width="2992pt" height="4961pt" viewBox="0 0 2992 4961" version="1.1">
<g id="surface1">
<path style=" stroke:none;fill-rule:nonzero;fill:rgb(0%,0%,0%);fill-opacity:1;" d="M 145 114.4375 C 131 116.617188 118.3125 125.011719 114.488281 139 C 110.675781 153 113 169.632813 113 184 L 113 781 C 113 1506 111 2231.003906 111 2956 C 111 3413.375 110 3870.605469 110 4328 L 110 4779 C 110 4793.144531 107.898438 4809.757813 116.636719 4822 C 128.1875 4838.179688 147.484375 4836 165 4836 L 281 4836 C 444.695313 4836 608.277344 4837 772 4837 C 1247.6875 4837 1723.382813 4838 2199 4838 L 2794 4838 C 2817 4838 2843.453125 4841.59375 2866 4837 C 2895.84375 4831 2893 4799 2893 4775 L 2893 3764 C 2893 2884.039063 2895 2004.027344 2895 1124 C 2895 885.324219 2896 646.71875 2896 408 L 2896 166 C 2896 154.320313 2896.515625 142.507813 2890.472656 132 C 2880.398438 114.484375 2861.6875 115 2844 115 L 2238 115 C 1765.640625 115 1293.390625 114 821 114 L 219 114 C 195 114 168.570313 110.726563 145 114.4375 M 178.601563 173.605469 C 181.605469 172 187.632813 173 191 173 L 330 173 C 465 173 600 174 735 174 C 1233.328125 174 1731.753906 175 2230 175 L 2822 175 C 2824.476563 175 2829.886719 174.019531 2831.394531 176.605469 C 2833.492188 180.191406 2832 188 2832 192 L 2832 371 C 2832 544.351563 2831 717.722656 2831 891 C 2831 1530.71875 2830 2170.316406 2830 2810 C 2830 3308.039063 2829 3806 2829 4304 L 2829 4750 C 2829 4754.761719 2831.722656 4775 2827.394531 4777.398438 C 2824.394531 4779.148438 2818.367188 4778 2815 4778 L 2676 4778 C 2540.996094 4778 2405.921875 4777 2271 4777 C 1772.671875 4777 1274.257813 4776 776 4776 L 183 4776 C 180.523438 4776 175 4777 173.601563 4774.398438 C 171.507813 4770.808594 173 4763.0625 173 4759 L 173 4580 C 173 4406.664063 174 4233.253906 174 4060 C 174 3420.285156 175 2780.671875 175 2141 C 175 1643 176 1145.058594 176 647 L 176 288 C 176 259.335938 175.863281 230.664063 176 202 C 176 195 176.984375 188.050781 177 181 C 177 179 176.359375 175 178.601563 173.605469 M 1485 188.425781 C 1470 190.460938 1456.230469 194.617188 1444 203.761719 C 1436.878906 209.082031 1430.292969 216.265625 1425.878906 224 C 1395.527344 277.164063 1444.816406 335.734375 1502 328.714844 C 1513.214844 327.335938 1524.441406 323.53125 1534 317.457031 C 1542.316406 312.167969 1549.949219 305.1875 1555.480469 297 C 1589.234375 247.019531 1543.800781 180.421875 1485 188.425781 M 1257 232 C 1273.582031 223.542969 1286.398438 214.730469 1306 220.773438 C 1312 222.636719 1318.257813 226.015625 1323 230.183594 C 1353.8125 257.28125 1333.28125 300.292969 1296 305.570313 C 1282.625 307.464844 1272.988281 299.527344 1261 296 C 1268.503906 315.398438 1294.714844 327 1314 329.050781 C 1357.746094 334 1402.375 301 1397.828125 254 C 1393.289063 207.089844 1343.570313 182.0625 1301 194.289063 C 1283.894531 199.207031 1260.675781 213 1257 232 M 1723 295 C 1712.648438 300.507813 1702.253906 306.617188 1690 306 C 1667.503906 304.597656 1645 285.570313 1645.179688 262 C 1645.210938 237.476563 1670 217 1694 218.667969 C 1707.4375 219.671875 1715.539063 226.15625 1727 232 C 1722.636719 213.425781 1701.171875 199.5 1684 194.578125 C 1643.6875 183.023438 1589.558594 204.734375 1586 252 C 1582.675781 298.570313 1623 334.648438 1669 329.15625 C 1688.597656 326.808594 1716.394531 315.6875 1723 295 M 1108 231 C 1121.8125 226.34375 1130.898438 215.578125 1147 216.664063 C 1187.886719 219.429688 1207.546875 266.414063 1174.996094 294 C 1169.765625 298.414063 1163.636719 301.722656 1157 303.511719 C 1136.625 309.007813 1124.941406 299.742188 1108 291 C 1111.5625 306.160156 1129.460938 318.375 1143 324 C 1183.722656 341 1236.4375 318.789063 1244.535156 273 C 1257.878906 197.558594 1138.285156 160.824219 1108 231 M 1876 291 C 1860.714844 299 1850.457031 307.441406 1832 304.699219 C 1825.265625 303.699219 1818.6875 301 1813 297.300781 C 1774.359375 272.289063 1794.964844 214.753906 1840 216.59375 C 1854 217.171875 1863 225 1875 231 C 1870.34375 210.710938 1843.648438 198.0625 1825 195 C 1782.535156 187.765625 1740 216.292969 1738 261 C 1735.828125 312.75 1796.480469 342 1840 324.394531 C 1854.4375 318.5625 1871.394531 306.652344 1876 291 M 2622 275.425781 C 2604.261719 278 2587 282.652344 2572 292.75 C 2560.902344 300.191406 2550.757813 310 2543.355469 321 C 2536.988281 330.59375 2532.539063 340.808594 2529.882813 352 C 2512.871094 423.683594 2580.59375 481 2649 471.710938 C 2664 469.683594 2679.226563 464.371094 2692 456.136719 C 2704.261719 448.230469 2714.882813 438.230469 2722.921875 426 C 2769.269531 355.503906 2702.535156 264.464844 2622 275.425781 M 372 277.429688 C 356.921875 279.589844 341.90625 284.492188 329 292.695313 C 317 300.292969 306.960938 309.546875 298.640625 321 C 272.171875 357.445313 277.195313 412.804688 310 443.828125 C 335.839844 468.203125 371.171875 478.121094 406 473 C 420.390625 470.695313 434.886719 465.003906 447 457 C 458.324219 449.507813 468.296875 440.246094 475.972656 429 C 482 420.050781 486.207031 410.355469 489.277344 400 C 510.171875 329.597656 439.691406 267.734375 372 277.429688 M 620 347.59375 C 595.910156 348.503906 596.359375 369.429688 589.1875 388 C 576.175781 421.703125 557.613281 453.480469 532.910156 480 C 504 511.011719 469.265625 534.347656 430 550 C 418 554.734375 405.550781 559.019531 393 561.550781 C 383.550781 563.457031 370.960938 565.054688 364.433594 573.105469 C 359.441406 579.261719 361 589.628906 361 597 L 361 654 C 361 730.25 362 806.667969 362 883 L 362 4347 C 362 4356.339844 358.867188 4372.753906 364.226563 4380.816406 C 369.617188 4389 381.503906 4389.285156 390 4391.375 C 409.945313 4396.273438 429.4375 4402.277344 448 4411.257813 C 497.894531 4435.402344 539.972656 4474 567.714844 4522 C 579.398438 4542.253906 588 4563.71875 594.972656 4586 C 597.699219 4594.800781 598.304688 4606.605469 609 4609.285156 C 614.511719 4610.667969 621.300781 4609 627 4609 L 803 4609 C 943.632813 4609 1084.300781 4610 1225 4610 C 1373 4610 1520.847656 4611 1669 4611 C 1758.574219 4611 1848.453125 4608.820313 1938 4611.015625 C 2038.191406 4613.46875 2138.710938 4612 2239 4612 L 2352 4612 C 2370.78125 4612 2390.296875 4613.539063 2409 4612 C 2425 4610.507813 2426.648438 4582.007813 2431 4570 C 2445.867188 4529.589844 2468 4492.257813 2499 4462.015625 C 2526.363281 4435.28125 2559.890625 4413.554688 2596 4400.691406 C 2608.789063 4396.136719 2621.757813 4392.515625 2635 4389.574219 C 2641.28125 4388.179688 2649.296875 4387 2652.910156 4381 C 2655.882813 4376.03125 2655 4369.496094 2655 4364 L 2655 661 C 2655 636.695313 2660.628906 602.445313 2649.867188 580 C 2640.730469 561 2618.671875 560.425781 2601 554 C 2570 542.640625 2541.210938 526.722656 2516 505.5625 C 2486.375 480.695313 2461.332031 449.039063 2444.78125 414 C 2438.640625 401.003906 2433.511719 387.539063 2428.691406 374 C 2425.894531 366.144531 2424 357 2416.960938 351.648438 C 2408.851563 345.695313 2398.3125 348 2389 348 L 770 348 C 720.175781 348 669.746094 345.714844 620 347.59375 M 389 709 L 390 709 C 410.179688 757.472656 439.261719 803.050781 462.753906 850 C 467.757813 860.003906 472.355469 875.546875 479.429688 884 C 483 888.230469 489.53125 889.105469 493.605469 884.769531 C 498.632813 879.425781 495.574219 871.328125 494.390625 865 C 491 847.609375 487 830.371094 483.804688 813 C 475 768 466.296875 723 456.996094 678 C 451.785156 652.824219 444 626.640625 442 601 C 466.488281 617.199219 488.667969 638.410156 511.425781 657 C 554.84375 692.367188 598.402344 727.613281 642 762.804688 C 657.683594 775.464844 673 788.484375 689 801 C 694.902344 805.488281 702.796875 813.242188 709.773438 806 C 715.78125 799.492188 710.210938 792 706.332031 786 C 696.25 770.789063 686.632813 755.277344 676.65625 740 C 649.289063 698.078125 622.367188 656 594.921875 614 C 580 591.363281 561.464844 568.527344 550 544 C 585.640625 558.621094 620.167969 576.765625 655 593.21875 C 695.242188 612.226563 736 630.230469 776 649.753906 C 794 658.5625 812.363281 668.082031 831 675.546875 C 837.570313 678.179688 846.453125 677.316406 848.792969 669.164063 C 850.726563 662.441406 841.984375 657 838 653 C 824 639.269531 809 626.484375 795 613 C 757.40625 577.027344 719.5625 541.0625 681 506.171875 C 661.308594 488.351563 635.292969 469.714844 620 448 C 645.953125 450.0625 672.585938 459 698 464.574219 C 743 474.464844 788 484.433594 833 494.425781 C 850.320313 498.269531 867.625 502.398438 885 506 C 891.828125 507.410156 900 510.757813 905.566406 504.660156 C 910 499.636719 908.738281 492.527344 903.945313 488.378906 C 893.4375 479.285156 877.359375 472.636719 865 466.257813 C 808.246094 437 753.527344 403.738281 697 374 C 702.949219 371.503906 711.578125 373 718 373 L 973 373 C 976.429688 373 987.410156 371.203125 989.398438 374.605469 C 991.371094 378 990 385.183594 990 389 C 989.929688 403.25 988.464844 418 986.421875 432 C 978.539063 486.433594 965.914063 539.144531 944.574219 590 C 883.519531 735.507813 762 851.765625 618 914.425781 C 562.710938 938.476563 504.667969 958.125 445 968.078125 C 431 970.414063 417 972.503906 403 974.578125 C 400 975.019531 391.542969 977.710938 389.601563 974.394531 C 386.945313 970 389 959.1875 389 954 L 389 709 M 1012.601563 373.605469 C 1015.226563 372.097656 1020 373 1023 373 C 1026.246094 373 1034.515625 371.515625 1036.96875 374.027344 C 1039 376.277344 1037 384.082031 1036.910156 387 C 1035.929688 400.386719 1033.804688 413.765625 1031.585938 427 C 1021.25 488.640625 1004.355469 549 978.695313 606 C 899 783.117188 745.542969 922.535156 559 978.71875 C 519.796875 990.527344 479.769531 999.800781 439 1004.164063 C 424.816406 1005.683594 406.214844 1010.363281 392 1008 C 387 1007 387.722656 996.296875 392 995 C 405 990.644531 421.402344 991.113281 435 988.75 C 463.3125 983.832031 491.382813 977.644531 519 969.710938 C 705.558594 916.101563 867 796 952.742188 619 C 979.839844 563 997 501.546875 1005.574219 440 C 1007.777344 424 1009.921875 407.148438 1010 391 C 1010 387.066406 1008.5 376 1012.601563 373.605469 M 1945 4586 L 1073 4585 C 1076.472656 4566.289063 1070.949219 4545.601563 1068.269531 4527 C 1061.679688 4481.257813 1050.617188 4435.304688 1034.425781 4392 C 1017 4345.511719 997 4300.71875 971.546875 4258 C 897.433594 4133.675781 785.886719 4038.183594 656 3976.253906 C 594 3946.738281 525.78125 3928.3125 458 3919 C 440.691406 3916.457031 423.273438 3915.753906 406 3913.714844 C 402.433594 3913.292969 390.632813 3914.613281 389.316406 3910.683594 C 387.644531 3905.679688 389 3898.25 389 3893 L 389 1066 C 389 1059.617188 387.289063 1050.386719 389.316406 1044.316406 C 390.328125 1041.300781 394.496094 1042.007813 397 1042 C 404.5 1042 412.566406 1041.550781 420 1040.574219 C 453.507813 1036.175781 486.953125 1032.710938 520 1025.113281 C 635.207031 998.625 743.304688 942.792969 832 864.714844 C 927.53125 780.617188 997.757813 671.066406 1038.921875 551 C 1052.890625 510.257813 1062.589844 467.597656 1068.730469 425 C 1070.5 412.714844 1072.648438 400.355469 1073.828125 388 C 1074 384.582031 1072.4375 376.621094 1075 374.027344 C 1077.171875 372 1083.238281 373 1086 373 L 1929 373 C 1932 373 1939.582031 371.636719 1941.972656 374.027344 C 1944.40625 376.460938 1942.902344 383.777344 1943.285156 387 C 1944.785156 399.683594 1946.449219 412.355469 1948.269531 425 C 1954.40625 467.570313 1964 510.28125 1978 551 C 2019.175781 671 2088.941406 777.765625 2183 862.828125 C 2270.558594 942.015625 2382.449219 1000.324219 2498 1025.339844 C 2530.8125 1032.441406 2563.804688 1036.214844 2597 1040.574219 C 2602.6875 1041.324219 2625.875 1039.0625 2627.683594 1045.148438 C 2629.320313 1050.660156 2628 1058.269531 2628 1064 L 2628 3888 C 2628 3894.664063 2629.800781 3904.347656 2627.683594 3910.683594 C 2626.347656 3914.664063 2615.503906 3913.117188 2612 3913.574219 C 2595.777344 3915.703125 2579.28125 3916 2563 3918.269531 C 2496.917969 3927.792969 2432 3944.820313 2371 3972 C 2187.28125 4053.089844 2050.5 4206.398438 1981.945313 4394 C 1965.726563 4438.386719 1954.433594 4485.1875 1948 4532 C 1945.675781 4549 1939.722656 4569.355469 1945 4586 M 1980.605469 373.605469 C 1982.773438 372.324219 1986.589844 373 1989 373 C 1991.878906 373 1997.710938 372 2000 374.027344 C 2002.292969 376.125 2001.957031 381.203125 2001.996094 384 C 2002 391.710938 2003.296875 399.324219 2003.914063 407 C 2008.542969 464.597656 2023.703125 521.132813 2044.191406 575 C 2115 761.425781 2278.964844 904 2468 962.023438 C 2509.996094 975 2552.507813 983.488281 2596 989.425781 C 2604.402344 990.570313 2618.207031 989.082031 2625.683594 993 C 2628.824219 994.496094 2629.378906 1004.566406 2626.972656 1007 C 2624.4375 1009.507813 2618 1007.460938 2615 1007.171875 C 2605.414063 1006.257813 2595.621094 1005.683594 2586 1005.023438 C 2541 1002 2496.980469 990.011719 2454 977.425781 C 2263.398438 921.609375 2108.90625 772 2032 591 C 2009.621094 538.378906 1995 483.304688 1985.585938 427 C 1983.359375 413.710938 1981.507813 400.402344 1980.167969 387 C 1979.878906 384.109375 1977.613281 375.363281 1980.605469 373.605469 M 2320 373 L 2320 374 C 2263.792969 403.570313 2209 436.144531 2153 465.78125 C 2140.417969 472.417969 2125.199219 478.804688 2114 487.609375 C 2108.777344 491.765625 2106.457031 499.175781 2111.433594 504.660156 C 2116.792969 510.570313 2124.359375 507.546875 2131 506.199219 C 2148.382813 502.667969 2165.710938 498.613281 2183 494.652344 C 2227.582031 484.433594 2272.429688 475.355469 2317 465.113281 C 2342.964844 459.144531 2370.4375 450.167969 2397 448 C 2381.699219 469.71875 2355.683594 488.359375 2336 506.171875 C 2297.4375 541.0625 2259.617188 577.050781 2222 613 C 2207.84375 626.476563 2192.921875 639.246094 2179 653.003906 C 2175.195313 656.761719 2166.304688 663 2168.324219 669.28125 C 2171 677.796875 2180.21875 678 2187 675.128906 C 2205.234375 667.421875 2223.214844 658.4375 2241 649.753906 C 2280.992188 630.234375 2321.761719 612.226563 2362 593.21875 C 2396.824219 576.769531 2431.367188 558.617188 2467 544 C 2455.535156 568.527344 2436.925781 591.363281 2422 614 C 2394.859375 655.496094 2368.4375 697.523438 2341.167969 739 C 2331 754.269531 2321.457031 769.785156 2311.332031 785 C 2307.652344 790.53125 2301.292969 798.4375 2306.433594 805 C 2312.769531 813 2321 806.507813 2327 802 C 2342.960938 789.542969 2358.398438 776.402344 2374 763.613281 C 2417.375 728.0625 2461.386719 693.304688 2504.714844 657.707031 C 2527.667969 639 2550.230469 617.386719 2575 601 C 2573.855469 627.601563 2564.746094 656 2559.210938 682 C 2549.46875 727.832031 2540.679688 774 2531.804688 820 C 2528.390625 837.691406 2524.496094 855.28125 2521.199219 873 C 2520 879.292969 2521.722656 888 2530 887.703125 C 2537.496094 887.5 2539.175781 880.621094 2541.476563 875 C 2545.503906 865.152344 2551.34375 855.277344 2556.574219 846 C 2573.664063 815.683594 2588.773438 784 2604.742188 753 C 2611.632813 739.648438 2617.433594 722.546875 2627 711 C 2632.496094 729.597656 2628 755.570313 2628 775 L 2628 957 C 2628 960.304688 2629.703125 970.464844 2626.394531 972.394531 C 2623 974.378906 2616.640625 972.722656 2613 972.285156 C 2603.671875 971.171875 2594.316406 970.425781 2585 969.128906 C 2544.9375 963.5625 2505.539063 954.644531 2467 942.34375 C 2343.457031 903 2231.347656 827.582031 2151.425781 725 C 2121 686.007813 2097.710938 644.058594 2075.753906 600 C 2049.558594 547.441406 2034.949219 487.816406 2026.578125 430 C 2024.566406 416.105469 2023 402 2022 388 C 2021.894531 385.164063 2020 376.132813 2022 374.027344 C 2024.855469 371 2037 373 2041 373 L 2320 373 M 1506 406.085938 C 1497.296875 408 1501 433.410156 1501 440 L 1501 549 C 1501 559 1500.519531 569 1501.179688 578.714844 C 1501.410156 582.1875 1502.1875 587.832031 1506.964844 587.339844 C 1511 587 1511.792969 582.269531 1511.960938 579 C 1512.398438 570.375 1512 561.636719 1512 553 L 1512 443 C 1512 433.40625 1512.632813 423.566406 1511.910156 414 C 1511.660156 410.699219 1510.617188 405.167969 1506 406.085938 M 1797 409 C 1792.234375 410.109375 1792.285156 417.128906 1791.730469 421 C 1789.90625 433.65625 1788.617188 446.371094 1786.589844 459 C 1777.996094 512.496094 1771.347656 566.339844 1763.871094 620 C 1732.511719 845.035156 1701.691406 1070.238281 1668.421875 1295 C 1659.351563 1356.269531 1651.21875 1417.671875 1642.574219 1479 C 1640.554688 1493.34375 1638 1507.636719 1636.28125 1522 C 1635.78125 1526 1634.339844 1535.246094 1640.964844 1534.535156 C 1646.496094 1534 1646.308594 1525.03125 1646.871094 1521 C 1648.910156 1506.34375 1651.398438 1491.699219 1653 1477 C 1659.992188 1415.191406 1670.546875 1353.601563 1679 1292 C 1699.988281 1142.316406 1722.582031 992.828125 1742.28125 843 C 1752 768.609375 1765.578125 694.558594 1773.949219 620 C 1780 566 1789.371094 512 1796.871094 458 C 1798.679688 445 1800.414063 432 1802.410156 419 C 1802.96875 415.363281 1803 407.355469 1797 409 M 1219.601563 443.03125 C 1216.398438 445.484375 1218.289063 452.699219 1218.71875 456 C 1220.363281 468.660156 1221.851563 481.402344 1223.921875 494 C 1232.308594 545.128906 1237.992188 596.75 1245.578125 648 C 1277.273438 862.121094 1305.398438 1076.746094 1336.269531 1291 C 1344.769531 1350 1352.652344 1409.023438 1361 1468 C 1363.191406 1482.328125 1365.175781 1496.691406 1367.425781 1511 C 1367.996094 1514.648438 1369.910156 1523.496094 1375.683594 1520 C 1379.804688 1517.421875 1377.394531 1509.761719 1376.871094 1506 L 1371 1464 C 1362.90625 1405 1354.335938 1346.019531 1346 1287 C 1326.199219 1143.621094 1305.917969 1000.285156 1285.269531 857 C 1275 786.410156 1266.898438 715.414063 1255.589844 645 C 1247.261719 593.15625 1241.917969 541 1233.589844 489 C 1231.507813 476.027344 1229.914063 463 1227.863281 450 C 1227.316406 446.527344 1224.46875 439.3125 1219.601563 443.03125 M 1579 785 C 1573.210938 771.582031 1562.933594 759.546875 1555.398438 747 C 1553.578125 744 1546.878906 736.179688 1548.996094 732.511719 C 1550.792969 729.402344 1557.835938 729 1561 728.210938 C 1572.300781 725.804688 1583.636719 723.625 1595 721.574219 C 1597.171875 721.183594 1609.792969 720.003906 1609.792969 717.199219 C 1609.792969 714.410156 1598 713.4375 1596 713.082031 C 1584.261719 711.085938 1572.652344 708.410156 1561 706 C 1558 705.402344 1550.570313 705 1549.445313 701.570313 C 1548 697.78125 1555 691 1557 688 C 1565.269531 676.117188 1579.4375 663.761719 1584 650 C 1569 654.390625 1554.773438 665.789063 1541 673.058594 C 1537.785156 674.753906 1529.453125 681.007813 1525.726563 679.441406 C 1522.996094 678.296875 1522.277344 671.519531 1521.628906 669 C 1518.8125 658.046875 1516.414063 647.019531 1513.882813 636 C 1513.417969 634 1512.484375 623.207031 1509.765625 623.207031 C 1506.632813 623.207031 1505.839844 633.808594 1505.398438 636 C 1503.246094 646.691406 1500.871094 657.480469 1497.988281 668 C 1497.300781 670.507813 1496.625 676.511719 1493.582031 677.324219 C 1490.394531 678.171875 1485.539063 674 1483 672.398438 C 1473.1875 666.480469 1463.371094 660.304688 1454 653.707031 C 1451.761719 652.128906 1443.785156 644.804688 1440.828125 646.445313 C 1438.3125 648 1446 657.492188 1447 659 C 1453.886719 669.113281 1460.382813 679.46875 1466.421875 690 C 1467.871094 692.527344 1472.546875 698.203125 1471.414063 701.296875 C 1470.300781 704.339844 1462.695313 705 1460 705.574219 C 1448 708.21875 1436 710.632813 1424 713 C 1421.808594 713.429688 1409.207031 714.28125 1409.207031 717.199219 C 1409.207031 720.046875 1420.90625 721 1423 721.246094 C 1434 723.097656 1445 725.421875 1456 727.789063 C 1458.742188 728.382813 1465.441406 728.714844 1466.886719 731.5625 C 1468.449219 734.644531 1463.316406 739.746094 1461.710938 742 C 1455.449219 750.785156 1449 759.566406 1442.398438 768 C 1440.851563 770 1434 776.378906 1435.457031 779.183594 C 1436.734375 781.730469 1447.371094 774.355469 1449 773.398438 C 1459.496094 767.253906 1470 761.203125 1481 755.753906 C 1483.734375 754.382813 1489.363281 750.171875 1492.488281 752 C 1495.65625 754 1496.535156 760.757813 1497.371094 764 C 1500.191406 775 1502.710938 786 1505 797 C 1505.515625 799.476563 1506.457031 810.367188 1509.285156 811.078125 C 1512 811.789063 1513.601563 800 1514 798 C 1516.359375 787 1518.628906 776 1521.710938 765 C 1522.476563 762.304688 1523.191406 755.578125 1526.417969 754.664063 C 1530.53125 753.503906 1537.742188 760 1541 762 C 1551.890625 768.78125 1566.246094 783.140625 1579 785 M 2008.394531 718.046875 C 2004.886719 720.140625 2004 726.4375 2003 730 C 1999.445313 741 1996.402344 752 1993.523438 763 C 1982.785156 804.238281 1969.761719 845.003906 1958 886 C 1911.597656 1050.203125 1863.214844 1214 1816.425781 1378 C 1802.9375 1425.320313 1790.324219 1473.015625 1775.660156 1520 C 1772.179688 1531.152344 1768.703125 1542.601563 1766 1554 C 1765.273438 1557.816406 1765.859375 1564.738281 1771.777344 1562.378906 C 1775.667969 1560.824219 1776.253906 1554.480469 1777.339844 1551 C 1780.960938 1539.402344 1784.246094 1527.683594 1787.578125 1516 C 1801 1468.632813 1814.902344 1421.367188 1828.421875 1374 C 1875.433594 1209.257813 1923 1044.667969 1970.289063 880 C 1982 838.664063 1994 797.332031 2006 756 C 2008.917969 746 2013.375 735.503906 2014.695313 725 C 2015 721.410156 2013.300781 715.117188 2008.394531 718.046875 M 1018.4375 762.03125 C 1015 764.273438 1017 769 1017.859375 772 L 1025 798 C 1035.71875 835.367188 1047 872.519531 1057 910 C 1100.367188 1069.5625 1149.460938 1227.5625 1193 1387 C 1204.785156 1429.453125 1217.351563 1471.664063 1229.421875 1514 C 1232.277344 1524.019531 1234.925781 1534.136719 1238.300781 1544 C 1239.429688 1547.300781 1242.234375 1552.550781 1246.566406 1549.800781 C 1250 1547.535156 1248.183594 1542.1875 1247.371094 1539 C 1244.796875 1529 1241.582031 1519 1238.710938 1509 C 1226.359375 1466.023438 1214.332031 1423 1202 1380 C 1156.519531 1221.511719 1108.226563 1063.410156 1066 904 C 1056.292969 866.816406 1044.964844 830 1034.421875 793 C 1031.902344 784.160156 1030.210938 774.480469 1026.613281 766.019531 C 1025.289063 763 1022 759.609375 1018.4375 762.03125 M 1447 911 C 1504 911.007813 1542.980469 977 1498.714844 1020.710938 C 1482.527344 1036.710938 1461.875 1041 1440 1041 C 1452.484375 1056.066406 1477.863281 1059 1496 1059 C 1512.5 1059 1527.925781 1054.667969 1542 1046 C 1597.429688 1011.542969 1591 928.347656 1530 903.605469 C 1510.273438 895.605469 1486.386719 894 1466 900.671875 C 1459.617188 902.773438 1450.671875 905 1447 911 M 2188 918 C 2180.457031 920.179688 2174.59375 943.0625 2171.574219 950 C 2157.339844 982.71875 2142.605469 1015.199219 2128.574219 1048 C 2071.972656 1180.277344 2011.816406 1311.074219 1954.425781 1443 C 1937.433594 1482.054688 1920.347656 1521.050781 1903 1560 C 1899 1569.328125 1894.335938 1578.414063 1890.816406 1588 C 1889.621094 1591.253906 1888.621094 1597.363281 1894 1597.363281 C 1898.191406 1597.363281 1900 1592.125 1901.421875 1589 C 1905.476563 1579.640625 1909.679688 1570.367188 1913.71875 1561 C 1930.605469 1522 1948.640625 1483.203125 1965.421875 1444 C 2022.308594 1311.089844 2083 1180 2140 1047 C 2154.238281 1014.199219 2169 981.769531 2183.28125 949 C 2186.621094 941.257813 2191.640625 933.097656 2193.851563 925 C 2194.875 921.25 2192.765625 916.429688 2188 918 M 838 958 C 829 960.027344 842.601563 982.378906 844.578125 987 C 857.347656 1017 871 1046.316406 884 1076 C 940.246094 1203 993.558594 1331.53125 1052.78125 1457 C 1068.792969 1491 1083.417969 1525.601563 1098.425781 1560 C 1101.855469 1568 1104.988281 1576.429688 1108.996094 1584 C 1110.472656 1586.769531 1113.21875 1590.332031 1116.855469 1589.148438 C 1120.402344 1588 1119.988281 1583.796875 1119 1581 C 1116 1572.492188 1111.570313 1564.261719 1108 1556 C 1093 1521.53125 1077.40625 1487.429688 1062.425781 1453 C 1007.175781 1326.015625 947.191406 1200.824219 893.988281 1073 C 881.515625 1043.035156 867.195313 1014 854.425781 984 C 852 978.632813 845.9375 956.171875 838 958 M 2381 1035.046875 C 2371.835938 1039.75 2364.445313 1060.316406 2358.945313 1069 C 2339 1100.351563 2320 1132.277344 2300.796875 1164 C 2231.269531 1278.527344 2162 1393.441406 2091 1507 C 2069.726563 1541.066406 2047.890625 1575.167969 2027.851563 1610 C 2022.773438 1618.820313 2015.296875 1627.5625 2011.546875 1637 C 2010.226563 1640.332031 2010.941406 1646.398438 2016 1645.25 C 2020 1644.335938 2022.289063 1639.175781 2024.199219 1636 C 2029.632813 1627 2035 1618 2040.695313 1609 C 2063.691406 1572.808594 2086 1536 2107.859375 1499 C 2176 1383.261719 2247.582031 1269.050781 2318.574219 1155 C 2337.550781 1124.515625 2355.542969 1093.386719 2374.679688 1063 C 2378.90625 1056.292969 2385.277344 1048.648438 2387.539063 1041 C 2388.761719 1037 2385.417969 1033 2381 1035.046875 M 634.316406 1058.761719 C 631 1060.222656 632.3125 1064.542969 633.417969 1067 C 636.554688 1074 641.570313 1080.519531 645.632813 1087 C 663 1115 680.171875 1143.054688 697.574219 1171 C 771.6875 1290 847.980469 1408.222656 919 1529 C 938.4375 1561.753906 959.332031 1593.585938 979.1875 1626 C 983.804688 1633.53125 988 1642 993.359375 1649 C 995.238281 1651.359375 998.480469 1654 1001.683594 1652 C 1005 1650 1003.199219 1645.65625 1001.753906 1643 C 997.460938 1635.113281 992.324219 1627.621094 987.574219 1620 C 967.683594 1588.058594 947.847656 1556.085938 928.1875 1524 C 854.960938 1404.476563 783 1283.546875 706.65625 1166 C 688.746094 1138.425781 671.59375 1110.152344 654.601563 1082 C 651.503906 1077 642.183594 1055.1875 634.316406 1058.761719 M 2586 1145 C 2581.601563 1146.097656 2578.488281 1151.644531 2575.800781 1155 C 2569.320313 1163.085938 2562.273438 1170.757813 2556 1179 C 2534 1207.703125 2510 1235 2487.550781 1263 C 2402 1370 2313.96875 1474.773438 2227.609375 1581 C 2200.445313 1614.417969 2172.914063 1647.542969 2145.804688 1681 C 2139.183594 1689.167969 2131.441406 1697.242188 2125.652344 1706 C 2123.605469 1709.097656 2122.675781 1714.703125 2128 1714.703125 C 2132.496094 1714.703125 2135.515625 1710.070313 2138 1707 C 2144.246094 1699.285156 2150.566406 1691.625 2156.921875 1684 C 2183.316406 1652.316406 2208 1619.136719 2235 1588 C 2327.328125 1481.824219 2413.429688 1369.761719 2502.574219 1261 C 2526 1232.378906 2549.660156 1204 2572.800781 1175 C 2578.507813 1168 2585.847656 1161 2590.433594 1153 C 2592.554688 1149.351563 2591.484375 1143.304688 2586 1145 M 1597 1332 C 1576.6875 1332 1557.945313 1331.464844 1540 1320.535156 C 1497.488281 1294.644531 1490.414063 1236.785156 1528 1203.175781 C 1546.828125 1186.335938 1568.824219 1183 1593 1183 C 1588.914063 1175.535156 1577.582031 1171.15625 1570 1168.011719 C 1544.980469 1157.632813 1517.871094 1157.011719 1492 1164.425781 C 1410.625 1187.753906 1395 1298.707031 1468 1342.175781 C 1485.210938 1352.445313 1504.988281 1358 1525 1358 C 1548.265625 1358 1581.855469 1351.746094 1597 1332 M 442.226563 1169.785156 C 438.460938 1171.277344 439.660156 1175.359375 441.265625 1178 C 445.425781 1185 451.402344 1190.753906 456.398438 1197 C 477.695313 1223.609375 500 1249.320313 521.335938 1276 C 610.671875 1388.367188 703.992188 1497.617188 794.539063 1609 C 819.273438 1639.425781 844 1669.832031 869 1700 C 874.871094 1707 880.414063 1714.195313 886.429688 1721 C 888.542969 1723.371094 892 1727.398438 895.683594 1725.574219 C 899.515625 1723.648438 897 1718.503906 895.46875 1716 C 890.53125 1708.625 884 1701.824219 878.414063 1695 C 853 1664.570313 827.558594 1634.144531 803 1603 C 714.734375 1490.394531 619.910156 1382.769531 530.449219 1271 C 509.1875 1244.433594 487.421875 1218.238281 465.75 1192 C 461.695313 1187.089844 449.789063 1166.796875 442.226563 1169.785156 M 1496 1402.4375 C 1489 1403.53125 1481.949219 1406.054688 1476 1409.8125 C 1430.347656 1438.640625 1463.980469 1503.277344 1513 1495.5625 C 1520 1494.449219 1526.894531 1491.789063 1533 1488.074219 C 1556.320313 1474 1562.226563 1441.035156 1544.675781 1420 C 1532.882813 1406 1514 1399.589844 1496 1402.4375 M 2584.996094 1456 C 2576.84375 1458.09375 2569 1469.285156 2563 1474.714844 C 2542.480469 1492.8125 2522.777344 1512.050781 2503 1531 C 2438.394531 1592.738281 2372.402344 1653.164063 2307 1714.089844 C 2284.902344 1734.675781 2263.652344 1756.308594 2241 1776.285156 C 2238.285156 1778.679688 2216.46875 1796.542969 2228 1798.625 C 2235.925781 1800.035156 2247.972656 1784 2253 1779.015625 C 2274.226563 1758.308594 2296.296875 1738.304688 2318 1718.089844 C 2388 1653 2456.222656 1585.019531 2528 1521.714844 C 2546 1505.714844 2563.320313 1488.433594 2581 1472 C 2583 1470 2597.691406 1452.359375 2584.996094 1456 M 432 1461 C 422.316406 1464.003906 439.546875 1477.5625 442 1480 C 458.742188 1496.632813 476.300781 1513.101563 494 1528.714844 C 570 1595.828125 643.667969 1667 717 1737.039063 C 737.464844 1756.605469 758.285156 1775.792969 779 1795.089844 C 782.992188 1798.808594 795 1814.796875 801.679688 1811 C 809.507813 1806.320313 792 1793.089844 789 1790.425781 C 768 1772.207031 748.980469 1751.800781 728 1733.574219 C 651.183594 1667 581.324219 1592.03125 505 1524.714844 C 486.902344 1508.75 469.371094 1491.777344 452 1475.011719 C 448 1471.273438 438 1459 432 1461 M 1504 1566.425781 C 1475.847656 1570.121094 1446.410156 1567.453125 1418 1570.171875 C 1360.679688 1575.648438 1303.878906 1585.503906 1248 1599.476563 C 1015.5 1657.613281 807 1805.695313 676 2006 C 622.316406 2088.21875 583.886719 2180 560 2275 C 538.914063 2360 529.515625 2451.683594 537.828125 2539 C 548.828125 2654.492188 576.871094 2765 629.246094 2869 C 813.96875 3236.082031 1239 3434.429688 1640 3381.71875 C 1922.265625 3344.601563 2186.800781 3191.4375 2342.308594 2950 C 2380.203125 2891.164063 2410.855469 2828 2434.308594 2762 C 2457.511719 2696.792969 2472.167969 2628 2478.828125 2559 C 2505 2288.535156 2395 2016.671875 2197 1832.089844 C 2087.832031 1730.394531 1955.199219 1656.15625 1813 1612 C 1741.589844 1589.785156 1668.296875 1577.019531 1594 1569.828125 C 1572 1567.703125 1550 1567 1528 1567 C 1520 1567 1511.921875 1565.382813 1504 1566.425781 M 1500 1600.285156 C 1528.289063 1597 1560.714844 1601.128906 1589 1603.828125 C 1660.695313 1610.683594 1731 1622.554688 1800 1644 C 1879.550781 1668.691406 1956.191406 1702.320313 2027 1746.425781 C 2242.203125 1880.472656 2397.523438 2101.203125 2436.574219 2353 C 2447.28125 2422.027344 2448.550781 2492.578125 2441.828125 2562 C 2436.273438 2619.398438 2423.882813 2676.109375 2406.34375 2731 C 2298 3070.042969 1976.386719 3311.296875 1626 3349 C 1513.523438 3361 1400.757813 3356.039063 1290 3331.574219 C 1066.171875 3282.136719 859 3150.230469 727 2962 C 684.617188 2901.5625 650.242188 2836.011719 624 2767 C 584.882813 2663.707031 572.992188 2557.390625 573 2448 C 573 2355 596.742188 2260.351563 630.1875 2174 C 667.957031 2076.492188 725 1986.472656 795.171875 1909 C 927.816406 1762.390625 1107.765625 1664.644531 1300 1622.425781 C 1344.1875 1612.71875 1389.902344 1606.179688 1435 1603.089844 C 1456.503906 1601.617188 1478.636719 1602.808594 1500 1600.285156 M 1470 1643.425781 C 1450.941406 1646 1431.199219 1645.335938 1412 1647.171875 C 1371.742188 1651.015625 1331.429688 1657.601563 1292 1666.652344 C 1123.941406 1705.21875 963.648438 1791 844 1916 C 772.9375 1990.355469 719.277344 2074.761719 676.769531 2168 C 644 2239.691406 625.644531 2320 617.832031 2398 C 610.203125 2474.289063 613.539063 2551.683594 628.601563 2627 C 642.359375 2695.808594 665 2763.132813 696.246094 2826 C 721.582031 2877.03125 752 2926.707031 788 2971 C 837.21875 3031.542969 892.691406 3086.511719 956 3132.253906 C 1149.71875 3272.222656 1392.742188 3330.785156 1629 3299.71875 C 1959.574219 3256.25 2263.304688 3026.53125 2358.425781 2701 C 2371.378906 2656.667969 2382.222656 2611.070313 2386.832031 2565 C 2394.65625 2486.757813 2392.90625 2408.496094 2378.390625 2331 C 2338.691406 2119.117188 2210.664063 1931.75 2035 1808.4375 C 1948.25 1747.542969 1850.90625 1704 1749 1675.574219 C 1681.226563 1656.738281 1611 1647.027344 1541 1644 C 1517.992188 1643 1492.9375 1640.410156 1470 1643.425781 M 1463 1661.285156 C 1490.183594 1658.078125 1520.761719 1660.046875 1548 1662 C 1603.441406 1665.707031 1657.636719 1672 1712 1684.347656 C 1853.460938 1716.8125 1987.628906 1783.523438 2097 1879.285156 C 2246.210938 2010 2349.605469 2196.355469 2368.828125 2395 C 2376 2470.496094 2373.382813 2546.308594 2359.390625 2621 C 2315.761719 2854 2159.273438 3058 1954 3173.140625 C 1844.691406 3234.503906 1725.203125 3270.808594 1601 3285.714844 C 1205.449219 3333.179688 788.480469 3094.617188 668 2707 C 644.851563 2632.425781 632.554688 2554 632 2476 C 631.238281 2367.800781 657.878906 2263.515625 698.546875 2164 C 735 2074.449219 795 1990.425781 863 1922.089844 C 980.277344 1804.289063 1129.621094 1723.140625 1291 1685 C 1329 1676 1368 1669.0625 1407 1665.167969 C 1425.605469 1663.308594 1444.460938 1663.472656 1463 1661.285156 M 422.230469 1689.070313 C 414.707031 1693.179688 425.902344 1700.207031 429 1702.421875 C 443.355469 1712.6875 457.628906 1723.050781 472 1733.289063 C 532.460938 1776.375 593 1819.410156 653 1863.152344 C 669.238281 1875 685.632813 1886.625 702 1898.289063 C 705.703125 1901 714.6875 1910 719.679688 1907 C 727.246094 1902.453125 712.894531 1893.769531 710 1891.628906 C 694 1880 678 1868.402344 662 1857.035156 C 601.363281 1814.207031 541.359375 1770.5 481 1727.289063 C 466.652344 1717.019531 452.304688 1706.75 438 1696.425781 C 434.421875 1694 427 1686.417969 422.230469 1689.070313 M 2585 1688.722656 C 2577.464844 1691 2570.289063 1698.710938 2564 1703.253906 C 2549.363281 1713.828125 2534.59375 1724.207031 2520 1735 C 2472.5625 1769.4375 2424.800781 1803.628906 2377 1837.710938 C 2360.296875 1849.617188 2343.59375 1861.582031 2327 1873.640625 C 2324.472656 1875.476563 2309 1887 2320 1888.574219 C 2326.351563 1889.566406 2334.328125 1881.054688 2339 1877.710938 C 2355.367188 1866 2371.625 1854.128906 2388 1842.421875 C 2439 1806 2490.265625 1769.222656 2541 1732.117188 C 2555.921875 1721.203125 2571.316406 1711 2585.996094 1699.625 C 2590.246094 1696.367188 2594.816406 1685.820313 2585 1688.722656 M 1193.613281 1753.085938 C 1190.589844 1755.199219 1193.855469 1761.527344 1194.8125 1764 C 1199 1775 1203.367188 1786 1207.308594 1797 C 1223.792969 1843.316406 1242 1889.0625 1264.246094 1933 C 1270.316406 1945.050781 1277.398438 1957 1284.972656 1968 C 1286.191406 1969.796875 1290.710938 1978.832031 1293.960938 1976 C 1296.253906 1974 1293.246094 1967.371094 1292.628906 1965 C 1289.726563 1954 1285.976563 1943 1282.332031 1932 C 1266.796875 1885.394531 1243.445313 1841.644531 1221.242188 1798 C 1215 1786 1208.792969 1774.070313 1202.753906 1762 C 1201.496094 1759.488281 1197.914063 1750.085938 1193.613281 1753.085938 M 1820.195313 1753.085938 C 1816.644531 1755 1814.921875 1760.648438 1813.246094 1764 C 1808.574219 1773.34375 1804 1783 1799 1792 C 1776 1832.441406 1754.679688 1876.234375 1738.859375 1920 C 1733.738281 1934.167969 1729 1948.519531 1725 1963 C 1724.386719 1965.132813 1719.78125 1977.246094 1724.9375 1976.535156 C 1728.550781 1976.035156 1731.679688 1968.691406 1733.574219 1966 C 1741.265625 1955.085938 1747.613281 1942.804688 1753.832031 1931 C 1775.722656 1889.46875 1793.695313 1844.476563 1808.667969 1800 C 1812.863281 1787.53125 1817.769531 1775.234375 1822.597656 1763 C 1823.503906 1760.707031 1826.867188 1749.660156 1820.195313 1753.085938 M 1428 2210 C 1394.246094 2163 1361.882813 2113.804688 1330.585938 2065 C 1323.222656 2053.519531 1315.335938 2042.289063 1307.671875 2031 C 1304.914063 2027 1301 2021.125 1295.226563 2023.746094 C 1290.644531 2025.808594 1292.171875 2032.242188 1293 2036 C 1296.308594 2048.042969 1299.949219 2060.113281 1303.660156 2072 C 1319.367188 2122.335938 1333.703125 2173.238281 1348 2224 C 1308.574219 2202.03125 1272 2171.582031 1235 2145.71875 C 1177 2105.273438 1118.515625 2065.816406 1061 2025 C 1037.867188 2008.386719 1014.277344 1992.546875 991 1976.28125 C 984.277344 1971.582031 973 1960.121094 964 1965.316406 C 953.246094 1971.589844 967.21875 1985.328125 971.660156 1991 C 989.246094 2013.449219 1007.480469 2035.40625 1024.882813 2058 C 1073.664063 2121.34375 1124.195313 2183.449219 1173.996094 2246 C 1199.523438 2278.066406 1223.285156 2312.820313 1251 2343 C 1230.597656 2340.253906 1210 2334.492188 1190 2330.210938 C 1149.660156 2321.632813 1109.226563 2313.453125 1069 2304.351563 C 1054.8125 2301.140625 1040.375 2297.671875 1026 2295.4375 C 1021.464844 2294.734375 1013 2295 1014.492188 2302 C 1015.480469 2306.734375 1022.238281 2308.777344 1026 2311 C 1037.230469 2317.089844 1048.828125 2322.65625 1060 2329 C 1091 2346.652344 1123 2363.675781 1155 2379.753906 C 1169 2387 1191.257813 2394.371094 1202 2406 C 1187 2406.039063 1171.757813 2409.601563 1157 2411.730469 C 1132.699219 2415.230469 1108.308594 2418.226563 1084 2421.730469 C 1003.851563 2433.277344 923.472656 2446.011719 843 2455.050781 C 815.269531 2458.164063 787.617188 2462.75 760 2466.730469 C 752.78125 2467.769531 734.792969 2467.421875 736.988281 2479 C 738.898438 2489.066406 757.191406 2488.042969 765 2489.128906 C 794 2493.171875 823 2497.09375 852 2501.269531 C 976.503906 2519.210938 1101.210938 2537.214844 1226 2553 L 1226 2554 C 1206 2561.234375 1187 2576 1169 2586.800781 C 1135.453125 2606.816406 1101.492188 2626.105469 1068 2646.199219 C 1055.378906 2653.773438 1042.71875 2661.304688 1030 2668.71875 C 1025.816406 2671.160156 1019.832031 2676.519531 1025.433594 2681.257813 C 1029.570313 2684.757813 1036.5625 2681.351563 1041 2680.152344 C 1053.96875 2676.644531 1067 2673.546875 1080 2670.011719 C 1112.183594 2661.230469 1144.75 2653.796875 1177 2645.265625 C 1196.5625 2640.089844 1216.957031 2632.699219 1237 2630 C 1212.347656 2656.785156 1191.292969 2687.570313 1168.550781 2716 C 1119.382813 2777.464844 1070.480469 2839.164063 1021.789063 2901 C 1005.1875 2922.082031 988.210938 2943 971.660156 2964 C 967.300781 2969.566406 955 2981.191406 962.433594 2988.566406 C 970.445313 2996.585938 983.636719 2984.078125 990 2979.574219 C 1013.515625 2963 1037.386719 2946.78125 1061 2930.28125 C 1131.238281 2881.199219 1201.621094 2832.320313 1272 2783.433594 C 1303.246094 2761.730469 1335.863281 2741.226563 1366 2718 C 1350 2774.371094 1337.953125 2832.082031 1324 2889 C 1320.8125 2902.667969 1317.378906 2916.320313 1314 2930 C 1313 2934.65625 1312.457031 2941.5 1319 2942.199219 C 1324.167969 2942.75 1327.523438 2936.742188 1329.714844 2933 C 1336 2922.253906 1342.558594 2911.621094 1349 2901 C 1367.191406 2871.382813 1385 2841.609375 1403.1875 2812 C 1412.484375 2796.824219 1420.636719 2779.722656 1432 2766 C 1433.511719 2801.152344 1443.417969 2837.175781 1448.574219 2872 C 1459.878906 2948.371094 1471.644531 3025 1484.414063 3101 C 1488.769531 3127 1492.625 3153.019531 1496.921875 3179 C 1498.199219 3186.742188 1498.597656 3203.515625 1510.984375 3200.15625 C 1520.394531 3197.601563 1519.652344 3181.710938 1520.921875 3174 C 1525.507813 3146.109375 1530.753906 3118.050781 1534 3090 C 1539.628906 3045 1548.605469 3000 1555.574219 2955 C 1566.472656 2884.730469 1575.832031 2814 1589 2744 L 1590 2744 C 1595.871094 2759.269531 1609.195313 2773.308594 1618 2787 C 1641.394531 2822.597656 1665.722656 2857.476563 1689 2893 C 1696.972656 2905.003906 1704.8125 2917.402344 1713.347656 2929 C 1716 2932.648438 1722.328125 2936.539063 1726 2931.566406 C 1728.867188 2928 1726.226563 2921.824219 1725 2918 C 1721.636719 2905.636719 1717.839844 2893.351563 1714.289063 2881 C 1704.796875 2848 1695 2815 1685.277344 2782 C 1680.460938 2765.765625 1673.261719 2748.789063 1671 2732 C 1768.34375 2798.21875 1863.414063 2867.804688 1961 2933.671875 C 1983.835938 2949.082031 2006.597656 2964.832031 2029 2981 C 2035 2985.167969 2048.257813 2997.058594 2055.257813 2987.773438 C 2061.316406 2979.734375 2048.332031 2967.773438 2043.789063 2962 C 2026.410156 2940 2008.546875 2918.21875 1991.347656 2896 C 1918 2801.261719 1839.339844 2710.253906 1768 2614 C 1827 2622 1885.585938 2639.621094 1944 2651.398438 C 1958 2654.226563 1971.980469 2657.351563 1986 2660.199219 C 1990.664063 2661.148438 1998.523438 2664 2002.679688 2660.394531 C 2007.4375 2656.363281 2002.785156 2651.492188 1998.984375 2649.3125 C 1987.230469 2642.570313 1975 2636.386719 1963 2630.242188 C 1931.4375 2614.1875 1899.96875 2597.308594 1869 2580.140625 C 1851.53125 2570.457031 1832.171875 2556.628906 1813 2551 L 1813 2550 C 1849.613281 2543.199219 1887 2540.042969 1924 2534.730469 C 2004.941406 2523.066406 2085.984375 2512.097656 2167 2501 C 2195.644531 2497.074219 2224.46875 2493.753906 2253 2489.078125 C 2260.558594 2488 2276.898438 2489 2279.757813 2480 C 2283.78125 2467.375 2263.316406 2467.660156 2256 2466.578125 C 2227 2462.289063 2198 2458.101563 2169 2454.28125 C 2085.265625 2443.269531 2001.695313 2431 1918 2419.71875 C 1877.742188 2414.292969 1835.601563 2404 1795 2403 L 1795 2402 C 1814 2395.050781 1832.578125 2381 1850 2370.398438 C 1883.820313 2350.121094 1917.738281 2329.8125 1952 2310.28125 C 1964.757813 2303.007813 1977.472656 2295.574219 1989.960938 2288 C 1993.789063 2285.476563 1998.691406 2280 1993.566406 2276 C 1989.796875 2273 1983 2275.585938 1979 2276.628906 C 1966 2280 1953 2283.636719 1940 2286.652344 C 1898.757813 2296.167969 1858.183594 2308.484375 1817 2318.234375 C 1804 2321.300781 1791.214844 2326.21875 1778 2328 C 1801.613281 2300.710938 1822.925781 2271.195313 1845.449219 2243 C 1895.617188 2180.1875 1945.441406 2117.117188 1995.210938 2054 C 2012 2032.597656 2029.445313 2011.5625 2046 1990 C 2050.40625 1984.457031 2062.828125 1972.738281 2053.769531 1966 C 2044.925781 1959.210938 2032.828125 1971.726563 2026 1976.328125 C 2002 1992.417969 1978.5 2009 1955 2025.574219 C 1855.652344 2095.832031 1755.863281 2166 1655 2234 C 1656.492188 2215.710938 1663.675781 2196.789063 1668 2179 C 1677.425781 2142 1686.976563 2104.453125 1695 2067 C 1697.808594 2054 1702 2041.113281 1704.789063 2028 C 1705.675781 2023.796875 1707.441406 2017 1701.890625 2015.125 C 1696.695313 2013.480469 1693 2018.203125 1690.59375 2022 C 1683.632813 2032.777344 1677.230469 2044.011719 1670.601563 2055 C 1652.878906 2084.382813 1634.855469 2113.574219 1617.199219 2143 C 1607.371094 2159.382813 1598.367188 2178.453125 1586 2193 C 1571.664063 2080.164063 1551.445313 1967.203125 1532.753906 1855 C 1528.371094 1828.703125 1523.84375 1802.398438 1520 1776 C 1519 1768.644531 1518.527344 1752.335938 1507 1754.667969 C 1496.917969 1756.707031 1497.390625 1773.078125 1496 1781 C 1491.472656 1809 1486.210938 1837 1482.84375 1865 C 1474.855469 1931.5625 1461.503906 1997.746094 1451.273438 2064 C 1443.859375 2112.039063 1440.175781 2163 1428 2210 M 1355 1784.085938 C 1352.621094 1786.488281 1355.757813 1796.808594 1355.976563 1800 C 1357 1816 1358.472656 1832.089844 1360.574219 1848 C 1369 1912.472656 1374 1977 1391.574219 2040 C 1396.894531 2059.140625 1403.738281 2078 1408.988281 2097 C 1409.589844 2099.195313 1411.921875 2116.25 1415.503906 2113.824219 C 1418.71875 2111.644531 1415.285156 2101.242188 1415 2098 C 1413.574219 2081.710938 1414.203125 2065.242188 1412.285156 2049 C 1404.378906 1982 1392.285156 1917.570313 1375.871094 1852 C 1371.445313 1834.308594 1366.722656 1816.703125 1362.375 1799 C 1361.929688 1797.1875 1359 1780.117188 1355 1784.085938 M 1659.453125 1784.085938 C 1655.542969 1786.703125 1655 1796.738281 1654 1801 C 1650.398438 1816.386719 1646.214844 1831.636719 1642.371094 1847 C 1626.535156 1910.34375 1612.941406 1973.121094 1605.285156 2038 C 1602.980469 2057.546875 1604.492188 2077.472656 1602 2097 C 1601.933594 2099 1598.679688 2116.710938 1603.332031 2113.824219 C 1606.753906 2111.699219 1606.960938 2101.65625 1607.871094 2098 C 1611.402344 2084 1616 2070 1620.671875 2056 C 1641.609375 1991.757813 1647.738281 1923.699219 1655.714844 1857 C 1657.9375 1838.414063 1659.699219 1819.664063 1660.976563 1801 C 1661 1799 1664.5 1780.710938 1659.453125 1784.085938 M 2595.996094 1878.683594 C 2578.523438 1882.664063 2558.839844 1898.15625 2543 1906.691406 C 2506.304688 1926.46875 2469.863281 1946.769531 2433 1966.21875 C 2419.996094 1973.082031 2406.753906 1979.683594 2394 1987 C 2391 1988.636719 2380.828125 1995.152344 2388.230469 1998.390625 C 2393.1875 2000.558594 2399.945313 1995.304688 2404 1993 C 2416.523438 1986 2429.328125 1979.160156 2442 1972.308594 C 2484.546875 1949.296875 2527 1926 2570 1903.742188 C 2579.589844 1898.789063 2591.414063 1893.765625 2599.851563 1887.046875 C 2604.445313 1883.386719 2601.910156 1877.335938 2595.996094 1878.683594 M 426 1883 C 420.398438 1884.785156 425 1890.769531 428 1892.648438 C 438.90625 1899.472656 450.78125 1905 462 1911.140625 C 505.644531 1935.488281 550 1958.488281 594 1982.308594 C 605.992188 1988.808594 617.839844 1995.574219 630 2001.757813 C 633.9375 2003.757813 639.980469 2008.621094 644.683594 2006.394531 C 651 2003.390625 642.714844 1997.390625 640 1996 C 627.46875 1988.800781 614.523438 1982.484375 602 1975.425781 C 559.40625 1951.414063 515.59375 1929.589844 473 1905.574219 C 461.828125 1899.277344 450.394531 1893.140625 439 1887.257813 C 435.625 1885.515625 430 1881.503906 426 1883 M 1087 1909 C 1090.574219 1917.066406 1097.179688 1924 1102.289063 1931 C 1113.414063 1946.566406 1124.824219 1962 1136.574219 1977 C 1171.726563 2022.183594 1207.472656 2067.472656 1248 2108 C 1262.355469 2122.355469 1277.640625 2135.695313 1292 2150 C 1293.511719 2151.507813 1304.519531 2165 1306.839844 2162 C 1308.984375 2159.171875 1298.976563 2149.328125 1297.429688 2147 C 1286.589844 2130.6875 1275.191406 2114.691406 1263.472656 2099 C 1227.3125 2050.578125 1184 2009.132813 1144.285156 1964 C 1132 1950.089844 1118.191406 1937.730469 1104.910156 1924.828125 C 1099.730469 1919.800781 1094 1911.132813 1087 1909 M 1930 1909 C 1922.988281 1911.136719 1917 1920 1912 1925 C 1898.933594 1938.066406 1884.96875 1950.109375 1872.714844 1964 C 1832.976563 2009.054688 1789 2050.128906 1753.574219 2099 C 1742 2115 1731 2131 1719.789063 2147 C 1718.183594 2149.28125 1707.945313 2159.085938 1710 2162 C 1712.480469 2165 1723.488281 2151.507813 1725 2150 C 1739.359375 2135.695313 1754.644531 2122.355469 1769 2108 C 1809.550781 2067.449219 1845.257813 2022.210938 1880.425781 1977 C 1891.929688 1962.210938 1903 1947.179688 1914 1932 C 1919.363281 1924.589844 1926.4375 1917.46875 1930 1909 M 2592 2046.53125 C 2579.898438 2048.746094 2567.46875 2055.761719 2556 2060.1875 C 2530.34375 2070.09375 2504.761719 2080.3125 2479 2090 C 2470.285156 2093.210938 2460 2095.550781 2452 2100.414063 C 2448.898438 2102.339844 2446.5625 2107.3125 2451.230469 2109.21875 C 2454.640625 2110.609375 2458.859375 2108.21875 2462 2107.050781 C 2470.730469 2103.800781 2479.351563 2100.261719 2488 2096.800781 C 2514.203125 2086.320313 2540.796875 2077 2567 2066.398438 C 2575.632813 2063 2591 2060.265625 2597.550781 2053.5 C 2601.941406 2049 2596.457031 2045.71875 2592 2046.53125 M 425.320313 2051.03125 C 421.65625 2053.457031 424.273438 2057.5 427 2059.09375 C 434.914063 2063.484375 444.597656 2066.207031 453 2069.320313 C 486 2081.59375 519 2094.472656 552 2107.601563 C 558.308594 2110.121094 579.636719 2121.738281 585.550781 2117.101563 C 589.183594 2114.253906 585.898438 2110.445313 582.957031 2109 C 574.914063 2104.734375 565.507813 2101.832031 557 2098.679688 C 524.167969 2086.527344 491.804688 2073.179688 459 2061 C 452.226563 2058.425781 431.914063 2046.675781 425.320313 2051.03125 M 890.660156 2079.132813 C 886.867188 2081.789063 897.4375 2088.671875 899 2090.050781 C 910.851563 2100.515625 923 2110.480469 935 2121 C 984.40625 2164.566406 1036 2206 1091 2242.332031 C 1105.804688 2252.132813 1121.59375 2260.328125 1136 2270.746094 C 1138.410156 2272.488281 1147.714844 2282.304688 1150.914063 2279 C 1153.945313 2275.808594 1141.882813 2268.691406 1140 2267.253906 C 1125.210938 2256 1113 2241.597656 1099 2229.425781 C 1049.304688 2186.257813 995.519531 2150 942 2112 C 929.507813 2103 916.269531 2095.054688 904 2086 C 901.503906 2084.003906 894 2076.6875 890.660156 2079.132813 M 2123.941406 2079 C 2117.933594 2080.207031 2111.996094 2087 2107 2090.253906 C 2094.683594 2098.621094 2082.34375 2107 2070 2115.328125 C 2021 2148.421875 1971.445313 2182.175781 1927 2221.285156 C 1910.960938 2235.398438 1896.289063 2251.035156 1880 2265 C 1878.539063 2266.105469 1861 2278.726563 1867.324219 2279.535156 C 1872.453125 2280.203125 1879 2272.035156 1883 2269.347656 C 1897.597656 2259.257813 1913 2250.640625 1928 2241.015625 C 1981.480469 2206.449219 2028.941406 2164.773438 2078 2124.386719 C 2091.191406 2113.527344 2104.210938 2102.277344 2117 2091 C 2118 2090 2132.773438 2077 2123.941406 2079 M 2771 2119 C 2778.628906 2130 2786.566406 2138 2787.675781 2152 C 2789.628906 2176.738281 2764.300781 2197.660156 2741 2197.660156 C 2715.714844 2197.660156 2692.738281 2176.429688 2693 2151 C 2693 2136.527344 2702.453125 2130 2708 2118 C 2668.898438 2131.550781 2655.199219 2183.125 2678 2216 C 2694.972656 2240.375 2725.40625 2250.40625 2754 2245.566406 C 2783.25 2240.613281 2807.851563 2216.703125 2811.710938 2187 C 2814.988281 2161.761719 2799 2123.386719 2771 2119 M 297 2119 C 302.839844 2127.292969 309.832031 2133.675781 312.324219 2144 C 325.617188 2199.070313 237.710938 2217.4375 221 2165 C 219 2159 218.382813 2152.375 219.300781 2146 C 220.949219 2134.5625 227.691406 2128 234 2119 C 204.445313 2122.207031 189.746094 2164.09375 193.285156 2189 C 197.960938 2222 228.75 2245.550781 261 2247 C 291.980469 2248.316406 323.535156 2231.148438 334.300781 2201 C 344.503906 2172.433594 331.195313 2125.097656 297 2119 M 752.660156 2178.039063 C 748.523438 2181.511719 759 2185.0625 761 2185.800781 C 773.773438 2191 786.34375 2196.578125 799 2202 C 845.910156 2222.101563 892.898438 2244.210938 942 2258.574219 C 953.585938 2262 965 2265 977 2267.195313 C 979.90625 2267.757813 986.980469 2270.214844 989.246094 2267.386719 C 992.316406 2263.558594 982.328125 2258.828125 980 2257.453125 C 968 2250.375 954.875 2244.394531 942 2239.199219 C 895 2220.273438 846.621094 2204.082031 798 2190.140625 C 786.9375 2187 775.917969 2183.640625 765 2180 C 762 2179.019531 755.542969 2175.617188 752.660156 2178.039063 M 2259.996094 2177.535156 C 2241.332031 2180.75 2222 2189.34375 2204 2195 C 2162.277344 2208 2120.554688 2221 2080 2237.199219 C 2065.738281 2243 2051.292969 2249.25 2038 2257.011719 C 2035.808594 2258.289063 2023.191406 2264.402344 2028.378906 2268 C 2031.84375 2270.292969 2040.230469 2267.152344 2044 2266.398438 C 2058.972656 2263.40625 2073.523438 2259.160156 2088 2254.332031 C 2130.589844 2240.132813 2171.816406 2222.050781 2213 2204.28125 C 2225.328125 2199 2237.761719 2193.804688 2250 2188.304688 C 2254.203125 2186.417969 2260.179688 2185.273438 2263.664063 2182.1875 C 2267.285156 2179 2263.238281 2177 2259.996094 2177.535156 M 2591 2191.574219 C 2582.964844 2192.097656 2574.828125 2195.8125 2567 2197.574219 C 2545.226563 2202.480469 2523.65625 2208.460938 2502 2214 C 2495.386719 2215.527344 2487 2216.320313 2481 2219.570313 C 2478.300781 2221.054688 2476 2224.65625 2479.4375 2227 C 2485.21875 2231.03125 2500.738281 2224.246094 2507 2222.765625 C 2527.429688 2218 2547.632813 2212 2568 2207 C 2575.671875 2205 2589.441406 2204.382813 2595.5625 2199.144531 C 2599.828125 2195.496094 2595.234375 2191.296875 2591 2191.574219 M 422 2196.03125 C 417.851563 2197.195313 417.867188 2201.679688 421 2204 C 425.578125 2207 432.859375 2207.339844 438 2208.625 C 463.347656 2215 488.742188 2221.191406 514 2228 C 520.441406 2229.542969 538.695313 2237.074219 544.5625 2233 C 547.898438 2230.636719 545.652344 2227 542.941406 2225.277344 C 536.777344 2221.664063 527.878906 2221.070313 521 2219.375 C 497.664063 2213.617188 474.316406 2208 451 2202.125 C 443.390625 2200.222656 429.761719 2194 422 2196.03125 M 297 2258 C 303.8125 2268.296875 311.203125 2277 311.542969 2290 C 313 2346.191406 221.335938 2348.03125 218.210938 2292 C 217.554688 2280.253906 224.78125 2272.023438 229 2262 C 197.863281 2269.382813 186.273438 2317 196.464844 2343 C 209 2375.488281 240.332031 2391.445313 274 2390 C 306.421875 2388.527344 334.824219 2362.464844 340.386719 2331 C 345.300781 2303.183594 327.347656 2263.414063 297 2258 M 2771 2258 C 2779 2271 2787.378906 2280.726563 2784.714844 2297 C 2777 2343.777344 2704 2346.582031 2693.664063 2300 C 2689.949219 2283.507813 2699.21875 2275.582031 2703 2261 C 2694.816406 2265.355469 2687.945313 2270.789063 2682 2278 C 2637.800781 2332.582031 2697.800781 2405.40625 2761 2387.570313 C 2783.519531 2381.21875 2803.320313 2365.546875 2811.300781 2343 C 2822 2312.578125 2806.761719 2264.378906 2771 2258 M 785.335938 2324.0625 C 778.351563 2328.4375 794.941406 2331.558594 797 2332 C 813.371094 2335.507813 829.742188 2339.382813 846 2343.375 C 907.585938 2358.496094 970.1875 2371 1033 2379.574219 C 1051.664063 2382.148438 1071.175781 2384 1090 2384 C 1093.335938 2384.007813 1105.816406 2387.238281 1107.824219 2384.464844 C 1109.871094 2381.640625 1093.242188 2378.410156 1091 2377.667969 C 1072.285156 2371.453125 1053.179688 2366.429688 1034 2362 C 972.707031 2347.355469 909.558594 2338 847 2331 C 832.335938 2329.304688 817.605469 2327.535156 803 2325.421875 C 798.695313 2324.796875 789.214844 2321.636719 785.335938 2324.0625 M 2227.996094 2323.488281 C 2202 2325 2175.839844 2330.582031 2150 2333.714844 C 2094.339844 2340.464844 2038.6875 2349.101563 1984 2361.652344 C 1964.484375 2366.128906 1945 2371.359375 1926 2377.667969 C 1923.757813 2378.410156 1907 2381.640625 1909.175781 2384.464844 C 1911.179688 2387.234375 1923.667969 2384.011719 1927 2384 C 1946.953125 2384 1967.1875 2381.527344 1987 2379.15625 C 2044.199219 2372.304688 2100.871094 2359.351563 2157 2346.648438 C 2173 2343.023438 2188.960938 2339 2205 2335.425781 C 2212.964844 2333.664063 2223.582031 2333.039063 2230.847656 2329.296875 C 2235.527344 2327 2231.824219 2323.269531 2227.996094 2323.488281 M 2588 2332.46875 C 2566.351563 2334.003906 2544.484375 2337.308594 2523 2340.421875 C 2519.890625 2341 2499.46875 2342 2506.617188 2349.398438 C 2510.390625 2353.332031 2522.203125 2350.289063 2527 2349.714844 C 2542 2348 2556.976563 2345.738281 2572 2344.050781 C 2577.839844 2343.394531 2587.703125 2344 2592.683594 2340.542969 C 2598 2337 2592.464844 2332.152344 2588 2332.46875 M 424 2333.757813 C 419 2336 422 2341.210938 426 2342.429688 C 447 2349 473 2348.492188 495 2351 C 500.972656 2351.621094 513.335938 2355.625 518.675781 2352 C 528 2345.511719 505.628906 2342.785156 503 2342.425781 C 484.699219 2340 466.300781 2338.097656 448 2335.574219 C 441.769531 2334.71875 430 2331.257813 424 2333.757813 M 263 2407.425781 C 248.441406 2409.359375 235.195313 2413.183594 223 2421.722656 C 215.25 2427.144531 208.59375 2434 203.617188 2442 C 170 2496.492188 222.875 2556 281 2547.714844 C 291.9375 2546.164063 302.738281 2542.148438 312 2536.136719 C 373.714844 2496.054688 335 2398 263 2407.425781 M 2737 2407.425781 C 2722.960938 2409.289063 2709.855469 2413 2698 2421.027344 C 2660.515625 2446.597656 2657.226563 2499.675781 2691 2529.824219 C 2708.382813 2545.347656 2732.371094 2550.820313 2755 2548 C 2765 2546.507813 2775.3125 2542.675781 2784 2537.386719 C 2838 2504.4375 2822.371094 2424 2762 2409.652344 C 2754 2407.765625 2745.179688 2406.335938 2737 2407.425781 M 2516 2466.574219 C 2512.207031 2467.78125 2510.929688 2472.550781 2515 2474.394531 C 2519.921875 2476.484375 2527.855469 2475 2533 2475 L 2575 2475 C 2579.921875 2475 2589.449219 2476.8125 2593.679688 2474 C 2602.875 2467.804688 2584.863281 2466 2582 2466 L 2537 2466 C 2530.558594 2466 2522.25 2464.625 2516 2466.574219 M 451 2468.425781 C 445.359375 2469.164063 423.824219 2466 421.660156 2472.128906 C 418.878906 2480.097656 437 2478 441 2478 L 488 2478 C 494.523438 2478 503.828125 2479.664063 509.941406 2477.105469 C 515.867188 2474.625 513.503906 2468.734375 507.996094 2468.109375 C 490.460938 2466.113281 468.484375 2466.128906 451 2468.425781 M 229 2694 C 224.75 2684 217.546875 2676 218.210938 2664 C 221.351563 2608.058594 313 2609.789063 311.542969 2666 C 311.203125 2679.082031 303.8125 2687.703125 297 2698 C 330.96875 2692 347.355469 2646.714844 338.5625 2617 C 330 2588.195313 301.824219 2567.34375 272 2566.039063 C 239.210938 2564.605469 207.511719 2582.1875 196 2614 C 186.730469 2640.070313 198 2686.71875 229 2694 M 2704 2695 C 2698.804688 2685.664063 2692.609375 2677.191406 2692.261719 2666 C 2690.339844 2604.273438 2796.238281 2611.621094 2784.539063 2673 C 2782.636719 2683 2776.414063 2689.808594 2771 2698 C 2805.574219 2691.832031 2821.21875 2646 2812.230469 2616 C 2803.964844 2588.449219 2777 2569 2749 2566.171875 C 2718.214844 2563.191406 2686.722656 2578.769531 2673 2607 C 2658.996094 2636.257813 2669.851563 2684.117188 2704 2695 M 1104.941406 2569.585938 C 1022.984375 2570.082031 940.734375 2591 861 2608.210938 C 840.957031 2612.542969 820.925781 2617.289063 801 2622.128906 C 798.417969 2622.757813 780 2625.550781 784.660156 2630.398438 C 788 2634 800.613281 2630 805 2629.28125 C 824.320313 2626.742188 843.6875 2624.644531 863 2622 C 918.910156 2614.339844 975 2607.152344 1030 2594.117188 C 1049.488281 2589.496094 1068.976563 2584.644531 1088 2578.332031 C 1092.988281 2576.679688 1103.484375 2576.097656 1107.339844 2573 C 1109.574219 2571 1106.691406 2569.574219 1104.941406 2569.585938 M 1909.660156 2570.074219 C 1905.632813 2572.792969 1922.238281 2576.191406 1924 2576.71875 C 1940.96875 2581.832031 1957.800781 2586.828125 1975 2591.125 C 2038.890625 2607.09375 2104.679688 2616.335938 2170 2624.15625 C 2185.335938 2626 2200.699219 2627.742188 2216 2630 C 2219.785156 2630.394531 2229.335938 2633.539063 2232.339844 2630.398438 C 2236.96875 2625.566406 2219.492188 2623 2217 2622.375 C 2197.734375 2617.621094 2178.308594 2613.460938 2159 2609 C 2098.230469 2594.480469 2036.882813 2582.824219 1975 2574.574219 C 1958.648438 2572.394531 1941.488281 2571.085938 1925 2571 C 1921.316406 2571 1912.6875 2568.03125 1909.660156 2570.074219 M 2500 2587.78125 C 2495.195313 2589.679688 2496.929688 2594.792969 2501 2596.195313 C 2508.269531 2598.648438 2517.429688 2598.296875 2525 2599.28125 C 2541.660156 2601.453125 2558.324219 2603.660156 2575 2605.714844 C 2580.824219 2606.433594 2594.878906 2610.566406 2599.667969 2606.398438 C 2608.445313 2598.746094 2584.238281 2597.140625 2581 2596.71875 C 2562 2594.253906 2542.984375 2592.183594 2524 2589.71875 C 2517.746094 2589 2506 2585.5 2500 2587.78125 M 496 2591.425781 C 476.671875 2594 457.335938 2596.308594 438 2598.714844 C 434.832031 2599.109375 417.761719 2600.210938 423.785156 2607.332031 C 427.339844 2611.535156 437.410156 2608.386719 442 2607.730469 C 456.613281 2605.640625 471.339844 2604 486 2602.15625 C 491 2601.554688 500.65625 2602.160156 504.390625 2598.273438 C 509.816406 2592.632813 499.46875 2591 496 2591.425781 M 1146.980469 2676.042969 C 1136.167969 2681.070313 1126.441406 2691.351563 1116 2697.546875 C 1056.191406 2733.03125 1002.835938 2776.5625 950 2821.578125 C 934.367188 2835 918.871094 2848.445313 903 2861.464844 C 901.277344 2863 885.742188 2874.507813 891.335938 2876.253906 C 896 2877.710938 904.410156 2868.789063 908 2866.34375 C 924.328125 2855.226563 940.882813 2844.421875 957 2833 C 1002 2801.078125 1048.828125 2770.820313 1090 2733.832031 C 1103.914063 2721.332031 1116.859375 2707.640625 1131 2695.425781 C 1136.417969 2690.742188 1147.628906 2685.175781 1150.914063 2679 C 1152.546875 2675.742188 1149.332031 2675 1146.980469 2676.042969 M 1866.660156 2676.082031 C 1862.53125 2679.125 1875.203125 2686.382813 1877 2687.75 C 1891.828125 2699.011719 1904 2713.429688 1918 2725.714844 C 1967.261719 2769.164063 2021.28125 2805.679688 2075 2843.28125 C 2087.546875 2852.0625 2100.605469 2860.152344 2113 2869.152344 C 2115.539063 2871 2122.855469 2878.515625 2126.339844 2876 C 2130 2873.070313 2117.804688 2864.734375 2116 2863.15625 C 2102.535156 2851.371094 2088.835938 2839.734375 2075 2828.386719 C 2023.464844 2786.121094 1974 2742.183594 1917 2707.1875 C 1904.199219 2699.328125 1891 2691.78125 1879 2683 C 1876.585938 2681.0625 1870 2673.585938 1866.660156 2676.082031 M 985.980469 2686.574219 C 968.203125 2686.347656 948.707031 2694.78125 932 2700 C 889.535156 2713.175781 848.992188 2732 808 2749.011719 C 793.242188 2755.148438 778.628906 2761.722656 764 2768.140625 C 762.398438 2769 746.867188 2774.550781 753.335938 2777.359375 C 757.492188 2779.164063 765 2775 769 2773.671875 C 782.902344 2769.140625 797 2765.578125 811 2761 C 855.425781 2746.335938 901 2734 944 2715.140625 C 956.5 2709.65625 969.210938 2704 981 2697 C 983.550781 2695.496094 995.75 2686.703125 985.980469 2686.574219 M 2028.378906 2687.117188 C 2023.46875 2690.277344 2033.96875 2695.800781 2036 2697 C 2047.457031 2703.699219 2059.800781 2709.371094 2072 2714.578125 C 2119.367188 2734.789063 2169.488281 2750.765625 2219 2765 C 2230.390625 2768.101563 2241.761719 2771.59375 2253 2775.332031 C 2255.589844 2776.195313 2262.539063 2779.617188 2264.914063 2777 C 2268.277344 2773.253906 2255.945313 2769.253906 2254 2768.421875 C 2239.988281 2762.425781 2225.910156 2756.558594 2212 2750.304688 C 2167.90625 2730.484375 2122.859375 2712.550781 2077 2697.332031 C 2065.308594 2693.453125 2053 2690.132813 2041 2688.082031 C 2037.796875 2687.539063 2031.328125 2685.214844 2028.378906 2687.117188 M 234 2838 C 227 2823.007813 215.707031 2814.679688 219.667969 2796 C 230.4375 2745.210938 313.886719 2748.589844 313.820313 2803 C 313.804688 2817.574219 303.542969 2825.113281 298 2837 C 325.734375 2832 341.472656 2793.042969 337.5625 2768 C 332.960938 2738.539063 309 2715.738281 280 2710.464844 C 253.8125 2705.710938 223.628906 2714.226563 207 2736 C 181.695313 2769.265625 191.589844 2823.535156 234 2838 M 2481.230469 2709.757813 C 2477.585938 2711.355469 2478.199219 2715.609375 2481.230469 2717.429688 C 2485.882813 2720.230469 2492.773438 2720.8125 2498 2722.125 L 2573 2741 C 2579.242188 2742.433594 2597.277344 2750.273438 2602.636719 2745.394531 C 2605.734375 2742.578125 2602.847656 2739.175781 2599.957031 2738 C 2593.632813 2735 2585.734375 2734.058594 2579 2732.375 C 2555.699219 2726.546875 2532.214844 2721.203125 2509 2715.117188 C 2502.304688 2713.359375 2487.816406 2707 2481.230469 2709.757813 M 2708 2838 C 2701 2823.023438 2689.722656 2814.617188 2693.667969 2796 C 2704.445313 2745.183594 2787.660156 2748.558594 2787.660156 2803 C 2787.660156 2817.644531 2777.574219 2825.03125 2772 2837 C 2799.742188 2832 2815.476563 2793.054688 2811.5625 2768 C 2806.894531 2738.125 2782.519531 2715.226563 2753 2710.285156 C 2728.566406 2706.195313 2699.933594 2713.5 2683.464844 2733.015625 C 2655.640625 2766 2663.890625 2823 2708 2838 M 517 2714.480469 C 492.535156 2718.054688 467.980469 2726.480469 444 2732.476563 C 440.765625 2733.285156 418.738281 2737.648438 427.324219 2744.101563 C 432.570313 2748.046875 444.394531 2742.285156 450 2741.011719 C 467 2737.132813 484 2732.617188 501 2728.375 C 507.195313 2726.824219 517.601563 2726.210938 522.5625 2722 C 527.699219 2717.628906 521.476563 2713.824219 517 2714.480469 M 1087 3046 C 1093.296875 3044.195313 1097.339844 3037.476563 1101.996094 3033.089844 C 1113.867188 3022 1125.476563 3010.539063 1137 2999 C 1181.757813 2954.167969 1225.433594 2906.722656 1263.476563 2856 C 1275.261719 2840.28125 1286 2824 1297.558594 2808 C 1299 2805.777344 1308.980469 2795.808594 1306.839844 2793.085938 C 1304.601563 2790.238281 1293.59375 2803.410156 1292 2805 C 1277.652344 2819.324219 1262.351563 2832.648438 1248 2847 C 1207.808594 2887.191406 1172.464844 2932.222656 1137.574219 2977 C 1125.53125 2992.460938 1113.699219 3008.0625 1102.289063 3024 C 1097.203125 3031.101563 1090.558594 3038.003906 1087 3046 M 1930 3046 C 1926.289063 3037.660156 1919.347656 3030.386719 1914 3023 C 1902.773438 3007.445313 1891.214844 2992.199219 1879.5 2977 C 1844.867188 2932.050781 1809.167969 2887.167969 1769 2847 C 1754.648438 2832.648438 1739.347656 2819.324219 1725 2805 C 1723.40625 2803.410156 1712.398438 2790.238281 1710 2793.085938 C 1708 2795.816406 1718 2805.675781 1719.570313 2808 C 1730.410156 2824.3125 1741.777344 2840.335938 1753.523438 2856 C 1789.515625 2904 1832.203125 2945.203125 1871.714844 2990 C 1884.558594 3004.5625 1898.90625 3018 1913 3031.171875 C 1918 3036 1923.210938 3044.007813 1930 3046 M 2438 2827 C 2433.644531 2828.375 2435 2833 2438 2835.007813 C 2444.273438 2839.402344 2453.871094 2842 2461 2844.496094 C 2494.363281 2856.199219 2526.890625 2870.328125 2560 2882.679688 C 2569 2886.050781 2577.945313 2889.742188 2587 2893.046875 C 2589.996094 2894.140625 2594.429688 2896.390625 2597.566406 2894.59375 C 2601.457031 2892.359375 2598.65625 2888 2595.941406 2886.226563 C 2588.441406 2881.542969 2578.34375 2878.703125 2570 2875.832031 C 2537.652344 2864.699219 2505.84375 2851.308594 2474 2838.796875 C 2465.921875 2835.625 2446.617188 2824 2438 2827 M 552 2837.546875 C 541.371094 2839.492188 530 2845.585938 520 2849.601563 C 499.734375 2857.707031 479.421875 2865.722656 459 2873.425781 C 452 2876.046875 443.328125 2878.050781 437 2882.226563 C 434.171875 2884.234375 433 2888.757813 437 2890.382813 C 444.351563 2893.308594 459.167969 2884 466 2881.320313 C 488 2873.136719 510 2864.355469 532 2855.601563 C 539.308594 2852.675781 552.203125 2850.410156 557.664063 2844.582031 C 561.726563 2840.242188 556.285156 2836.761719 552 2837.546875 M 1413.679688 2841.175781 C 1410.308594 2843.316406 1410.203125 2853.375 1409.347656 2857 C 1406 2870.824219 1400.976563 2884.46875 1396.65625 2898 C 1376.972656 2959.667969 1367.261719 3026.601563 1362 3091 C 1360.421875 3111.699219 1357.75 3132.308594 1356 3153 C 1355.882813 3155.523438 1352.445313 3173.679688 1357.546875 3171.339844 C 1361.21875 3169.648438 1361.511719 3159.515625 1362.375 3156 C 1366 3140.628906 1370.285156 3125.363281 1374 3110 C 1390 3046 1407.378906 2981.09375 1411.910156 2915 C 1413.210938 2896.027344 1413 2877 1414.925781 2858 C 1415 2856.242188 1418.429688 2838.160156 1413.679688 2841.175781 M 1601.496094 2841.175781 C 1598.292969 2843.34375 1601.691406 2853.796875 1602 2857 C 1603.839844 2873 1602.835938 2889.078125 1604.714844 2905 C 1612.5 2971 1623.960938 3034.429688 1640 3099 C 1644.804688 3117.691406 1649.78125 3136.296875 1654.375 3155 C 1655 3157.65625 1656.769531 3173.082031 1661.449219 3171.25 C 1664.601563 3170.015625 1661.296875 3158.621094 1661 3156 C 1659.824219 3140.320313 1658.511719 3124.652344 1656.835938 3109 C 1649.628906 3041.695313 1641.796875 2974.476563 1623.847656 2909 C 1618.964844 2891.183594 1612 2874 1607.628906 2856 C 1607 2854 1605.234375 2838.648438 1601.496094 2841.175781 M 2384 2942 C 2377.28125 2944 2382.613281 2950 2386 2952 C 2396.644531 2958.574219 2408 2963.828125 2419 2970 C 2460.714844 2993.675781 2503.25 3017.007813 2546 3038.757813 C 2558 3045 2570 3051.550781 2582 3058.140625 C 2585.558594 3060.109375 2592.429688 3065 2596.550781 3062 C 2601.839844 3058.28125 2593.855469 3053.320313 2591 3051.78125 C 2578.652344 3045.125 2566.429688 3038.25 2554 3031.746094 C 2512 3009.78125 2470.425781 2987 2429 2964 C 2418.414063 2958 2407.640625 2952.460938 2397 2946.691406 C 2393.441406 2944.761719 2388.402344 2940.488281 2384 2942 M 602 2957.652344 C 589.378906 2961.210938 576.539063 2971.4375 565 2977.691406 C 537 2993 509 3008.171875 481 3023.234375 C 471.234375 3028.472656 460.179688 3033.125 451 3039.46875 C 448.214844 3041.492188 444.886719 3047.316406 450 3049 C 454.195313 3050.15625 458.6875 3046.691406 462 3045 C 471.273438 3039.730469 480.6875 3035 490 3029.769531 C 516 3015.628906 541.789063 3001.003906 568 2987.253906 C 579.851563 2981.039063 598 2974.800781 607.566406 2965.363281 C 612.222656 2960.722656 607.316406 2956.15625 602 2957.652344 M 1291 2979.175781 C 1287.820313 2980.671875 1285.574219 2986.125 1283.585938 2989 C 1276.636719 2999.042969 1270.292969 3010.109375 1264.757813 3021 C 1243.832031 3062.15625 1227.421875 3105 1210.8125 3148 C 1205.433594 3162 1200.664063 3176.089844 1195.203125 3190 C 1194.355469 3192.164063 1189.375 3204 1195.953125 3202.25 C 1199.824219 3201.234375 1201.664063 3195.164063 1203.246094 3192 C 1208.449219 3181.597656 1213.984375 3171.375 1219.242188 3161 C 1240.707031 3118.671875 1264.550781 3076.171875 1279.667969 3031 C 1284 3017.753906 1288.84375 3004.527344 1292.371094 2991 C 1292.859375 2989.128906 1297 2976.5 1291 2979.175781 M 1723.601563 2979.175781 C 1720.679688 2981 1723.757813 2987.640625 1724.371094 2990 C 1727.269531 3001.136719 1731 3012.085938 1734.667969 3023 C 1750.300781 3070 1773.757813 3114.140625 1796.257813 3158 C 1802.417969 3170.007813 1808.699219 3182 1814.753906 3194 C 1815.992188 3196.46875 1819.28125 3204.726563 1823.398438 3202 C 1826.617188 3199.714844 1823.214844 3193.546875 1822.199219 3191 C 1817.980469 3180.40625 1813.96875 3169.710938 1810 3159 C 1793 3112.757813 1775.332031 3067.058594 1753.246094 3023 C 1747.230469 3011 1740.378906 2999.015625 1732.722656 2988 C 1731.277344 2986 1727.175781 2977.039063 1723.601563 2979.175781 M 2308.324219 3044.03125 C 2302 3048.15625 2313.230469 3055 2316 3057 C 2329.894531 3067.113281 2343.972656 3077.089844 2358 3087.140625 C 2416.714844 3129.210938 2475.238281 3171.570313 2534 3213.578125 C 2550 3225.03125 2565.945313 3236.605469 2582 3248 C 2585.496094 3250.484375 2594.828125 3260 2599.390625 3255.382813 C 2604.871094 3250 2592.238281 3243.042969 2589 3240.625 C 2573.210938 3229 2556.925781 3217.746094 2541 3206.152344 C 2482.929688 3164 2424.421875 3122.191406 2366 3080.421875 L 2324 3050.289063 C 2320.257813 3047.609375 2313.417969 3040.640625 2308.324219 3044.03125 M 673 3069 C 666.898438 3071 661.179688 3077 656 3080.574219 C 643.625 3089.417969 631.367188 3098.433594 619 3107.289063 C 576.5 3137.726563 534.5 3169 492 3199.289063 C 477.289063 3209.824219 462.5625 3220.378906 448 3231.117188 C 445.421875 3233.019531 433.335938 3243 443 3244.378906 C 449 3245.300781 456.578125 3237.65625 461 3234.371094 C 474.894531 3224.050781 489 3214.050781 503 3204 C 547.882813 3171.109375 593.253906 3139.042969 638 3106.117188 C 650.402344 3097 664.496094 3088.820313 675.941406 3078.535156 C 680 3075 680.789063 3066.308594 673 3069 M 2229.449219 3144.03125 C 2223 3148.398438 2237 3159.128906 2240 3161.714844 C 2258 3177.621094 2275.804688 3194.195313 2293 3211 C 2364.640625 3281.019531 2438.722656 3349.621094 2513 3416.828125 C 2532.957031 3435 2552.308594 3453.566406 2572 3472 C 2575.796875 3475.449219 2587.78125 3490.054688 2593.667969 3485.351563 C 2600.261719 3480.085938 2583.253906 3468.246094 2580 3465 C 2560.644531 3445.683594 2539.5 3428.175781 2520 3409.003906 C 2448.550781 3338.746094 2373.933594 3270.675781 2299.714844 3203.335938 C 2282.636719 3188 2265.503906 3172.085938 2249 3156 C 2245.351563 3152.425781 2235.71875 3139.6875 2229.449219 3144.03125 M 766.996094 3159 C 758.222656 3162 748.648438 3174.5625 742 3181.015625 C 725.265625 3197.257813 707.859375 3213 691 3229 C 634.59375 3283 575.863281 3334.519531 520 3389.015625 C 499.746094 3408.773438 478.976563 3428.1875 458 3447.171875 C 455.707031 3449.242188 434.839844 3467.699219 448 3467.703125 C 456.382813 3467.707031 466.484375 3453.3125 472 3448.039063 C 491.429688 3429.460938 511.707031 3411.742188 531 3393.015625 C 591.753906 3334.042969 653.503906 3274.722656 717 3218.714844 C 733.773438 3204 749.457031 3188 766 3172.828125 C 769 3170.070313 778.804688 3154.804688 766.996094 3159 M 2135 3232 C 2131 3233 2131 3237.125 2132.730469 3240 C 2136.632813 3246.773438 2142.917969 3253 2147.921875 3259 C 2169.96875 3285.464844 2191.921875 3312.101563 2213.449219 3339 C 2302.304688 3450.023438 2393.234375 3559.742188 2484.246094 3669 C 2509.320313 3699.097656 2534.789063 3729.125 2558.882813 3760 C 2564.675781 3767.421875 2570.65625 3775 2576.921875 3782 C 2579 3784.402344 2582 3787.664063 2585.769531 3786.214844 C 2590 3784.492188 2587.890625 3779.714844 2586 3777 C 2580.855469 3769.214844 2574.21875 3762.109375 2568 3755 C 2542.40625 3725 2517.535156 3694 2492.800781 3663 C 2404 3552.304688 2312 3444.207031 2222.804688 3334 C 2201.40625 3307.59375 2180.257813 3280.796875 2158 3255 C 2153.894531 3250.0625 2142.484375 3230.335938 2135 3232 M 868 3248.746094 C 858.28125 3252.605469 848.308594 3271 841.800781 3279 C 821.398438 3304.5 800.664063 3329.785156 779.914063 3355 C 700.929688 3451 622.34375 3547.320313 544.195313 3644 C 519.308594 3674.789063 494.261719 3705.449219 469 3736 C 463 3743.273438 455.472656 3750.777344 450.859375 3759 C 449 3762.105469 448.902344 3768 454 3767.339844 C 457.914063 3767 460.648438 3762.703125 462.921875 3760 C 469 3752.738281 474.867188 3745.292969 480.917969 3738 C 505.890625 3708 530.410156 3677.4375 554.988281 3647.039063 C 633.972656 3549.359375 714.21875 3452.664063 793.195313 3355 C 814.84375 3328.230469 836.820313 3301.714844 858.539063 3275 C 863.496094 3269 870.671875 3262.234375 873.855469 3255 C 875.828125 3250.519531 872.914063 3247 868 3248.746094 M 2026.316406 3308.042969 C 2023 3310.125 2024.644531 3314.316406 2026 3317 C 2030.246094 3325 2035.75 3332.292969 2040.398438 3340 C 2059.820313 3372.195313 2079.808594 3404.085938 2099.683594 3436 C 2173.871094 3555.105469 2245.226563 3676.320313 2321.65625 3794 C 2339.550781 3821.546875 2356.636719 3850 2373.601563 3878 C 2376.46875 3882.753906 2386.425781 3905.03125 2393.683594 3900.777344 C 2396.921875 3899 2395.59375 3894.648438 2394.292969 3892 C 2390.347656 3884 2384.894531 3876.585938 2380.191406 3869 C 2360.363281 3837.019531 2340.332031 3805.160156 2320.796875 3773 C 2247.738281 3652.71875 2172.824219 3533.457031 2098.425781 3414 C 2081 3386.046875 2063.410156 3358.199219 2046.398438 3330 C 2043.542969 3325.265625 2033.703125 3303.359375 2026.316406 3308.042969 M 975 3322.03125 C 965.976563 3327 958.367188 3347.242188 952.9375 3356 C 934.949219 3385 916.578125 3413.765625 899 3443 C 836.574219 3546.816406 771.464844 3649.175781 707.425781 3752 C 687 3784.578125 666.453125 3817.011719 646.855469 3850 C 641.945313 3858.265625 635.25 3866.15625 631.421875 3875 C 629.882813 3878.554688 630.871094 3884 635.964844 3883 C 644.582031 3881.03125 653.171875 3859.03125 657.691406 3852 C 678.238281 3820.023438 697 3787 717.691406 3755 C 785.945313 3648.777344 849.996094 3539.8125 917.320313 3433 C 935 3404.808594 952.242188 3376.234375 969.949219 3348 C 973.851563 3341.78125 979.632813 3335 981.984375 3328 C 983.554688 3323.359375 979.679688 3319.585938 975 3322.03125 M 1900.316406 3362.042969 C 1897 3364.085938 1898.625 3368.222656 1899.734375 3371 C 1903.207031 3379.691406 1906.789063 3388.535156 1910.78125 3397 C 1927.265625 3432 1941 3468.105469 1957.746094 3503 C 1995.378906 3582.15625 2028.652344 3663.730469 2063.859375 3744 C 2085.886719 3794.21875 2111 3843.773438 2130.683594 3895 C 2142.394531 3925.65625 2156.84375 3956.273438 2170.78125 3986 C 2172.980469 3990.691406 2180.539063 4015.648438 2188.472656 4010 C 2194 4006 2181.964844 3985 2179.691406 3980 C 2165.753906 3949.554688 2151.839844 3919 2138.988281 3888 C 2084 3756.15625 2022.277344 3627.234375 1966 3496 C 1950.941406 3461 1935.597656 3425.742188 1919.691406 3391 C 1915.9375 3382.796875 1912.828125 3374.03125 1908.675781 3366.042969 C 1907 3363.089844 1903.910156 3359.765625 1900.316406 3362.042969 M 1103 3380.070313 C 1095 3384.058594 1090 3405.066406 1086.574219 3413 C 1073.359375 3443.378906 1059.769531 3473.589844 1046.574219 3504 C 995 3622.652344 942.472656 3741 889.859375 3859 C 874 3894.558594 858.324219 3930.234375 843 3966 C 839.207031 3975 833.941406 3983.726563 831.289063 3993 C 830.359375 3996.242188 831.523438 4001.078125 835.972656 4000.167969 C 839.539063 3999.4375 841.328125 3995 842.742188 3992 C 846.886719 3983.527344 850.429688 3974.667969 854 3966 C 869.386719 3930.53125 885.25 3895.304688 900.859375 3860 C 953.59375 3740.730469 1007 3621.75 1058.71875 3502 C 1071.980469 3471.265625 1086.644531 3441.019531 1099.199219 3410 C 1102.328125 3402.273438 1107.738281 3394.203125 1109.347656 3386.003906 C 1110 3382.164063 1107.398438 3378 1103 3380.070313 M 1773.527344 3409.03125 C 1770.546875 3411.164063 1771.964844 3416.128906 1772.746094 3419 C 1775.203125 3428.023438 1778 3437 1780.578125 3446 C 1791.3125 3483.660156 1802.882813 3521.136719 1812.882813 3559 C 1855.703125 3721.101563 1904.753906 3882 1951 4043 C 1963.613281 4087 1975.886719 4131.011719 1988.425781 4175 C 1991.460938 4185.640625 1994.214844 4196.46875 1997.59375 4207 C 1998.675781 4210.367188 2001.386719 4215.324219 2005.769531 4213 C 2009.875 4210.683594 2007.820313 4205.414063 2006.859375 4202 L 1998 4171 C 1985.71875 4127.359375 1971.941406 4084 1960.628906 4040 C 1946 3983.316406 1928.46875 3927.296875 1912.421875 3871 C 1882.492188 3766.007813 1852.828125 3661 1822.710938 3556 C 1811.625 3517.378906 1799.753906 3479 1789.628906 3440 C 1787.34375 3431.21875 1785.5 3421.339844 1781.867188 3413.019531 C 1780.550781 3410 1776.992188 3406.558594 1773.527344 3409.03125 M 1233.277344 3415.042969 C 1230 3417 1229.492188 3421.796875 1228.578125 3425 L 1220.578125 3453 C 1210.324219 3489 1200.804688 3525.289063 1189.660156 3561 C 1143.324219 3709.460938 1103.210938 3860.410156 1060.710938 4010 C 1048.585938 4052.671875 1035.746094 4095.191406 1024 4138 C 1021.351563 4148.332031 1017.707031 4158.554688 1015.390625 4169 C 1014.539063 4173 1014.9375 4179.640625 1020.871094 4177.378906 C 1024.648438 4176 1025.574219 4170.417969 1026.574219 4167 C 1029.492188 4157.03125 1031.972656 4147 1035 4137 C 1047.554688 4096.253906 1057.382813 4054.613281 1070.34375 4014 C 1118.300781 3863.742188 1154.792969 3709.800781 1200.976563 3559 C 1212.242188 3522.214844 1221.664063 3485 1232.71875 3448 C 1235.3125 3439.355469 1239 3430 1240.238281 3421.003906 C 1240.746094 3417 1237.789063 3412.371094 1233.277344 3415.042969 M 1368 3437 C 1363 3437.382813 1363 3444.308594 1362.414063 3448 C 1360.40625 3460 1358.648438 3472 1357 3484 C 1349.914063 3535.714844 1342 3587.300781 1334.871094 3639 C 1304.246094 3858.769531 1271.394531 4078.269531 1240.425781 4298 C 1232 4357.304688 1224.410156 4417 1214.753906 4476 C 1212.53125 4489.613281 1210.488281 4503.292969 1208.949219 4517 C 1208.511719 4521 1206.273438 4530.132813 1212.976563 4530.132813 C 1218.429688 4530.132813 1218.347656 4521.734375 1218.871094 4518 C 1220.824219 4504 1223.175781 4490.019531 1225 4476 C 1233.398438 4416.660156 1241.648438 4357.273438 1250.421875 4298 C 1282.914063 4078.46875 1313.621094 3858.65625 1345.269531 3639 C 1352.710938 3587.382813 1358.839844 3535.460938 1367.246094 3484 C 1369.246094 3471.765625 1371.65625 3459.339844 1372.828125 3447 C 1373.183594 3443.296875 1373.636719 3436.394531 1368 3437 M 1644 3445 C 1639.257813 3446.445313 1641.210938 3454.351563 1641.730469 3458 C 1643.675781 3471.667969 1645.460938 3485.363281 1647.574219 3499 C 1656.652344 3557.519531 1662.695313 3616.554688 1672.246094 3675 C 1684.605469 3750.65625 1694.289063 3827 1704.28125 3903 C 1722.535156 4042 1743.804688 4180.304688 1763 4319 C 1770 4369.335938 1776.863281 4419.71875 1784.273438 4470 L 1789.578125 4506 C 1790 4509.734375 1791 4516.667969 1796.773438 4514.378906 C 1801.457031 4512.480469 1799.507813 4505.699219 1799 4502 C 1797.402344 4490.34375 1795.570313 4478.675781 1794 4467 C 1788 4417.371094 1777 4367.832031 1773 4318 C 1767.257813 4245.527344 1751.992188 4173.066406 1742.28125 4101 C 1722.914063 3957.238281 1701.890625 3813.683594 1681.871094 3670 C 1673.785156 3612 1665.8125 3554 1657.421875 3496 C 1655.445313 3482.347656 1653.871094 3468.597656 1651.585938 3455 C 1650.953125 3451.242188 1650 3443 1644 3445 M 1498 3455.429688 C 1490.601563 3456.492188 1483.335938 3458.648438 1477 3462.699219 C 1449.351563 3480.375 1446.488281 3519.039063 1473 3539.472656 C 1484.433594 3548.28125 1499.941406 3550.710938 1514 3548.699219 C 1520.390625 3547.785156 1526.449219 3545.363281 1532 3542.121094 C 1578 3515.191406 1547.1875 3448.367188 1498 3455.429688 M 1593 3769 C 1572 3769 1552.523438 3766 1535 3753.5625 C 1497.558594 3727.144531 1492.988281 3676.039063 1524.171875 3643.039063 C 1537 3629.316406 1556.359375 3621 1575 3619.171875 C 1582.257813 3618.476563 1589.910156 3620.199219 1597 3619 C 1582.8125 3601.574219 1555.898438 3596.351563 1535 3593.574219 C 1516.628906 3591.132813 1496.792969 3595.4375 1480 3603 C 1464.75 3609.605469 1451.238281 3620 1440.808594 3633 C 1408 3674 1415.800781 3733.148438 1455 3766.699219 C 1471.671875 3781 1492.457031 3788.578125 1514 3791.15625 C 1538.1875 3794.050781 1576.367188 3789.125 1593 3769 M 1440 3915 C 1496.691406 3908 1544.550781 3974.832031 1501.90625 4021 C 1495.6875 4027.734375 1488.261719 4033.246094 1480 4037.214844 C 1469.714844 4042.15625 1458.328125 4044 1447 4044 C 1450.355469 4050 1458.863281 4052 1465 4054 C 1483.871094 4060.234375 1506.265625 4060 1525 4053.308594 C 1535.773438 4049.472656 1545.425781 4044 1553.960938 4036.269531 C 1600 3995.035156 1582.34375 3924 1527 3901.800781 C 1506.300781 3893.519531 1481.777344 3894 1461 3901.683594 C 1453.949219 3904.34375 1443.753906 3908.140625 1440 3915 M 390.601563 3947.601563 C 393.855469 3945.714844 399.492188 3947.808594 403 3948 C 414 3948.445313 425 3949.363281 436 3950.714844 C 478.46875 3956 520 3964.265625 561 3977 C 744.421875 4034 896.84375 4169.109375 976.304688 4344 C 1002.683594 4402.058594 1020.746094 4463.121094 1031.246094 4526 C 1033.734375 4541 1035.992188 4556 1037 4571 C 1037.214844 4573.769531 1040 4582.648438 1037.355469 4584.398438 C 1035 4585.832031 1030.578125 4585 1028 4585 C 1025 4585 1020 4586 1017.601563 4584 C 1015 4582 1015.171875 4575.03125 1015 4572 C 1014.585938 4561.636719 1013.796875 4551.296875 1012.425781 4541 C 1004 4478.210938 989.351563 4418.410156 964.425781 4360 C 886.742188 4178 723 4042.492188 534 3988.578125 C 494.382813 3977.285156 453.96875 3969.21875 413 3965 C 407.648438 3964.261719 394.789063 3965.289063 390.601563 3962 C 388 3960.023438 387.695313 3949.296875 390.601563 3947.601563 M 2621 3947.285156 C 2627.941406 3946.511719 2632 3957 2625.683594 3960 C 2620.660156 3962.171875 2613.425781 3961.609375 2608 3962.285156 C 2596.976563 3963.65625 2585.921875 3965.566406 2575 3967.609375 C 2538.597656 3974.421875 2502.179688 3982.800781 2467 3994.515625 C 2320 4043.449219 2184.382813 4136.078125 2101.425781 4269 C 2055.878906 4342 2025.96875 4422.007813 2012.589844 4507 C 2009.460938 4527 2007 4548 2007 4568 C 2006.996094 4573.773438 2008.539063 4586.640625 2000.980469 4587 C 1996.550781 4587.179688 1982 4589.238281 1978.8125 4586 C 1976.40625 4583.527344 1980 4568.601563 1980.574219 4565 C 1983.265625 4544.578125 1985.894531 4524.261719 1989.804688 4504 C 2006 4419.507813 2037.394531 4336.71875 2083.695313 4264 C 2164.183594 4137.59375 2284.171875 4037.171875 2426 3986.691406 C 2490 3964 2554 3954.78125 2621 3947.285156 M 2628 4245 L 2627 4245 C 2600.917969 4200.3125 2580.269531 4152.371094 2555.414063 4107 C 2549.394531 4096.015625 2545 4082.164063 2538 4072.054688 C 2535.636719 4068.484375 2531.304688 4066.335938 2527 4068 C 2518.699219 4071 2520.785156 4079.328125 2521.917969 4086 C 2524.824219 4103.078125 2528.800781 4120.011719 2532.199219 4137 C 2541.195313 4182 2549.703125 4227.078125 2559 4272 C 2564.554688 4298.816406 2572.839844 4326.675781 2575 4354 C 2552 4339 2531.390625 4319.070313 2510 4301.804688 C 2464.5625 4265.128906 2419.3125 4228.222656 2374 4191.390625 C 2358.363281 4178.679688 2342.84375 4165.796875 2327 4153.339844 C 2320.988281 4148.609375 2312.984375 4142.046875 2306.433594 4150.109375 C 2301.480469 4156.207031 2307.167969 4163.722656 2310.667969 4169 C 2320.972656 4184.539063 2330.738281 4200.433594 2341 4216 C 2368.339844 4257.464844 2394.84375 4299.476563 2422 4341 C 2436.925781 4363.636719 2455.535156 4386.472656 2467 4411 C 2443 4401.726563 2420.304688 4389.007813 2397 4378.308594 C 2344.84375 4354.359375 2292.6875 4330.199219 2241 4305.257813 C 2223.222656 4296.679688 2205.238281 4287.542969 2187 4280.011719 C 2180 4277.164063 2171 4277.050781 2168.324219 4286 C 2166.21875 4292.554688 2175 4298.078125 2179 4302.003906 C 2192.9375 4315.757813 2207.671875 4328.742188 2222 4342.089844 C 2260 4377.585938 2297.894531 4413.414063 2336 4449 C 2355.878906 4467.425781 2382.34375 4485.773438 2398 4508 C 2326.71875 4488 2252.253906 4476 2180 4459.648438 C 2163.367188 4456 2146.667969 4452.386719 2130 4448.789063 C 2123.226563 4447.328125 2114.785156 4444.617188 2110.441406 4452.105469 C 2106.746094 4458.472656 2109.480469 4464.1875 2115 4468.210938 C 2127.226563 4477.117188 2142.617188 4483.714844 2156 4490.78125 C 2199 4513.515625 2241.1875 4538.101563 2284 4561.308594 C 2298.863281 4569.367188 2313.488281 4579.316406 2329 4586 C 2322.804688 4588.597656 2313.6875 4587 2307 4587 L 2044 4587 C 2040.410156 4587 2028.742188 4589 2027.316406 4584.683594 C 2023.195313 4572.355469 2027.558594 4551.742188 2028.832031 4539 C 2032.914063 4498.148438 2040.582031 4457.074219 2053.328125 4418 C 2108.328125 4249.429688 2234.304688 4112.554688 2397 4041.574219 C 2453.265625 4017.027344 2510.78125 3999.167969 2571 3987.199219 C 2584.902344 3984.4375 2598.976563 3982.609375 2613 3980.578125 C 2616 3980.140625 2625.496094 3977.378906 2627.394531 3980.605469 C 2630 3985.125 2628 3995.824219 2628 4001 L 2628 4245 M 694 4584 L 694 4583 C 748.324219 4551 804.527344 4521.316406 860 4491.308594 C 872.984375 4484.285156 886.257813 4477.570313 899 4470.121094 C 904.714844 4466.785156 909.742188 4462.152344 907.925781 4455.003906 C 905.894531 4447.007813 897.800781 4446.402344 891 4448 L 839 4459.210938 C 796.597656 4468.363281 754.359375 4478.21875 712 4487.574219 C 681 4494.386719 649.394531 4499.453125 619 4508 C 634.273438 4486.316406 660.339844 4467.617188 680 4449.828125 C 718.566406 4415 756.398438 4379 794 4343.039063 C 808 4329.511719 823 4316.757813 837 4303.003906 C 841.277344 4298.785156 850.539063 4293.183594 848.664063 4286.003906 C 846.347656 4277.140625 836.671875 4277.257813 830 4280.011719 C 811.761719 4287.542969 793.777344 4296.679688 776 4305.257813 C 724.308594 4330.203125 672 4354.359375 620 4378.308594 C 596.695313 4389.007813 573.910156 4401.722656 550 4411 C 561.304688 4386.8125 579.839844 4364.464844 594.308594 4342 C 621.402344 4300 648.25 4257.644531 676 4216 C 686 4200.796875 695.582031 4185.136719 705.804688 4170 C 709.496094 4164.535156 715.605469 4156.4375 710.566406 4150.058594 C 704 4142 695.996094 4148.710938 690 4153.347656 C 674 4165.667969 658.621094 4178.691406 643 4191.390625 C 597.6875 4228.222656 552.441406 4265.128906 507 4301.804688 C 485.605469 4319.070313 464.9375 4338.828125 442 4354 C 443.9375 4329.671875 451.339844 4305 456.199219 4281 C 465.605469 4234.710938 474.859375 4188.371094 483.804688 4142 C 487 4124.628906 491 4107.390625 494.390625 4090 C 495.574219 4083.671875 498.632813 4075.574219 493.605469 4070.226563 C 489.527344 4066 483.269531 4067 479.570313 4071.214844 C 472.449219 4079.566406 467.769531 4095 462.753906 4105 C 439.273438 4152 410.175781 4197.539063 390 4246 C 387.707031 4240.539063 389 4233 389 4227 L 389 3998 C 389 3994.695313 387.296875 3984.535156 390.601563 3982.601563 C 394.277344 3980.457031 401 3982.4375 405 3982.832031 C 418 3984.132813 431 3985.511719 444 3987.589844 C 495.714844 3996 547.484375 4009.050781 596 4029.011719 C 711.289063 4076.4375 811.582031 4153.179688 884 4255 C 906.578125 4286.578125 924 4320.433594 941.246094 4355 C 967.683594 4408.046875 984.347656 4470.210938 990.949219 4529 C 992.480469 4542.613281 994.613281 4556.300781 995 4570 C 995 4573.605469 997.769531 4581.300781 994.398438 4584 C 989.917969 4587.519531 979.222656 4584.066406 974 4584.003906 C 955 4583.777344 935.996094 4584 917 4584 L 694 4584 M 1434 4175 C 1440.289063 4187.632813 1451.316406 4198.5625 1459.574219 4210 C 1461.480469 4212.640625 1468.675781 4220 1466.886719 4223.4375 C 1465.476563 4226.214844 1458.703125 4226.730469 1456 4227.347656 C 1445 4230 1434 4231.683594 1423 4233.804688 C 1420.921875 4234.203125 1409.207031 4235.210938 1409.207031 4238 C 1409.207031 4240.6875 1421.789063 4241.769531 1424 4242.195313 C 1435.691406 4244.453125 1447.355469 4246.71875 1459 4249.210938 C 1462 4250 1469.277344 4250.574219 1470.976563 4253.5625 C 1472.667969 4256.527344 1468 4262.503906 1466.574219 4265 C 1460.519531 4275.554688 1453.894531 4285.777344 1447.308594 4296 C 1445.84375 4298.273438 1439 4305.441406 1440.457031 4308.261719 C 1441.84375 4311.179688 1451.558594 4303.167969 1453 4302.140625 C 1462.386719 4295.460938 1472.242188 4289.4375 1482 4283.320313 C 1484.679688 4281.636719 1490.195313 4277 1493.582031 4277.726563 C 1496.773438 4278.472656 1497.582031 4285.402344 1498.265625 4288 C 1501 4298.554688 1503.457031 4309.296875 1505.601563 4320 C 1506 4322.277344 1506.542969 4331.386719 1509.285156 4332.078125 C 1512.175781 4332.804688 1513.453125 4321 1513.882813 4319 C 1516.414063 4308 1518.8125 4297 1521.628906 4286 C 1522.285156 4283.453125 1523 4276.714844 1525.878906 4275.636719 C 1529.65625 4274.214844 1538.675781 4281 1542 4282.636719 C 1555 4289.464844 1569.75 4301.730469 1584 4305 C 1579.460938 4291.3125 1565.191406 4279 1556.976563 4267 C 1554.996094 4264.148438 1548 4257.308594 1549.445313 4253.511719 C 1550.597656 4250.261719 1558 4249.59375 1561 4249.003906 C 1572.648438 4246.585938 1584.335938 4244.332031 1596 4242 C 1598 4241.574219 1609.792969 4240.65625 1609.792969 4238 C 1609.792969 4235.171875 1597.167969 4234.019531 1595 4233.609375 C 1583.628906 4231.480469 1572.308594 4229.234375 1561 4226.789063 C 1557.832031 4226.105469 1550.796875 4225.605469 1548.996094 4222.488281 C 1546.878906 4218.820313 1553.578125 4211.03125 1555.398438 4208 C 1562.804688 4195.667969 1573.914063 4183.417969 1579 4170 C 1566.359375 4172 1551.832031 4186.257813 1541 4193.050781 C 1537.800781 4195.054688 1530.277344 4202 1526.304688 4200.554688 C 1523 4199.503906 1522.34375 4192.777344 1521.628906 4190 C 1518.816406 4179.066406 1516.363281 4168.039063 1514 4157 C 1513.601563 4155.136719 1512 4143.210938 1509.285156 4144 C 1506.367188 4144.65625 1505.695313 4155.488281 1505 4158 C 1502.585938 4169.019531 1500.191406 4180.042969 1497.371094 4191 C 1496.535156 4194.242188 1495.65625 4201.160156 1492.488281 4203.007813 C 1488.816406 4205.148438 1480.269531 4199 1477 4197.222656 C 1464 4190.523438 1448.4375 4177 1434 4175 M 1508.316406 4360.746094 C 1502.945313 4363.375 1506 4385.542969 1506 4391 L 1506 4486 C 1506 4494.613281 1505.496094 4503.398438 1506 4512 C 1506.246094 4515.195313 1507.746094 4519.535156 1511.90625 4518.289063 C 1515.835938 4517.109375 1515.949219 4512.335938 1515.996094 4509 C 1516 4500.335938 1516 4491.664063 1516 4483 L 1516 4388 C 1516 4383.039063 1519 4355.5 1508.316406 4360.746094 M 2619 4482.425781 C 2601.671875 4484.785156 2585.84375 4490 2571 4499.226563 C 2560.351563 4506 2551 4514.78125 2543.746094 4525 C 2537 4534.144531 2532.328125 4544.171875 2529.292969 4555 C 2509.410156 4626 2575.800781 4687.210938 2645 4678.714844 C 2660 4677 2674.769531 4671.695313 2688 4664.128906 C 2698.722656 4658 2707.988281 4649.539063 2715.738281 4640 C 2722.742188 4631.378906 2728.316406 4621.527344 2731.921875 4611 C 2755.984375 4540.765625 2689.484375 4472.832031 2619 4482.425781 M 371 4483.429688 C 355 4485.714844 339.78125 4490.515625 326 4499.0625 C 272.71875 4532.121094 263.5625 4605.5 308 4650 C 332.90625 4674.816406 369.902344 4684 404 4678.726563 C 417.804688 4676.59375 430.988281 4671.125 443 4664.125 C 453.332031 4658.105469 462.640625 4649.371094 469.984375 4640 C 476.902344 4631.175781 482.6875 4620.78125 485.855469 4610 C 506.648438 4539.226563 442.480469 4473.191406 371 4483.429688 M 2393 4586 L 2392 4587 L 2393 4586 M 1498 4621.429688 C 1485.535156 4623.214844 1473.628906 4626.589844 1463 4633.546875 C 1426.890625 4657.175781 1420 4709.046875 1451 4740 C 1469.429688 4758.375 1495.8125 4764.625 1521 4760.726563 C 1530.898438 4759.191406 1540.519531 4755.367188 1549 4750.085938 C 1557 4745.0625 1563.585938 4738.800781 1568.972656 4731 C 1604 4680.273438 1558 4612.816406 1498 4621.429688 M 1272 4665 C 1286.421875 4656.019531 1299.355469 4648.648438 1317 4653 C 1363.335938 4664.0625 1363.347656 4728 1316 4737.550781 C 1299.441406 4741 1290 4732.445313 1275 4729 C 1283 4746 1303.214844 4757.023438 1321 4760.601563 C 1368.4375 4770.144531 1422 4733.742188 1411.335938 4681 C 1402.53125 4638 1357.664063 4616.210938 1317 4626.628906 C 1299.839844 4631.027344 1274.554688 4645.5 1272 4665 M 1737 4728 C 1727.324219 4733.363281 1717.480469 4738.820313 1706 4738.820313 C 1699.683594 4738.820313 1692.726563 4737 1687 4734.335938 C 1640.597656 4713.625 1661.972656 4645.566406 1711 4652 C 1722.9375 4653.410156 1730.875 4659.230469 1741 4665 C 1737.304688 4644.527344 1711.351563 4630.238281 1693 4626 C 1649.726563 4615.613281 1600 4645.632813 1600 4693 C 1600 4737.296875 1641.796875 4765.625 1683 4762 C 1701.285156 4760.390625 1732.871094 4748.535156 1737 4728 M 1123 4665 C 1131.808594 4659 1139.285156 4653 1150 4650.667969 C 1191.4375 4641.679688 1224.773438 4690.535156 1193.910156 4723 C 1189.210938 4728 1183.324219 4732 1177 4734.546875 C 1169.394531 4737.644531 1161 4738.507813 1153 4738 C 1141.171875 4737.042969 1132.457031 4730.25 1123 4724 C 1126.601563 4744 1152.261719 4756.644531 1170 4760.648438 C 1212.273438 4770.199219 1259.992188 4741.238281 1259.992188 4695 C 1259.992188 4650 1214.265625 4619.441406 1172 4628.003906 C 1153.847656 4631.683594 1126.671875 4644.660156 1123 4665 M 1891 4724 C 1879 4729.292969 1870.988281 4737.828125 1857 4738 C 1835.90625 4738.246094 1814 4726.351563 1807.785156 4705 C 1799.433594 4676.765625 1825.203125 4648 1854 4649.375 C 1868.4375 4650.113281 1878.429688 4657.355469 1890 4665 C 1884.386719 4645.550781 1861.730469 4632.429688 1843 4628.601563 C 1801 4620.015625 1757.488281 4645.375 1753.171875 4690 C 1746 4764.007813 1862 4791.074219 1891 4724 "/>
</g>
</svg>
