<svg width="26" height="31" viewBox="0 0 26 31" fill="none" xmlns="http://www.w3.org/2000/svg">
<path fill-rule="evenodd" clip-rule="evenodd" d="M2.07971 28.8582L3.82136 20.5042L4.43255 20.6232L2.6909 28.9772L2.07971 28.8582Z" fill="#3F3F3F"/>
<path fill-rule="evenodd" clip-rule="evenodd" d="M5.73884 28.9772L3.99719 20.6232L4.60838 20.5042L6.35003 28.8582L5.73884 28.9772Z" fill="#3F3F3F"/>
<path fill-rule="evenodd" clip-rule="evenodd" d="M10.1468 20.459L8.40515 12.105L9.01634 11.986L10.758 20.34L10.1468 20.459Z" fill="#3F3F3F"/>
<path fill-rule="evenodd" clip-rule="evenodd" d="M23.3708 20.459L21.6292 12.105L22.2403 11.986L23.982 20.34L23.3708 20.459Z" fill="#3F3F3F"/>
<path fill-rule="evenodd" clip-rule="evenodd" d="M19.7117 20.34L21.4533 11.986L22.0645 12.105L20.3229 20.459L19.7117 20.34Z" fill="#3F3F3F"/>
<path d="M9.15479 19.3783V21.4818H11.776V19.3783H9.15479Z" fill="#3F3F3F"/>
<path fill-rule="evenodd" clip-rule="evenodd" d="M8.86572 21.7611V19.0989H12.0651V21.7611H8.86572ZM9.4439 21.2025H11.4869V19.6576H9.4439V21.2025Z" fill="#3F3F3F"/>
<path d="M22.3788 19.3783V21.4818H25V19.3783H22.3788Z" fill="#3F3F3F"/>
<path fill-rule="evenodd" clip-rule="evenodd" d="M22.0897 21.7611V19.0989H25.2891V21.7611H22.0897ZM22.6679 21.2025H24.7109V19.6576H22.6679V21.2025Z" fill="#3F3F3F"/>
<path d="M18.6321 19.3783V21.4818H21.2533V19.3783H18.6321Z" fill="#3F3F3F"/>
<path fill-rule="evenodd" clip-rule="evenodd" d="M18.3429 21.7611V19.0989H21.5423V21.7611H18.3429ZM18.9211 21.2025H20.9641V19.6576H18.9211V21.2025Z" fill="#3F3F3F"/>
<path d="M4.74683 27.8965V30H7.36801V27.8965H4.74683Z" fill="#3F3F3F"/>
<path fill-rule="evenodd" clip-rule="evenodd" d="M4.45776 30.2793V27.6171H7.65712V30.2793H4.45776ZM5.03594 29.7207H7.07895V28.1758H5.03594V29.7207Z" fill="#3F3F3F"/>
<path d="M1 27.8965V30H3.62119V27.8965H1Z" fill="#3F3F3F"/>
<path fill-rule="evenodd" clip-rule="evenodd" d="M0.710938 30.2793V27.6171H3.9103V30.2793H0.710938ZM1.28911 29.7207H3.33212V28.1758H1.28911V29.7207Z" fill="#3F3F3F"/>
<path d="M8.50903 12.0587L4.15491 20.5931L8.50903 12.0587Z" fill="#3F3F3F"/>
<path fill-rule="evenodd" clip-rule="evenodd" d="M3.87524 20.4599L8.22937 11.9256L8.78858 12.1919L4.43445 20.7262L3.87524 20.4599Z" fill="#3F3F3F"/>
<path d="M17.3789 3.54053L21.733 12.0748L17.3789 3.54053Z" fill="#3F3F3F"/>
<path fill-rule="evenodd" clip-rule="evenodd" d="M21.4534 12.208L17.0992 3.6737L17.6584 3.40735L22.0126 11.9417L21.4534 12.208Z" fill="#3F3F3F"/>
<path d="M17.4044 3.60606L8.63391 12.0202L17.4044 3.60606Z" fill="#3F3F3F"/>
<path fill-rule="evenodd" clip-rule="evenodd" d="M8.41418 11.8064L17.1846 3.39232L17.6239 3.81979L8.85347 12.2339L8.41418 11.8064Z" fill="#3F3F3F"/>
<path d="M17.3789 3.54053L21.733 12.0748L17.3789 3.54053Z" fill="#3F3F3F"/>
<path fill-rule="evenodd" clip-rule="evenodd" d="M21.4534 12.208L17.0992 3.6737L17.6584 3.40735L22.0126 11.9417L21.4534 12.208Z" fill="#3F3F3F"/>
<path d="M17.4044 3.60606L8.63391 12.0202L17.4044 3.60606Z" fill="#3F3F3F"/>
<path fill-rule="evenodd" clip-rule="evenodd" d="M8.41418 11.8064L17.1846 3.39232L17.6239 3.81979L8.85347 12.2339L8.41418 11.8064Z" fill="#3F3F3F"/>
<path d="M20.6151 14.2706C19.5219 13.7339 18.9572 12.3559 19.3542 11.1937C19.5916 10.4986 20.6013 9.68929 21.3701 9.57789C22.9295 9.35195 24.4112 10.5476 24.4207 12.0396C24.4248 12.675 23.917 13.5882 23.2927 14.0681C22.589 14.6089 21.4759 14.6931 20.6151 14.2706Z" fill="#3F3F3F"/>
<path fill-rule="evenodd" clip-rule="evenodd" d="M24.2916 12.0404C24.2826 10.6274 22.874 9.48606 21.3892 9.7012C21.0366 9.75229 20.6134 9.96779 20.2452 10.2629C19.8767 10.5582 19.5848 10.9161 19.4766 11.2328C19.0986 12.3395 19.6399 13.6521 20.6735 14.1594C21.4935 14.5619 22.5517 14.4782 23.2123 13.9705C23.5081 13.7431 23.7807 13.4091 23.9786 13.0532C24.1774 12.6958 24.2935 12.3297 24.2916 12.0404ZM21.3509 9.45461C22.9848 9.21787 24.5396 10.4679 24.5497 12.0389C24.5519 12.385 24.4162 12.7932 24.206 13.1712C23.9949 13.5507 23.7014 13.9132 23.3729 14.1656C22.6262 14.7396 21.4582 14.8243 20.5566 14.3817C19.4038 13.8158 18.8156 12.3724 19.2316 11.1546C19.3608 10.7762 19.6925 10.3819 20.0804 10.071C20.4687 9.75977 20.9347 9.51492 21.3509 9.45461L21.37 9.57791L21.3509 9.45461Z" fill="#0000FF"/>
<path d="M7.39114 14.2706C6.29791 13.7339 5.73319 12.3559 6.13018 11.1937C6.3676 10.4986 7.37733 9.68929 8.14611 9.57789C9.70546 9.35195 11.1872 10.5476 11.1967 12.0396C11.2008 12.675 10.693 13.5882 10.0687 14.0681C9.36502 14.6089 8.25192 14.6931 7.39114 14.2706Z" fill="#3F3F3F"/>
<path fill-rule="evenodd" clip-rule="evenodd" d="M11.0676 12.0404C11.0586 10.6274 9.64998 9.48606 8.16518 9.7012C7.8126 9.75229 7.38936 9.96779 7.0212 10.2629C6.65273 10.5582 6.36081 10.9161 6.25265 11.2328C5.87464 12.3395 6.41593 13.6521 7.44951 14.1594C8.26952 14.5619 9.32774 14.4782 9.98828 13.9705C10.2841 13.7431 10.5567 13.4091 10.7546 13.0532C10.9534 12.6958 11.0695 12.3297 11.0676 12.0404ZM8.12691 9.45461C9.7608 9.21787 11.3156 10.4679 11.3257 12.0389C11.3279 12.385 11.1922 12.7932 10.982 13.1712C10.7709 13.5507 10.4774 13.9132 10.1489 14.1656C9.40217 14.7396 8.23419 14.8243 7.33263 14.3817C6.17976 13.8158 5.59161 12.3724 6.00758 11.1546C6.13684 10.7762 6.4685 10.3819 6.85644 10.071C7.24469 9.75977 7.71071 9.51492 8.12691 9.45461Z" fill="#0000FF"/>
<path d="M2.98306 22.7888C1.88983 22.2521 1.32511 20.8742 1.7221 19.7119C1.95952 19.0168 2.96925 18.2075 3.73803 18.0961C5.29737 17.8702 6.77907 19.0658 6.78866 20.5578C6.79274 21.1933 6.28491 22.1064 5.6606 22.5863C4.95694 23.1271 3.84384 23.2113 2.98306 22.7888Z" fill="#BF3C12"/>
<path fill-rule="evenodd" clip-rule="evenodd" d="M6.65968 20.5586C6.6506 19.1456 5.24202 18.0043 3.75722 18.2194C3.40464 18.2705 2.9814 18.486 2.61324 18.7811C2.24477 19.0764 1.95285 19.4343 1.84469 19.751C1.46668 20.8577 2.00797 22.1703 3.04155 22.6776C3.86156 23.0801 4.91978 22.9964 5.58032 22.4887C5.87618 22.2613 6.14874 21.9273 6.34667 21.5714C6.54542 21.214 6.66154 20.8479 6.65968 20.5586ZM3.71895 17.9728C5.35284 17.7361 6.90765 18.9861 6.91774 20.5571C6.91997 20.9032 6.78422 21.3114 6.574 21.6894C6.36295 22.0689 6.06944 22.4314 5.74098 22.6839C4.99421 23.2578 3.82624 23.3425 2.92467 22.8999C1.7718 22.334 1.18365 20.8907 1.59963 19.6728C1.72888 19.2944 2.06054 18.9001 2.44848 18.5892C2.83673 18.278 3.30275 18.0331 3.71895 17.9728Z" fill="#0000FF"/>
<path d="M16.2071 5.75233C15.1138 5.21571 14.5491 3.83772 14.9461 2.67545C15.1835 1.98037 16.1932 1.17107 16.962 1.05968C18.5214 0.833736 20.0031 2.0294 20.0127 3.5214C20.0167 4.15683 19.5089 5.06999 18.8846 5.54985C18.1809 6.09069 17.0678 6.17487 16.2071 5.75233Z" fill="#3F3F3F"/>
<path fill-rule="evenodd" clip-rule="evenodd" d="M19.8837 3.52217C19.8746 2.10912 18.466 0.967831 16.9812 1.18297C16.6286 1.23406 16.2054 1.44955 15.8372 1.74463C15.4688 2.03997 15.1769 2.39786 15.0687 2.71452C14.6907 3.82122 15.232 5.13382 16.2656 5.64118C17.0856 6.04369 18.1438 5.95998 18.8043 5.45227C19.1002 5.22488 19.3727 4.89086 19.5707 4.53495C19.7694 4.17756 19.8855 3.81148 19.8837 3.52217ZM16.943 0.936376C18.5768 0.699635 20.1317 1.94968 20.1417 3.52063C20.144 3.86675 20.0082 4.27496 19.798 4.65297C19.587 5.03246 19.2934 5.39495 18.965 5.64741C18.2182 6.22139 17.0502 6.30604 16.1487 5.86348C14.9958 5.29758 14.4077 3.85421 14.8236 2.63638C14.9529 2.25795 15.2845 1.86366 15.6725 1.55272C16.0607 1.24153 16.5268 0.996681 16.943 0.936376Z" fill="#0000FF"/>
<path fill-rule="evenodd" clip-rule="evenodd" d="M4.16763 18.3462C2.89685 18.3462 1.86668 19.3415 1.86668 20.5694C1.86668 21.7972 2.89685 22.7926 4.16763 22.7926C5.43841 22.7926 6.46857 21.7972 6.46857 20.5694C6.46857 19.3415 5.43841 18.3462 4.16763 18.3462ZM1.22559 20.5694C1.22559 18.9994 2.54278 17.7267 4.16763 17.7267C5.79247 17.7267 7.10967 18.9994 7.10967 20.5694C7.10967 22.1393 5.79247 23.4121 4.16763 23.4121C2.54278 23.4121 1.22559 22.1393 1.22559 20.5694Z" fill="#BF3C12"/>
<path fill-rule="evenodd" clip-rule="evenodd" d="M21.7996 9.82794C20.5288 9.82794 19.4986 10.8233 19.4986 12.0512C19.4986 13.279 20.5288 14.2744 21.7996 14.2744C23.0704 14.2744 24.1005 13.279 24.1005 12.0512C24.1005 10.8233 23.0704 9.82794 21.7996 9.82794ZM18.8575 12.0512C18.8575 10.4812 20.1747 9.2085 21.7996 9.2085C23.4244 9.2085 24.7416 10.4812 24.7416 12.0512C24.7416 13.6211 23.4244 14.8938 21.7996 14.8938C20.1747 14.8938 18.8575 13.6211 18.8575 12.0512Z" fill="#3F3F3F"/>
<path fill-rule="evenodd" clip-rule="evenodd" d="M8.57559 9.82794C7.30481 9.82794 6.27464 10.8233 6.27464 12.0512C6.27464 13.279 7.30481 14.2744 8.57559 14.2744C9.84636 14.2744 10.8765 13.279 10.8765 12.0512C10.8765 10.8233 9.84636 9.82794 8.57559 9.82794ZM5.63354 12.0512C5.63354 10.4812 6.95074 9.2085 8.57559 9.2085C10.2004 9.2085 11.5176 10.4812 11.5176 12.0512C11.5176 13.6211 10.2004 14.8938 8.57559 14.8938C6.95074 14.8938 5.63354 13.6211 5.63354 12.0512Z" fill="#3F3F3F"/>
<path fill-rule="evenodd" clip-rule="evenodd" d="M17.3916 1.30972C16.1208 1.30972 15.0907 2.30509 15.0907 3.53294C15.0907 4.7608 16.1208 5.75617 17.3916 5.75617C18.6624 5.75617 19.6926 4.7608 19.6926 3.53294C19.6926 2.30509 18.6624 1.30972 17.3916 1.30972ZM14.4496 3.53294C14.4496 1.96298 15.7668 0.690277 17.3916 0.690277C19.0165 0.690277 20.3337 1.96298 20.3337 3.53294C20.3337 5.1029 19.0165 6.37561 17.3916 6.37561C15.7668 6.37561 14.4496 5.1029 14.4496 3.53294Z" fill="#3F3F3F"/>
<path fill-rule="evenodd" clip-rule="evenodd" d="M21.7996 9.82794C20.5288 9.82794 19.4986 10.8233 19.4986 12.0512C19.4986 13.279 20.5288 14.2744 21.7996 14.2744C23.0704 14.2744 24.1005 13.279 24.1005 12.0512C24.1005 10.8233 23.0704 9.82794 21.7996 9.82794ZM18.8575 12.0512C18.8575 10.4812 20.1747 9.2085 21.7996 9.2085C23.4244 9.2085 24.7416 10.4812 24.7416 12.0512C24.7416 13.6211 23.4244 14.8938 21.7996 14.8938C20.1747 14.8938 18.8575 13.6211 18.8575 12.0512Z" fill="#3F3F3F"/>
<path fill-rule="evenodd" clip-rule="evenodd" d="M8.57559 9.82794C7.30481 9.82794 6.27464 10.8233 6.27464 12.0512C6.27464 13.279 7.30481 14.2744 8.57559 14.2744C9.84636 14.2744 10.8765 13.279 10.8765 12.0512C10.8765 10.8233 9.84636 9.82794 8.57559 9.82794ZM5.63354 12.0512C5.63354 10.4812 6.95074 9.2085 8.57559 9.2085C10.2004 9.2085 11.5176 10.4812 11.5176 12.0512C11.5176 13.6211 10.2004 14.8938 8.57559 14.8938C6.95074 14.8938 5.63354 13.6211 5.63354 12.0512Z" fill="#3F3F3F"/>
<path fill-rule="evenodd" clip-rule="evenodd" d="M17.3916 1.30972C16.1208 1.30972 15.0907 2.30509 15.0907 3.53294C15.0907 4.7608 16.1208 5.75617 17.3916 5.75617C18.6624 5.75617 19.6926 4.7608 19.6926 3.53294C19.6926 2.30509 18.6624 1.30972 17.3916 1.30972ZM14.4496 3.53294C14.4496 1.96298 15.7668 0.690277 17.3916 0.690277C19.0165 0.690277 20.3337 1.96298 20.3337 3.53294C20.3337 5.1029 19.0165 6.37561 17.3916 6.37561C15.7668 6.37561 14.4496 5.1029 14.4496 3.53294Z" fill="#3F3F3F"/>
</svg>
