<svg width="1934" height="1600" viewBox="0 0 1934 1600" fill="none" xmlns="http://www.w3.org/2000/svg">
<path d="M1447.44 1361.51C1447.44 1386.9 1442.26 1411.32 1434.85 1435.51C1430.26 1450.51 1424.01 1466.02 1415.99 1479.51C1410.15 1489.32 1403.62 1499.51 1395.43 1507.51C1353.44 1548.56 1298.11 1509.51 1256.44 1488.76C1225.93 1473.6 1194.05 1460.77 1162.44 1448.11C1145.09 1441.16 1127.75 1434.16 1110.44 1427.12C1106.18 1425.51 1095.44 1418.74 1090.96 1420.17C1087.87 1421.16 1087.44 1428.86 1086.73 1431.51C1083.35 1443.51 1078.96 1455.12 1074.01 1466.51C1056.84 1506.15 1033.16 1547.51 1000.44 1576.23C992.429 1583.29 976.437 1601.51 964.441 1599.1C952.441 1596.73 938.753 1581.79 930.441 1573.51C902.964 1546.17 879.882 1513.22 864.441 1477.51C858.156 1462.98 851.698 1448.74 847.163 1433.51C846.32 1430.69 845.425 1420.51 841.788 1419.9C836.441 1419.25 826.343 1425.68 821.441 1427.79C805.441 1434.61 789.335 1440.51 773.441 1447.23C744.132 1459.63 713.968 1470.59 685.441 1484.76C649.761 1502.51 598.714 1540.51 557.441 1521.19C548.441 1517.01 541.245 1510.6 534.441 1503.51C526.906 1495.57 520.948 1486.13 515.749 1476.51C508.437 1462.99 501.984 1448.29 497.73 1433.51C490.964 1409.98 485.441 1386.1 485.441 1361.51C377.441 1425.13 238.96 1433.69 125.441 1378.77C50.4094 1342.51 -5.5593 1279.99 0.440698 1192.51C2.94851 1157.21 12.7415 1122.2 26.0423 1089.51C101.003 905.344 237.804 757.512 386.441 629.227C445.441 578.34 506.827 527.512 572.441 485.204C629.402 448.516 690.675 415.512 755.441 394.708C778.71 387.231 801.784 379.618 825.441 373.512C832.097 371.645 848.081 370.512 852.441 365.001C857.726 358.54 857.941 342.641 860.441 334.512C867.187 312.887 875.378 292.133 888.441 273.512C893.355 266.575 899.214 260.512 905.441 254.606C907.351 252.844 912.109 250.512 911.898 247.329C911.64 243.63 906.718 239.313 904.441 236.512C897.105 226.837 889.015 217.727 881.015 208.512C845.89 168.063 802.62 136.512 757.441 108.087C732.366 92.5123 704.226 75.8209 687.784 50.5123C678.441 36.1295 677.769 16.0827 693.441 5.61781C721.042 -12.8119 753.195 23.5123 772.441 40.6803C815.421 79.2975 856.8 121.337 890.441 168.512C901.39 183.868 911.792 199.512 921.628 215.512C924.441 220.286 928.292 232.028 933.656 234.274C938.234 236.196 948.652 230.087 953.441 228.887C964.644 226.087 973.441 226.903 984.441 230.512C987.609 231.559 996.441 236.512 999.441 234.52C1004.44 231.317 1008.62 219.68 1011.44 214.512C1020.14 199.641 1029.83 185.512 1039.87 171.512C1070.92 128.512 1107.34 86.9069 1147.44 52.0866C1162.93 38.6452 1178.29 25.5123 1194.44 12.7233C1208.44 1.67249 1224.44 -6.3275 1240.44 6.84046C1269.44 30.903 1235.25 64.8131 1215.44 80.5123C1191 99.8834 1163.1 114.852 1137.44 132.536C1108.12 152.747 1081.16 176.114 1057.27 202.512C1045.95 215.028 1028.03 229.774 1021.29 245.512C1019.66 249.301 1023.32 251.512 1025.87 253.551C1032.13 258.794 1037.81 264.954 1042.68 271.512C1056.27 289.809 1064.7 310.907 1071.41 332.512C1074.27 341.7 1074.76 356.27 1079.75 364.235C1082.95 369.333 1095.92 370.512 1101.44 371.883C1120.97 376.907 1140.24 382.563 1159.44 388.708C1224.64 409.575 1287.64 438.883 1345.44 475.567C1416.24 520.512 1481.44 574.18 1545.44 628.239C1653.34 719.512 1754.64 822.688 1830.44 942.512C1876.15 1014.64 1924.03 1098.92 1932.27 1185.51C1933.85 1202.13 1933.77 1219.01 1931.01 1235.51C1921.15 1294.25 1880.26 1339.02 1829.44 1367.51C1752.81 1410.13 1656.44 1425.27 1570.44 1408.06C1541.94 1402.51 1514 1393.51 1487.44 1381.65C1473.82 1375.59 1461.09 1367.51 1447.44 1361.51ZM1232.44 27.5123C1210 56.9655 1175.87 82.3326 1146.44 104.512V105.512C1171.18 94.8366 1199.44 74.5123 1218.44 55.5123C1224.63 49.317 1236.44 37.2858 1232.44 27.5123ZM698.441 28.5123C699.441 41.3092 709.097 51.7584 718.441 59.7819C738.093 76.6608 761.945 94.5123 785.441 105.512C771.034 86.6803 746.101 72.5123 728.441 56.5123C719.238 48.0905 709.351 34.0358 698.441 28.5123ZM972.429 162.251C982.894 162.52 982.894 191.512 972.429 191.774C961.972 192.044 961.972 161.981 972.429 162.251ZM872.441 361.512C912.999 350.087 953.312 338.758 995.441 345.797C1011.21 348.512 1026.94 353.008 1042.44 356.887C1045.88 357.747 1055.44 362.192 1058.75 360.184C1062.44 357.79 1055.44 341.016 1054.44 337.512C1047.71 313.512 1037.07 288.762 1019.35 270.551C1013.05 264.071 1005.19 258.704 997.441 254.118C932.429 215.669 877.038 305.215 872.441 361.512ZM941.441 262.266C953.327 263.11 953.784 275.993 950.152 284.512C943.98 298.993 929.784 321.141 911.441 319.512C898.823 318.212 898.347 305.77 902.32 296.512C908.441 282.098 923.62 261.001 941.441 262.266ZM991.441 262.126C1009.17 261.188 1024.02 282.133 1030.26 296.512C1034.18 305.512 1033.87 318.137 1021.44 319.512C1003.25 321.255 988.335 299.114 982.441 284.512C978.972 275.864 979.406 262.766 991.441 262.126ZM952.441 299.512C951.628 318.13 935.015 327.977 917.441 326.512C925.441 316.114 941.441 307.141 952.441 299.512ZM981.441 299.512C990.687 310.762 1006.09 315.52 1015.44 326.512C1002.44 326.512 973.624 318.68 981.441 299.512ZM897.441 321.512C896.273 329.512 893.241 338.719 888.972 345.512C888.019 347.024 884.894 352.055 882.441 350.337C880.355 348.84 881.831 343.512 882.261 341.512C883.851 334.149 889.995 323.907 897.441 321.512ZM1034.44 321.512C1042.8 323.86 1048.13 333.563 1050.28 341.512C1050.81 343.512 1052.44 348.797 1050.42 350.337C1047.99 352.063 1044.86 347.016 1043.91 345.512C1039.25 338.149 1037.44 329.571 1034.44 321.512ZM948.441 331.512C945.722 335.723 939.089 335.551 934.441 336.516C921.948 339.102 905.124 348.157 892.441 344.512C896.691 340.512 902.894 339.86 908.441 338.512C921.695 334.778 934.753 332.594 948.441 331.512ZM984.441 331.512C998.808 333.329 1012.36 335.321 1026.44 338.887C1028.3 339.512 1039.29 341.196 1038.44 344.137C1037.75 347.059 1027.41 344.106 1025.44 343.704C1015.68 341.719 1006.17 338.512 996.441 336.165C992.163 335.184 986.952 335.512 984.441 331.512ZM965.441 359.028C921.073 361.813 875.089 376.7 832.441 388.801C818.409 392.786 796.031 394.512 786.816 406.516C758.948 443.098 764.741 491.512 784.195 530.512C811.011 584.286 854.874 619.325 911.441 638.18C930.413 644.512 951.202 650.809 971.441 649.512C1048.17 644.169 1121.67 594.102 1151.86 523.512C1168.44 484.587 1172.44 439.512 1144.31 404.555C1135.84 394.098 1112.96 392.512 1100.44 388.801C1070.77 380.512 1040.44 372.774 1010.44 366.087C996.124 362.907 980.241 358.098 965.441 359.028ZM934.441 378.512C931.827 383.032 926.253 384.04 921.441 385.512C910.991 388.227 900.179 392.067 889.441 393.512C892.003 389.305 896.972 388.876 901.441 387.512C912.081 384.18 923.21 379.001 934.441 378.512ZM1043.44 391.512V392.512C1033.44 394.118 1019.15 387.606 1009.44 384.801C1004.99 383.516 1000.84 382.719 998.441 378.512C1012.44 379.157 1030.44 385.938 1043.44 391.512ZM966.441 388.719C969.163 388.719 968.441 395.856 968.741 397.512C969.952 405.895 974.077 414.743 981.441 419.512C983.159 420.512 991.234 422.047 991.234 424.512C991.234 426.551 985.863 426.942 984.441 427.512C979.179 429.583 975.402 433.606 972.765 438.512C969.878 443.88 968.941 449.52 968.413 455.512C968.304 456.727 968.253 460.305 966.323 460.305C964.441 460.305 961.917 442.102 960.441 439.512C957.894 434.63 953.667 429.782 948.441 427.657C946.999 427.071 941.648 426.579 941.648 424.512C941.648 422.11 949.741 420.512 951.437 419.251C958.909 414.512 962.441 406.012 963.976 397.512C964.269 395.856 963.804 388.719 966.441 388.719ZM854.441 396.512C851.613 400.571 844.995 401.329 840.441 402.844C827.312 407.223 813.406 412.903 799.441 413.512C802.073 408.872 807.616 407.161 812.441 405.325C825.316 400.512 840.73 397.602 854.441 396.512ZM1133.44 413.512C1119.44 412.907 1105.44 407.204 1092.44 402.844C1087.89 401.329 1081.27 400.571 1078.44 396.512C1092.13 398.251 1106.43 400.512 1119.44 405.098C1124.44 406.965 1130.63 408.551 1133.44 413.512ZM874.441 409.512C871.941 418.192 866.656 425.68 864.323 434.512C858.038 458.34 862.406 483.997 876.191 504.512C921.253 571.571 1044.87 560.622 1068.01 479.512C1072.44 463.813 1072.71 447.137 1067.69 431.512C1065.25 423.903 1060.38 417.212 1058.44 409.512C1069.36 415.829 1076.94 428.044 1083.44 438.512C1110.38 481.512 1105.64 536.727 1075.21 576.512C1036.68 626.883 963.034 640.911 906.441 615.2C843.331 586.528 812.87 510.161 844.195 447.512C850.835 434.227 860.863 416.555 874.441 409.512ZM938.441 523.512C903.835 516.274 889.441 487.532 885.726 455.512C884.441 445.227 887.734 433.512 890.093 423.512C890.441 421.571 891.757 413.719 894.441 413.719C897.066 413.719 895.722 419.274 895.441 420.512C894.386 427.512 892.628 434.512 892.441 441.512C891.945 462.512 899.21 486.083 913.441 501.512C920.441 508.973 933.948 514.715 938.441 523.512ZM994.441 523.512C998.843 514.899 1011.44 509.704 1018.35 502.512C1033.82 486.016 1040.82 461.805 1039.44 439.512C1039.13 432.755 1038.09 426.223 1037.17 419.512C1037.04 418.583 1035.83 412.821 1038.26 413.512C1040.74 414.055 1041.44 419.516 1042.06 421.512C1044.35 430.512 1046.39 440.286 1046.44 449.512C1046.44 483.512 1030.44 515.958 994.441 523.512ZM810.441 427.512C813.07 435.731 815.745 439.219 822.441 444.512C815.616 448.852 813.253 453.18 810.441 460.512H809.441C808.39 452.766 804.948 448.649 798.441 444.512C805.441 438.942 806.714 435.251 810.441 427.512ZM1122.44 428.512C1125.37 436.153 1128.07 439.512 1134.44 444.512C1126.93 448.258 1125.3 453.067 1122.44 460.512H1121.44C1120.4 453.512 1117.44 447.907 1110.44 445.512C1114.36 439.512 1118.84 435.137 1122.44 428.512ZM862.441 601.512C851.886 600.102 841.136 587.547 833.441 580.676C805.761 555.962 788.652 522.512 784.441 485.512C783.23 474.325 782.206 462.688 783.269 451.512C783.441 449.083 782.37 442.231 785.05 440.86C788.265 439.212 788.417 448.157 788.441 449.512C789.363 459.872 790.441 470.512 792.788 480.512C799.152 508.786 808.273 535.161 825.816 558.512C836.429 572.641 855.07 585.708 862.441 601.512ZM1070.44 601.512C1077.85 585.524 1096.31 572.696 1106.96 558.512C1124.44 535.071 1134.19 508.032 1140.23 479.512C1142.39 469.317 1143.38 458.868 1144.37 448.512C1144.44 447.192 1144.84 439.325 1147.83 440.86C1150.44 442.243 1149.36 449.087 1149.44 451.512C1150.32 463.04 1149.86 475.012 1148.17 486.512C1142.73 523.512 1127.24 555.512 1099.44 580.587C1091.9 587.512 1080.79 600.13 1070.44 601.512ZM686.292 457.645C674.675 458.973 659.257 472.973 649.441 479.087C617.835 498.778 587.691 520.696 557.441 542.512C471.222 604.153 386.284 674.329 314.441 752.516C281.312 788.692 252.949 828.118 223.812 867.512C191.269 911.512 157.253 956.653 134.144 1006.51C127.07 1021.78 111.945 1057.76 140.441 1059.51C161.441 1060.65 182.441 1045.89 198.441 1033.89C241.866 1001.25 271.863 953.801 301.945 909.512C344.788 846.512 383.214 781.028 431.245 721.512C489.609 649.2 557.441 587.989 633.441 534.794C647.441 524.903 661.82 514.84 676.441 505.704C681.441 502.512 692.441 497.661 695.323 492.188C698.163 486.641 691.441 470.712 690.245 464.512C689.784 462.169 689.738 457.251 686.292 457.645ZM1244.44 457.645C1242.63 459.036 1242.72 463.512 1242.35 465.512C1241.26 471.743 1234 487.723 1238.06 492.993C1244.8 501.755 1260.25 508.512 1269.44 514.512C1291.41 529.227 1312.95 544.512 1334.44 559.801C1419.89 621.001 1491.15 701.852 1551.24 787.512C1589.14 841.544 1621.8 899.106 1660.44 952.512C1686.39 988.032 1716.44 1027.64 1756.44 1048.25C1768.62 1054.56 1791.19 1065.89 1804.23 1055.66C1815.72 1046.64 1806.79 1024.02 1802.29 1013.51C1786.44 976.696 1763.17 943.294 1740.44 910.512C1701.24 853.864 1660.37 796.989 1613.35 746.512C1547.25 675.551 1469.95 612.684 1392.44 554.637C1356.43 527.672 1319.44 501.637 1281.44 477.567C1272.44 471.95 1263.44 466.704 1254.44 461.313C1252.36 460.067 1247 455.704 1244.44 457.645ZM669.441 493.512C657.441 508.852 635.441 519.594 620.441 531.712C586.894 558.536 554.339 586.512 521.441 614.102C509.323 624.27 497.441 634.809 485.441 645.114C479.695 650.126 474.175 656.68 466.441 658.512C469.441 651.778 476.034 647.235 481.441 642.34C490.906 633.778 499.866 624.669 509.441 616.227C544.304 585.512 579.101 555.618 616.441 527.883C627.874 519.512 639.804 511.571 651.441 503.512C656.659 499.692 662.886 493.665 669.441 493.512ZM1466.44 658.512C1458.4 655.95 1452.75 649.555 1446.44 644.266C1434.28 634.075 1422.44 623.309 1410.44 613.102C1377.44 585.516 1344.97 557.688 1311.44 530.911C1296.74 519.176 1274.63 508.583 1263.44 493.512C1270 493.665 1276.22 499.692 1281.44 503.512C1292.76 511.344 1304.2 519.13 1315.44 527.219C1353.1 554.325 1387.69 584.579 1422.44 615.227C1432.01 623.669 1440.98 632.778 1450.44 641.34C1456.14 646.512 1463.13 651.512 1466.44 658.512ZM711.335 533.512C701.277 533.84 687.281 547.036 679.441 552.653C651.769 572.512 626.191 594.883 600.441 617.087C488.273 713.805 400.656 831.512 327.441 959.512C305.011 998.758 279.441 1041.27 272.195 1086.51C268.964 1106.51 274.937 1134.62 299.441 1136.51C321.441 1138.05 339.288 1126.77 355.441 1112.93C387.093 1085.81 409.73 1046.78 429.363 1010.51C486.136 905.622 533.441 796.993 606.323 701.512C628.085 672.993 652.171 645.071 678.441 620.602C696.269 603.993 716.195 588.903 733.288 571.59C739.441 565.235 722.441 547.973 718.726 541.512C717.144 538.774 715.187 533.325 711.335 533.512ZM1219.66 533.755C1212.88 536.528 1205.68 554.512 1201.29 560.512C1199.66 562.762 1196.34 566.032 1197.61 569.083C1201.05 577.512 1215.84 585.512 1222.44 591.512C1242.75 610.04 1262.44 628.626 1281.44 648.512C1343.69 713.684 1392.32 792.669 1433.33 872.512C1462.7 929.68 1489 988.864 1523.02 1043.51C1541.75 1073.6 1563.44 1106.82 1594.44 1125.69C1608.21 1134.09 1626.44 1140.83 1642.44 1134.04C1661.32 1125.95 1663.44 1102.29 1660.69 1084.51C1654.12 1044.32 1632.02 1005.51 1612.02 970.512C1536.43 838.669 1448.74 718.317 1333.61 618.024C1306.66 594.54 1279.44 571.188 1250.44 550.512C1244.85 546.512 1226.89 530.79 1219.66 533.755ZM568.441 553.512C566.636 559.891 560.206 563.239 555.441 567.512C543.929 577.661 531.765 587.204 520.441 597.598C485.222 629.93 450.421 662.532 415.726 695.512C401.964 708.512 387.031 731.067 369.441 738.512C373.335 728.243 382.921 720.208 390.425 712.512C399.656 703.051 408.085 692.868 417.441 683.512C449.808 651.145 483.257 621.633 518.441 592.512C533.406 580.012 550.698 561.512 568.441 553.512ZM1563.44 738.512C1546.06 730.766 1530.78 708.856 1517.44 695.512C1486.91 664.977 1455.44 634.016 1422.44 606.266C1409.28 595.235 1396.62 583.61 1383.44 572.59C1376.91 567.13 1367.22 561.282 1363.44 553.512C1369.26 555.079 1373.76 559.997 1378.44 563.63C1388.44 571.512 1398.44 579.547 1408.44 587.516C1447.7 618.809 1483.95 652.024 1519.44 687.512C1528.79 696.864 1537.25 707.032 1546.44 716.512C1552.63 722.876 1560.69 729.883 1563.44 738.512ZM708.441 568.512C701.007 579.059 688.976 587.051 679.441 595.684C662.808 610.731 647.37 627.231 630.441 641.938C621.402 649.79 612.808 662.106 601.441 666.512C604.253 656.188 616.144 647.86 623.437 640.512C641.988 621.829 659.765 602.977 680.441 586.516C687.343 581.02 699.288 567.958 708.441 568.512ZM1331.44 666.512C1315.06 659.309 1300.08 640.001 1287.44 627.528C1275.8 616.032 1263.71 604.618 1251.44 593.797C1242.44 585.876 1231.37 578.344 1224.44 568.512C1233.44 567.958 1245.44 581.02 1252.44 586.516C1273.12 602.981 1290.89 621.825 1309.44 640.512C1316.74 647.86 1328.63 656.192 1331.44 666.512ZM761.441 599.805C752.343 601.907 741.363 617.809 735.269 624.512C716.441 645.114 697.62 665.512 679.441 686.512C622.652 752.512 577.402 827.208 536.132 903.512C517.288 938.512 497.956 974.598 483.441 1011.51C469.378 1047.59 445.917 1086.7 445.441 1126.51C445.202 1146.92 445.781 1170.2 472.441 1167.34C486.441 1165.82 500.034 1155.69 510.441 1146.78C535.659 1125.2 553.218 1096.06 569.441 1067.51C597.765 1017.67 619.769 964.282 644.222 912.512C674.909 847.54 708.062 783.778 740.195 719.512C751.027 697.844 762.159 676.297 772.698 654.512C777.128 645.512 785.406 634.512 787.327 624.512C788.441 618.001 773.917 607.641 769.441 603.688C767.323 601.813 764.441 599.087 761.441 599.805ZM1168.44 599.684C1163.27 601.528 1145.21 617.868 1145.39 623.512C1145.72 633.309 1155.99 645.852 1160.18 654.512C1172.84 680.649 1186.19 706.512 1199.19 732.512C1229.64 793.512 1261.71 853.626 1290.13 915.512C1316.41 972.743 1341.44 1031.51 1374.04 1085.51C1390.21 1112.31 1409.31 1138.67 1435.44 1156.51C1445.93 1163.63 1462.44 1171.51 1475.44 1166.51C1488.62 1161.18 1489.43 1139.29 1487.87 1127.51C1483.13 1091.91 1470.44 1058.14 1455.67 1025.51C1401 905.68 1339.98 787.102 1253.44 686.512C1233.67 663.512 1213.16 640.844 1192.35 618.512C1188.31 614.176 1175.14 597.294 1168.44 599.684ZM633.441 605.512C627.804 617.594 613.441 628.512 604.609 638.512C587.773 657.512 572.441 677.829 557.866 698.512C523.788 746.68 492.085 796.903 460.132 846.512C450.406 861.618 440.441 876.579 430.441 891.512C425.23 899.29 420.105 908.997 412.441 914.512C412.359 906.079 419.675 897.532 423.839 890.512C433.964 873.512 444.171 856.512 454.632 839.512C492.159 778.954 531.062 718.149 575.64 662.512C587.312 647.942 600.253 634.7 613.441 621.512C619.156 615.797 625.421 607.743 633.441 605.512ZM1520.44 914.512C1513.96 909.727 1509.93 902.008 1505.3 895.512C1495.09 881.18 1485.87 866.153 1476.11 851.512C1442.74 801.512 1411.89 749.313 1376.69 700.512C1361.65 679.653 1346.44 658.7 1329.27 639.512C1320.07 629.231 1305.25 617.965 1299.44 605.512C1307.44 607.739 1313.82 615.747 1319.44 621.528C1331.95 634.247 1344.13 646.805 1355.44 660.512C1401.3 715.59 1440.05 777.805 1477.87 838.512C1488.35 855.512 1498.14 872.61 1508.44 889.512C1512.89 896.672 1520.95 905.758 1520.44 914.512ZM738.441 634.512C736.812 642.934 729.441 650.641 724.441 657.512C715.683 669.985 707.437 682.911 698.722 695.512C672.226 733.84 648.441 774.11 622.159 812.512C612.784 826.133 603.933 846.797 590.441 856.512C593.007 839.512 607.441 822.333 615.937 807.512C639.976 765.094 668.011 725.27 697.441 686.512C706.37 674.95 714.843 663.141 723.441 651.512C727.82 645.844 732.273 638.137 738.441 634.512ZM768.441 634.512C766.343 646.145 756.441 659.219 750.722 669.512C737.351 693.032 723.82 716.305 709.89 739.512C704.034 749.27 696.964 767.512 686.441 772.512C689.437 762.028 696.335 753.161 701.195 743.512C714.32 717.512 729.148 691.942 745.097 667.512C751.316 657.985 758.355 640.032 768.441 634.512ZM1246.44 772.512C1235.88 767.149 1229.13 749.321 1223.01 739.512C1208.7 716.528 1195.44 693.032 1182.16 669.512C1176.31 659.219 1166.44 646.145 1164.44 634.512C1174.64 640.012 1182.23 658.801 1188.39 668.512C1204.25 693.512 1219.4 719.075 1232.71 745.512C1237.29 754.606 1243.72 762.563 1246.44 772.512ZM1342.44 856.512C1335.43 851.512 1331.89 843.512 1327.01 836.512C1316.39 821.512 1306.19 805.95 1296.1 790.512C1275.66 759.274 1256.3 727.165 1235.01 696.512C1221.44 677.036 1202.82 656.258 1193.44 634.512C1199.32 636.512 1203.44 643.715 1207.07 648.512C1216.04 660.512 1224.85 672.551 1233.82 684.512C1263.44 724.223 1292.44 764.278 1317.09 807.512C1325.18 821.766 1340.75 839.958 1342.44 856.512ZM447.441 640.512C445.753 646.512 439.441 651.047 435.351 655.512C424.788 666.778 413.386 677.567 402.441 688.512C366.913 724.04 331.925 761.559 299.015 799.512C288.804 811.29 278.163 822.676 268.019 834.512C263.07 840.29 258.058 848.512 250.441 850.512C259.288 831.583 275.894 814.512 289.195 798.512C318.441 763.512 350.128 730.825 382.441 698.512C394.988 685.965 408.441 674.512 421.441 662.512C429.652 654.774 437.245 645.59 447.441 640.512ZM1682.44 850.512C1675.12 848.231 1669.97 840.118 1665.17 834.512C1654.78 822.512 1644.37 810.13 1633.41 798.512C1599.37 762.512 1566.35 725.512 1532.02 689.684C1521.44 678.805 1510.77 668.274 1500.21 657.512C1495.1 652.294 1488.44 647.161 1485.44 640.512C1494.95 644.536 1502.03 653.52 1509.44 660.512C1520.68 670.887 1532.44 680.653 1543.44 691.512C1579.3 727.512 1615.3 763.008 1647.25 802.512C1658.8 816.809 1676.07 833.106 1682.44 850.512ZM820.089 647.84C817.652 648.813 816.843 653.337 816.109 655.512C813.441 663.223 810.89 670.899 808.015 678.512C796.433 709.227 783.933 739.337 771.019 769.512C724.23 878.848 665.796 982.294 612.687 1088.51C601.269 1111.51 589.886 1134.73 583.441 1159.51C578.425 1178.79 582.441 1191.03 604.441 1187.05C653.823 1178.09 694.847 1130.51 720.441 1090.51C779.933 997.915 807.64 892.512 833.312 786.512C839.382 761.512 843.441 735.907 847.855 710.512C849.999 697.715 854.23 682.532 853.366 669.555C852.851 661.809 834.441 655.512 828.441 651.559C826.441 650.313 822.632 646.829 820.089 647.84ZM1111.23 647.672C1103.44 648.805 1093.26 658.044 1086.44 661.938C1083.95 663.512 1080.63 664.747 1079.76 667.727C1077.09 676.817 1082.17 691.258 1083.44 700.512C1087.44 730.512 1093.44 760.153 1100.32 789.512C1126.44 903.602 1158.76 1022.52 1231.44 1116.51C1251.68 1142.51 1277.91 1167.29 1308.44 1180.51C1319.08 1184.92 1333.67 1190.51 1345.43 1187.08C1356.44 1183.97 1351.72 1167.18 1349.81 1159.51C1343.38 1133.63 1331.02 1108.05 1318.66 1084.51C1263.19 978.88 1209.19 873.067 1159.67 764.512C1146.23 735.059 1134.69 704.833 1123.39 674.512C1120.8 667.563 1118.44 660.512 1116.1 653.512C1115.31 651.301 1114.32 647.215 1111.23 647.672ZM738.441 653.512C735.675 669.012 721.327 687.005 713.241 700.512C695.667 729.868 678.909 759.919 661.722 789.512C655.636 799.997 649.019 810.204 642.632 820.512C639.917 824.895 637.441 830.821 632.441 832.512C635.702 818.512 644.765 805.512 651.195 792.512C667.823 759.274 687.441 727.512 708.109 696.512C716.101 684.512 725.695 660.512 738.441 653.512ZM1300.44 832.512C1287.91 825.758 1278.44 801.532 1271.24 789.512C1253.22 759.852 1236.73 729.512 1219.04 699.512C1211.29 686.512 1196.78 668.512 1194.44 653.512C1199.37 656.212 1202.05 661.919 1205.11 666.512C1211.74 676.512 1218.14 686.563 1224.77 696.512C1245.4 727.512 1264.96 759.286 1281.69 792.512C1288.19 805.512 1297.15 818.286 1300.44 832.512ZM598.441 676.512C593.855 690.899 580.8 704.965 572.441 717.512C553.312 746.219 534.273 774.825 513.663 802.512C505.077 814.04 494.441 836.165 481.441 842.512C484.031 827.997 498.003 811.692 506.109 799.512C525.37 770.559 544.441 742.094 565.788 714.512C574.441 703.098 585.198 682.692 598.441 676.512ZM1451.44 842.512C1438.22 834.934 1428.44 814.536 1419.44 802.512C1399.78 776.59 1382.44 749.208 1364.01 722.512C1354.44 708.801 1339.44 692.512 1334.44 676.512C1347.65 682.676 1358.44 703.051 1367.18 714.512C1388.43 742.587 1408.07 771.13 1427.44 800.512C1435.35 812.512 1449.2 828.126 1451.44 842.512ZM1038.44 679.512C1030.19 696.512 1028.88 720.055 1026.01 738.512C1020.34 775.106 1012.97 811.657 1009.27 848.512C1007.9 862.172 1000.92 881.059 1003.87 894.512C1005.21 900.575 1010.28 906.278 1013.44 911.512H1014.44C1016.9 854.204 1026.09 796.516 1032.44 739.512C1034.06 725.512 1035.84 711.512 1037.86 697.512C1038.61 692.337 1041.35 684.016 1038.44 679.512ZM892.441 680.512C900.441 723.864 904.421 768.68 908.613 812.512C911.753 845.512 917.023 878.512 918.441 911.512C933.948 897.297 927.866 877.84 925.312 859.512C919.441 817.512 912.652 775.512 906.167 733.512C904.097 720.118 901.187 706.782 898.437 693.512C897.441 688.891 897.382 682.247 892.441 680.512ZM439.441 681.512C437.441 696.512 419.866 712.512 411.441 724.512C385.663 761.77 357.913 797.512 330.441 833.512C320.441 846.809 307.714 872.512 292.441 879.512C299.366 860.161 315.214 842.204 327.015 825.512C348.269 795.512 369.441 765.512 392.23 736.512C406.167 718.739 420.894 694.587 439.441 681.512ZM1494.44 681.512C1535.31 722.512 1568.44 772.512 1601.87 819.512C1610.04 831.071 1617.82 842.891 1625.87 854.512C1631.17 862.149 1638.33 870.294 1640.44 879.512C1634.37 876.512 1630.36 869.778 1626.23 864.512C1618.2 854.278 1610.18 843.969 1602.44 833.512C1576.72 798.766 1550.32 764.676 1525.15 729.512C1517 718.133 1508.42 707.024 1500.44 695.512C1497.76 691.598 1492.84 686.512 1494.44 681.512ZM833.441 688.512C833.116 727.567 823.745 768.512 815.652 806.512C796.441 896.512 768.179 988.583 720.238 1067.51C699.96 1100.9 674.226 1133.73 640.441 1154.11C631.034 1159.79 619.339 1167.57 608.441 1169.51C611.796 1163.98 619.05 1161.01 624.441 1157.7C633.097 1152.51 641.441 1146.51 649.269 1139.99C670.827 1122 688.378 1098.18 703.214 1074.51C734.835 1024.06 755.726 968.864 774.113 912.512C798.05 839.141 817.159 764.317 831.441 688.512H833.441ZM1100.44 688.512C1105.88 697.575 1105.44 713.106 1107.87 723.512C1113.38 748.637 1120.29 773.512 1125.87 798.512C1140.27 863.512 1161.17 929.274 1186.87 990.512C1207.05 1038.62 1232.41 1085.59 1267.61 1124.51C1278.33 1136.51 1291.18 1146.04 1304.44 1154.84C1310.87 1159.11 1320.63 1162.56 1324.44 1169.51C1283.33 1158.26 1250.76 1121.74 1227.02 1088.51C1169.94 1008.64 1140.23 908.262 1118.79 813.512C1112.05 783.723 1107.09 753.782 1103.16 723.512C1101.95 714.215 1096.84 697.165 1100.44 688.512ZM527.441 697.512C524.636 707.047 517.058 716.512 511.441 724.512C502.441 737.622 494.195 751.239 485.441 764.512C453.863 812.512 421.949 860.098 389.636 907.512C378.199 924.29 366.679 940.993 354.866 957.512C349.027 965.68 344.113 975.044 335.441 980.512C335.366 972.922 341.441 965.876 345.159 959.512C354.726 942.833 365.343 926.676 375.749 910.512C409.409 858.227 445.441 808.051 481.73 757.512C491.788 743.512 501.796 729.512 512.07 715.512C516.441 709.52 520.659 700.954 527.441 697.512ZM816.441 697.512C818.441 709.532 811.644 726.512 809.241 738.512C802.148 773.969 793.925 809.512 781.441 843.512C777.441 854.337 773.839 879.61 763.441 885.512C763.773 869.512 771.441 851.84 776.015 836.512C784.667 806.938 792.765 777.2 801.015 747.512C804.847 733.723 806.413 707.88 816.441 697.512ZM1117.44 697.512C1123.18 709.774 1125.26 723.536 1128.87 736.512C1136.44 763.844 1144.1 791.157 1151.44 818.512C1157.38 839.633 1168.98 863.532 1169.44 885.512C1160.44 880.512 1157.33 859.782 1153.87 850.512C1140.44 814.895 1131.44 777.727 1124.04 740.512C1122.03 730.524 1120.35 720.512 1118.23 710.512C1117.32 706.255 1115.17 701.512 1117.44 697.512ZM1598.44 979.512C1590.05 977.157 1585.23 967.223 1580.44 960.512C1568.66 943.985 1556.44 927.575 1545.44 910.512C1513.44 860.993 1479.44 812.657 1446.93 763.512C1438.13 750.231 1429.44 736.778 1420.77 723.512C1415.43 715.512 1408.37 706.758 1405.44 697.512C1413.63 701.669 1419.33 713.114 1424.44 720.512C1435.72 736.723 1447.61 752.622 1459.32 768.512C1493.03 814.239 1525.39 860.751 1556.13 908.512C1570.65 931.059 1588.72 954.512 1598.44 979.512ZM1045.44 715.512C1035.43 769.512 1034.23 825.18 1027.73 879.512C1026.36 890.922 1021.93 908.512 1024.76 919.512C1025.73 923.512 1031.81 929.512 1036.12 929.208C1039.8 929.032 1038.4 919.872 1038.44 917.512C1038.76 904.926 1039.67 892.083 1040.44 879.512C1042.79 846.512 1045.42 813.512 1048.61 780.512C1050.44 760.055 1054.22 735.063 1045.44 715.512ZM886.441 716.512C885.441 728.512 881.441 740.512 881.441 752.512C881.441 794.106 889.441 836.962 892.351 878.512C893.234 891.512 894.378 904.618 894.441 917.512C894.441 919.864 893.097 929.036 896.757 929.208C900.441 929.512 907.136 923.848 908.124 920.337C911.136 909.606 906.628 892.528 905.39 881.512C901.128 843.567 897.675 805.512 893.441 767.512C892.425 756.512 890.679 745.532 889.613 734.512C889.038 728.614 889.441 721.731 886.441 716.512ZM789.441 753.512C787.093 782.989 773.714 813.653 762.159 840.512C758.441 849.02 754.019 864.059 745.441 868.512C749.277 840.02 762.62 809.817 773.866 783.512C778.163 773.512 784.406 764.051 787.441 753.512H789.441ZM1144.44 753.512C1160.42 777.27 1171.44 811.102 1179.44 838.512C1182.22 847.571 1187.97 858.997 1186.44 868.512C1179.78 862.805 1176.24 852.512 1172.44 844.512C1163.37 824.544 1155.89 803.653 1149.87 782.512C1147.71 774.954 1141.74 761.051 1144.44 753.512ZM356.441 758.512C353.808 773.09 338.855 788.512 330.636 800.512C308.441 832.958 285.741 864.512 261.788 895.512C252.324 907.797 240.687 929.868 226.441 936.512C230.741 921.583 243.249 908.27 251.773 895.512C272.816 864.024 295.441 833.512 318.441 803.512C329.238 789.63 341.257 767.512 356.441 758.512ZM1706.44 935.512C1700.35 933.797 1697.03 928.27 1693.24 923.512C1685.89 914.286 1678.71 904.891 1671.44 895.512C1647.23 863.626 1623.37 831.883 1601.09 798.512C1593.23 786.751 1579.16 772.614 1576.44 758.512C1590.44 765.239 1602.64 788.29 1612.23 800.512C1634.42 828.805 1655.12 858.169 1675.87 887.512C1685.9 901.704 1701.44 918.723 1706.44 935.512ZM681.441 791.512C677.394 805.567 668.859 819.212 662.749 832.512C647.202 866.512 629.441 898.778 611.749 931.512C604.64 944.622 597.273 957.567 589.866 970.512C586.109 977.087 583.441 984.735 577.441 989.512C578.945 972.512 591.765 952.84 599.183 937.512C615.667 903.512 631.714 868.989 651.241 836.512C657.441 826.044 664.429 815.907 670.866 805.512C673.866 800.665 676.331 794.317 681.441 791.512ZM874.441 791.512C862.14 827.848 872.441 865.266 872.441 902.512C872.441 911.567 873.437 920.512 873.441 929.512C873.441 931.778 872.441 937.512 875.757 937.868C890.941 939.637 883.667 913.204 883.441 904.512C882.843 879.512 880.284 854.52 878.441 829.512C877.726 818.032 878.937 802.13 874.441 791.512ZM1057.44 791.512C1057.14 828.524 1049.44 865.512 1049.44 902.512C1049.43 909.907 1044.43 928.911 1049.21 934.95C1051.27 937.544 1056.41 937.887 1059.44 938.512C1060.37 916.899 1060.05 895.106 1061.44 873.512C1062.44 858.286 1065.8 842.782 1065.43 827.512C1065.13 815.329 1059.96 803.7 1059.44 791.512H1057.44ZM1355.44 989.512H1354.44C1330.75 956.149 1312.74 916.672 1293.66 880.512C1279.02 852.77 1260.13 821.684 1251.44 791.512C1261.44 796.739 1269.11 817.008 1275.44 826.512C1299.42 862.512 1316.77 902.766 1335.69 941.512C1340.99 952.512 1345.94 963.512 1350.72 974.512C1352.77 979.278 1356.05 984.278 1355.44 989.512ZM624.441 849.512C621.64 868.512 606.976 889.161 597.429 905.512C593.988 911.512 590.441 920.157 584.441 923.512C587.198 905.118 602.441 882.583 611.866 866.512C615.249 860.665 618.191 852.587 624.441 849.512ZM1348.44 922.512C1341.91 919.301 1338.87 910.567 1335.24 904.512C1325.69 888.559 1311.23 868.149 1308.44 849.512C1314.91 852.692 1318.33 861.512 1321.67 867.512C1330.44 883.762 1345.18 904.239 1348.44 922.512ZM859.441 862.512C851.964 882.329 850.948 900.778 851.441 921.512C851.632 928.813 849.855 942.278 860.292 940.512C865.058 939.512 862.441 926.512 862.441 922.512C862.441 910.512 861.441 898.536 861.441 886.512C861.441 879.512 862.156 868.977 859.441 862.512ZM1072.44 862.512C1072.44 882.196 1070.44 901.797 1070.44 921.512C1070.44 925.126 1068.32 938.094 1071.8 939.907C1082.32 945.512 1081.41 928.29 1081.44 922.512C1081.44 913.551 1083.42 904.512 1082.14 895.512C1080.44 884.512 1075.95 873.739 1074.44 862.512H1072.44ZM242.441 866.512C240.898 878.122 229.355 890.657 223.249 900.512C207.441 925.981 192.031 951.512 175.441 976.512C169.749 985.512 160.98 1005.53 150.441 1008.51C152.878 998.247 159.027 988.942 163.441 979.512C177.249 951.005 194.652 924.512 214.015 899.512C221.706 889.602 231.003 871.958 242.441 866.512ZM1782.44 1008.51C1770.18 1002.78 1760.97 981.669 1753.75 970.512C1738.98 947.696 1724.81 924.7 1710.63 901.512C1703.63 890.067 1694.76 878.837 1689.44 866.512C1701.14 869.805 1711.15 889.2 1718.32 898.512C1737 922.758 1753.97 948.098 1767.69 975.512C1773 986.122 1779.99 996.797 1782.44 1008.51ZM469.441 867.512C468.077 875.149 463.206 881.715 459.699 888.512C453.406 900.708 447.675 913.165 441.699 925.512C420.398 969.512 399.292 1013.58 369.324 1052.51C359.089 1065.81 347.124 1084.02 332.441 1092.51C332.394 1085.77 337.738 1080.78 341.402 1075.51C349.663 1063.65 358.034 1051.75 365.761 1039.51C391.128 999.34 414.132 957.747 437.722 916.512C444.441 904.645 451.792 893.114 459.015 881.512C462.054 876.63 464.257 870.512 469.441 867.512ZM1601.44 1091.51C1594.62 1089.6 1589.37 1082.73 1584.87 1077.51C1575.82 1067.04 1566.92 1056.56 1558.44 1045.51C1527.82 1004.83 1504.97 956.93 1484.27 910.512C1478.14 896.758 1466.29 882.29 1463.44 867.512C1468.9 870.512 1471.44 877.512 1474.78 882.512C1483.29 895.606 1490.84 909.286 1499.12 922.512C1519.93 955.735 1536.42 991.61 1557.78 1024.51C1566.05 1037.23 1574.05 1050.17 1582.86 1062.51C1589.34 1071.58 1597.77 1080.91 1601.44 1091.51ZM580.441 877.512C579.741 892.782 568.956 909.735 562.745 923.512C547.968 956.294 532.21 988.68 517.441 1021.51C512.738 1032.51 506.909 1042.82 501.699 1053.51C499.042 1058.96 497.136 1064.71 491.441 1067.51C492.101 1053.06 501.222 1037.84 506.378 1024.51C520.105 989.024 535.964 953.559 554.863 920.512C562.644 906.911 568.761 888.219 580.441 877.512ZM1353.44 877.512C1382.67 918.649 1405.35 969.571 1423.44 1016.51C1429.44 1032.2 1441.08 1050.51 1441.44 1067.51C1431.18 1061.98 1427 1043.3 1421.44 1033.51C1401.43 998.255 1386.62 959.512 1369.75 922.512C1365.08 912.313 1360.71 901.883 1356.43 891.512C1354.44 887.075 1351.44 882.294 1353.44 877.512ZM1194.44 886.512C1204.73 901.075 1211.1 920.223 1218.3 936.512C1231.3 965.919 1244.85 995.594 1260.86 1023.51C1270.19 1039.78 1280.2 1055.51 1291.32 1070.51C1296.85 1078.02 1305.98 1086.51 1308.44 1095.51C1294.17 1088.11 1281.44 1070.2 1272.07 1057.51C1245.31 1021.91 1226.44 981.786 1210.24 940.512C1205.32 927.985 1201.03 915.243 1196.67 902.512C1195.09 897.915 1191.95 890.958 1194.44 886.512ZM740.441 887.512C737.652 906.512 728.441 925.821 721.644 943.512C706.441 982.005 689.144 1021.74 663.441 1054.51C653.175 1067.61 639.972 1088.53 624.441 1095.51C631.441 1077.12 649.741 1060.32 660.386 1043.51C680.906 1011.11 697.441 975.622 712.866 940.512C718.71 927.114 724.753 913.63 731.198 900.512C733.441 895.751 735.034 889.215 740.441 887.512ZM1263.44 1086.51C1251.99 1083.15 1242.19 1062.04 1235.77 1052.51C1215.15 1021.91 1200.75 987.512 1189.11 952.512C1185.44 941.958 1176.65 926.649 1178.44 915.512C1183.26 919.719 1185.1 926.723 1187.44 932.512C1192.44 943.852 1197.28 955.235 1202.3 966.512C1213.27 991.133 1224.23 1015.92 1237.3 1039.51C1245.44 1054.23 1258.72 1070.51 1263.44 1086.51ZM755.441 916.512C753.441 929.708 747.159 942.883 742.933 955.512C731.839 988.672 718.128 1022.63 698.159 1051.51C690.886 1062.03 682.226 1080.9 670.441 1086.51C673.113 1071.7 686.952 1055.78 694.132 1042.51C709.261 1014.54 722.273 985.579 735.132 956.512C739.382 946.907 743.441 937.172 747.441 927.512C749.441 923.204 750.71 918.13 755.441 916.512ZM268.441 917.512C266.253 929.774 255.406 942.532 248.3 952.512C230.609 977.512 210.284 997.88 185.441 1015.65C176.62 1021.96 166.956 1030.51 156.441 1033.51C159.148 1022.51 176.304 1013 184.441 1005.51C203.249 987.911 222.413 970.2 239.003 950.512C247.409 940.532 256.441 923.102 268.441 917.512ZM1777.44 1032.51C1766.44 1032.59 1751.92 1018.71 1743.44 1012.51C1718.44 993.766 1698.05 972.512 1680.77 946.512C1675.12 938.024 1666.27 927.665 1664.44 917.512C1676.44 921.735 1687.8 942.758 1696.03 952.512C1711.44 970.958 1729.35 988.27 1747.44 1004.23C1757.08 1012.73 1770.96 1021.34 1777.44 1032.51ZM841.441 928.512C840.038 931.774 839.159 935.04 838.441 938.512C843.382 937.61 843.116 932.512 841.441 928.512ZM1090.44 929.512V939.512C1095.01 937.34 1094.19 932.512 1090.44 929.512ZM933.441 936.512C931.12 939.559 927.238 942.747 926.214 946.512C924.441 952.747 926.663 962.122 927.269 968.512C928.253 978.817 928.288 989.204 929.269 999.512C933.917 1048.34 933.441 1097.63 937.441 1146.51C955.757 1135.06 947.441 1114.98 947.441 1096.51C947.245 1058.6 943.183 1019.17 938.726 981.512C937.12 967.942 939.39 948.895 933.441 936.512ZM998.441 937.512C994.441 987.512 991.011 1037.69 986.269 1087.51C985.167 1099.12 984.441 1110.84 984.441 1122.51C984.421 1126.51 982.726 1131.72 984.058 1135.51C985.687 1140.12 991.441 1143.83 995.441 1146.51C999.652 1128.82 997.683 1107.7 998.441 1089.51C999.956 1055.83 1003 1022.21 1004.44 988.512C1005.11 974.122 1013.76 945.692 998.441 937.512ZM577.441 941.512C575.988 958.165 565.292 976.282 558.722 991.512C543.89 1025.88 529.12 1061.51 509.839 1093.51C501.691 1107.11 494.109 1127.73 481.441 1137.51C481.019 1130.96 484.999 1124.51 487.671 1118.51C492.441 1107.88 496.98 1096.97 502.195 1086.51C519.421 1051.97 534.726 1016.51 553.132 982.512C559.792 970.231 566.14 949.907 577.441 941.512ZM1356.44 941.512C1362.38 947.016 1365.44 955.512 1369.22 962.512C1375.73 974.844 1382.41 987.051 1388.69 999.512C1404.8 1031.51 1420.82 1063.75 1435.3 1096.51C1441.16 1109.75 1448.44 1122.54 1452.44 1136.51C1442.12 1133.11 1432.44 1109.74 1427.3 1100.51C1406.89 1064.16 1391.05 1026.09 1373.19 988.512C1368.09 977.794 1363.84 966.536 1359.44 955.512C1357.73 951.227 1354.82 946.075 1356.44 941.512ZM395.441 946.512C391.984 965.676 374.749 986.587 365.3 1003.51C345.292 1039.51 328.015 1078.29 305.441 1112.51C303.734 1108.09 306.441 1103.6 308.3 1099.51C312.339 1090.51 316.726 1081.51 321.195 1072.51C336.952 1041 354.718 1010.72 372.839 980.512C378.73 970.7 385.292 952.212 395.441 946.512ZM1628.44 1112.51C1617.04 1100.34 1609.82 1080.31 1602.18 1065.51C1590.44 1042.84 1577.41 1020.87 1565.14 998.512C1556.35 982.532 1541.44 964.512 1537.44 946.512C1547.88 952.223 1554.26 970.547 1560.24 980.512C1578.44 1010.87 1597.92 1041.22 1612.44 1073.51C1617.25 1083.78 1630.67 1101.09 1628.44 1112.51ZM213.441 950.512C213.906 958.165 205.398 966.016 200.714 971.512C186.913 987.7 171.921 1011.65 153.441 1022.51C153.441 1014.66 162.335 1007.31 167.05 1001.51C180.796 984.606 195.441 963.122 213.441 950.512ZM1780.44 1021.51C1773.73 1019.63 1770.03 1013.51 1765.4 1008.51C1753.7 996.27 1742.44 983.571 1731.69 970.512C1730.21 968.723 1716.89 953.68 1720.27 951.86C1723.81 949.95 1734.19 964.184 1736.4 966.512C1746.36 976.977 1755.16 988.563 1764.44 999.512C1770.15 1006.01 1777.67 1013.3 1780.44 1021.51ZM911.441 1158.51C915.784 1157.51 923.788 1156.07 926.413 1152.09C928.71 1148.62 926.788 1143.3 926.441 1139.51C925.804 1128.9 925.687 1118.15 925.425 1107.51C924.167 1056.2 916.441 1004.83 916.441 953.512C913.003 954.77 908.441 956.544 906.441 959.84C904.015 963.895 905.855 970.145 906.269 974.512C907.214 984.512 906.441 994.63 907.866 1004.51C914.441 1054.8 911.441 1107.79 911.441 1158.51ZM1018.04 954.958C1015.44 956.012 1016.32 963.223 1016.01 965.512C1014.44 976.512 1015.44 987.598 1014.16 998.512C1009.15 1040.92 1011.72 1084.16 1006.73 1126.51C1005.44 1136.89 1002.34 1151.89 1013.44 1156.09C1015.39 1156.82 1018.71 1158.56 1020.84 1157.72C1023.68 1156.61 1022.44 1148.9 1022.44 1146.51C1022.3 1135.2 1021.44 1123.89 1021.44 1112.51C1021.44 1085.88 1023.24 1059.1 1024.4 1032.51C1025.05 1017.66 1024.08 1002.25 1026.01 987.512C1026.97 980.215 1029.44 968.708 1027.44 961.555C1026.81 958.751 1021.26 953.653 1018.04 954.958ZM893.124 965.755C890.347 965.512 886.441 968.079 885.773 970.727C883.765 978.243 885.855 992.579 886.613 1000.51C890.292 1039.2 890.441 1079.65 890.441 1118.51C890.441 1129.51 890.312 1140.52 890.441 1151.51C890.441 1154.28 890.015 1161.29 893.753 1161.91C905.023 1163.79 901.441 1133.59 901.441 1126.51C901.441 1087.51 901.316 1047.51 897.613 1008.51C896.441 997.551 897.019 986.512 895.726 975.512C895.441 973.192 896.441 966.133 893.124 965.755ZM1039.04 965.93C1036.43 967.122 1037.44 973.227 1037.27 975.512C1036.35 985.114 1035.44 994.86 1035.44 1004.51C1035.25 1044.15 1031.44 1083.77 1031.44 1123.51C1031.44 1134.56 1031.44 1145.51 1032.44 1156.51C1032.85 1160.25 1036.87 1163.51 1040.84 1161.74C1043.44 1160.56 1042.44 1153.87 1042.44 1151.51C1042.44 1140.54 1042 1129.51 1042.44 1118.51C1044.2 1079.32 1046.25 1039.73 1046.44 1000.51C1046.44 991.512 1048.76 980.512 1047.29 971.567C1046.8 968.571 1042.4 964.512 1039.04 965.93ZM872.296 973.176C859.32 973.95 865.441 999.512 865.441 1008.51C865.441 1046.51 869.441 1084.51 869.441 1122.51C869.441 1132.9 870.437 1143.15 870.441 1153.51C870.441 1158.51 869.972 1163.73 876.425 1163.51C884.21 1163.07 880.441 1135.23 880.441 1128.51C880.441 1090.17 877.441 1051.86 877.441 1013.51C877.441 1002.88 876.691 992.172 876.425 981.512C876.351 978.547 876.441 972.922 872.296 973.176ZM1058.44 973.63C1056.62 975.208 1056.83 981.227 1056.61 983.512C1055.71 992.915 1055.44 1003.08 1055.44 1012.51C1055 1050.18 1052.44 1087.87 1052.44 1125.51C1052.44 1135.85 1049.44 1151.51 1052.76 1161.2C1053.78 1164.25 1058.89 1163.98 1061.12 1162.51C1064.18 1160.51 1063.44 1155.66 1063.44 1152.51C1063.44 1144.26 1062.79 1135.7 1063.87 1127.51C1066.44 1107.92 1064.97 1087.27 1065.44 1067.51C1065.94 1047.87 1067.44 1028.18 1067.44 1008.51C1067.44 999.169 1070.71 986.61 1068.12 977.645C1067.3 974.782 1061.19 971.321 1058.44 973.63ZM851.292 978.087C837.882 977.809 844.441 1009.93 844.441 1019.51C844.441 1055.51 843.441 1091.57 843.441 1127.51C843.437 1135.16 842.734 1142.86 842.402 1150.51C842.3 1152.81 840.972 1156.65 842.441 1158.65C844.648 1161.51 853.12 1161.83 856.382 1161.79C861.347 1161.72 859.757 1156.94 859.441 1153.51C858.98 1145.23 859.441 1136.81 859.441 1128.51C859.261 1091.62 857.093 1054.51 855.441 1017.51C855.042 1007.53 855.839 997.512 855.402 987.512C855.265 984.512 855.441 978.172 851.292 978.087ZM1073.44 1162.51C1077.44 1161.74 1088.66 1162.13 1090.84 1158C1094.89 1150.31 1089.44 1132.26 1089.44 1123.51C1089.44 1090.51 1088.04 1057.55 1088.44 1024.51C1088.44 1013.16 1089.3 1001.81 1089.44 990.512C1089.44 987.516 1090.44 981.684 1087.84 979.536C1079.44 972.751 1077.44 983.762 1077.44 989.512C1077.23 1007.87 1076.44 1026.2 1076.44 1044.51C1076.44 1060.54 1075.63 1076.51 1075.44 1092.51C1075.16 1115.84 1073.44 1139.11 1073.44 1162.51ZM830.441 980.512C826.441 980.61 827.441 986.973 827.441 989.512C827.433 999.512 826.441 1009.51 826.441 1019.51C826.441 1054.57 822.609 1089.52 822.441 1124.51C822.406 1132.14 817.128 1156.72 829.292 1155.73C832.87 1155.51 832.421 1151.14 832.441 1148.51C832.441 1140.16 833.249 1131.87 833.441 1123.51C834.323 1088.11 834.866 1052.95 834.441 1017.51C834.331 1008.1 834.175 998.887 833.441 989.512C833.366 987.13 834.429 980.192 830.441 980.512ZM1101.16 980.559C1098.62 982.583 1099.44 987.684 1099.44 990.512C1099.44 999.231 1098.44 1007.83 1098.44 1016.51C1098.43 1051.88 1099.03 1087.21 1099.44 1122.51C1099.44 1128.96 1097.87 1162.19 1109.12 1154.23C1115.28 1149.88 1110.44 1127.51 1110.44 1120.51C1110.38 1084.86 1106.44 1049.24 1106.44 1013.51C1106.44 1004.51 1105.44 995.536 1105.44 986.512C1105.43 984.512 1105.15 977.512 1101.16 980.559ZM816.441 998.512C813.292 1006.63 807.659 1015.05 805.831 1023.51C803.441 1033.91 805.866 1045.9 805.402 1056.51C804.441 1074.79 802.441 1093.21 802.441 1111.51C802.413 1125.51 794.382 1144.6 811.441 1149.51C811.441 1117.51 812.441 1083.51 815.613 1051.51C816.812 1038.87 816.292 1026.22 816.441 1013.51C816.441 1008.55 818.402 1003.2 816.441 998.512ZM1115.44 998.512C1115.86 1048.87 1121.44 1099.19 1121.44 1149.51C1138.44 1144.59 1130.61 1126.51 1130.44 1112.51C1130.21 1092.52 1128.35 1072.51 1127.44 1052.51C1126.64 1033.51 1128.61 1014.51 1115.44 998.512ZM324.441 1000.51C323.62 1008.7 318.921 1015.89 316.136 1023.51C310.175 1039.81 304.874 1056.51 298.159 1072.51C295.202 1079.56 293.304 1090.32 286.441 1094.51C286.921 1071.51 300.132 1044.51 309.159 1023.51C312.441 1015.9 316.683 1004.33 324.441 1000.51ZM1646.44 1094.51C1640.44 1090.91 1639.16 1082.56 1636.44 1076.51C1629.26 1059.25 1623.35 1041.19 1617.1 1023.51C1615.93 1020.21 1606.44 1004.29 1609.44 1001.69C1611.29 1000.07 1613.8 1004.51 1614.44 1005.53C1617.87 1010.6 1620.64 1015.99 1623.21 1021.51C1632.94 1042.51 1646.25 1071.12 1646.44 1094.51ZM574.441 1005.51C572.761 1015.27 567.163 1025.51 563.292 1034.51C553.191 1058.29 541.441 1079.51 526.441 1100.51C518.781 1111.23 510.249 1124.83 499.441 1132.51C498.37 1123.23 510.859 1109.51 515.644 1101.51C529.413 1078.83 543.386 1056.27 557.042 1033.51C561.835 1025.52 566.652 1010.61 574.441 1005.51ZM1434.44 1131.51C1424.35 1128.66 1416.1 1112.54 1409.87 1104.51C1388.18 1076.64 1366.69 1040.26 1358.44 1005.51C1367.09 1010.74 1373.07 1028.83 1378.44 1037.51C1390.26 1056.51 1401.13 1075.82 1413.13 1094.51C1420.23 1105.56 1431.21 1118.75 1434.44 1131.51ZM80.4407 1044.09C64.7102 1047.2 70.136 1069.52 85.4407 1065.98C99.929 1062.61 94.7298 1041.26 80.4407 1044.09ZM1846.44 1044.16C1831.66 1048.84 1840.37 1069.67 1854.44 1065.57C1869.27 1061.23 1861.09 1039.53 1846.44 1044.16ZM795.441 1047.51C791.37 1050.18 789.894 1055.51 787.441 1059.51C777.671 1077.27 779.441 1095.67 777.613 1115.51C776.964 1122.31 777.441 1139.51 789.007 1137.51C792.71 1136.87 792.343 1119.83 792.425 1116.51C792.991 1093.51 795.441 1070.54 795.441 1047.51ZM1138.44 1047.51C1138.44 1077.95 1142.35 1108.17 1142.44 1138.51C1159.66 1133.51 1155.44 1120.89 1154.44 1106.51C1153.12 1085.92 1154.44 1063.51 1138.44 1047.51ZM209.441 1064.07C194.23 1065.9 197.636 1087.92 212.441 1086.31C228.206 1084.59 224.8 1062.23 209.441 1064.07ZM1718.44 1064.16C1703.44 1068.8 1711.24 1090.16 1725.44 1085.86C1740.44 1081.31 1732.94 1059.68 1718.44 1064.16ZM484.441 1084.51C484.109 1100.16 474.874 1115.17 469.441 1129.51C466.949 1136.29 465.062 1144.7 459.441 1149.51C460.757 1133.51 468.964 1116.59 474.441 1101.51C476.616 1095.72 478.859 1087.68 484.441 1084.51ZM1473.44 1149.51H1472.44C1466.83 1139.86 1463.69 1128.8 1459.43 1118.51C1454.9 1107.59 1448.96 1096.56 1448.44 1084.51C1454.01 1087.51 1455.69 1093.91 1457.76 1099.51C1462.77 1113.06 1475.44 1135 1473.44 1149.51ZM768.441 1091.51C761.441 1102.64 750.441 1113.62 767.441 1121.51C768.113 1113.03 771.749 1099.51 768.441 1091.51ZM1163.44 1091.51C1163.87 1101.51 1165.43 1111.51 1165.44 1121.51C1181.19 1114.16 1173.44 1100.7 1163.44 1091.51ZM1740.44 1124.51C1754.41 1119.09 1767.35 1115.55 1782.44 1117.95C1790.95 1119.31 1799.13 1122.63 1806.44 1127.13C1813.31 1131.51 1819.73 1136.9 1824.4 1143.51C1853.37 1184.51 1819.44 1237.57 1771.44 1237.51C1757.68 1237.51 1746.44 1232.18 1734.44 1226.51C1741.72 1242.12 1762.66 1252.51 1778.44 1256.93C1827.68 1270.82 1884.23 1241.83 1891.15 1188.51C1899.17 1126.79 1833.95 1084.51 1778.44 1100.81C1764.62 1104.88 1748.93 1112.51 1740.44 1124.51ZM198.441 1227.51C182.89 1233.17 170.628 1239.06 153.441 1237.34C99.4251 1231.94 78.9524 1164.51 121.441 1131.03C143.37 1113.78 167.82 1116.18 192.441 1124.51C183.925 1112.51 168.249 1105.19 154.441 1101.1C100.441 1085.16 35.7844 1125.32 41.6126 1185.51C46.9954 1241.15 105.429 1271.99 156.441 1256.79C171.769 1252.22 190.804 1242.23 198.441 1227.51ZM652.441 1103.51C650.663 1109.91 645.281 1114.52 640.441 1118.8C629.722 1128.28 616.222 1144.11 602.441 1148.51C605.781 1141.51 613.441 1136.19 619.441 1131.09C629.441 1122.27 639.706 1108.51 652.441 1103.51ZM1330.44 1148.51C1324.01 1146.03 1318.7 1140.8 1313.44 1136.51C1302.44 1127.51 1285.79 1117.14 1280.44 1103.51C1294.44 1108.17 1306.44 1124.66 1317.44 1134.51C1322.02 1138.51 1328.44 1142.51 1330.44 1148.51ZM64.4407 1211.51C57.8626 1207.68 57.1673 1194.51 56.1712 1187.51C52.0071 1158.3 66.3548 1133.27 92.4407 1119.77C100.222 1115.74 108.144 1112.21 116.441 1109.51C117.761 1108.92 123.898 1106.51 124.441 1108.94C125.206 1111.69 117.21 1114.69 115.441 1115.65C104.324 1121.74 94.4407 1127.51 85.4407 1136.51C63.4251 1158.51 64.4407 1182.51 64.4407 1211.51ZM1807.44 1107.51C1837.39 1108.88 1872.16 1135.7 1876.85 1165.51C1878.44 1176.67 1877.3 1188.57 1874.79 1199.51C1874.23 1201.95 1873.44 1208.92 1870.44 1209.59C1867.96 1210.14 1868.44 1204.78 1868.44 1203.51C1868.39 1196.79 1868.96 1190.21 1868.44 1183.51C1867 1159.61 1857.32 1141.07 1837.44 1126.81C1829.35 1121 1811.99 1116.21 1807.44 1107.51ZM381.441 1134.13C358.851 1140.11 369.441 1172.51 391.441 1166.2C412.874 1160.07 402.406 1128.57 381.441 1134.13ZM1541.44 1134.16C1518.91 1141.23 1532.03 1172.57 1553.44 1165.86C1575.06 1159.08 1562.16 1127.67 1541.44 1134.16ZM736.906 1138.69C727.175 1142.82 730.441 1167.19 730.441 1175.51C730.441 1212.51 727.058 1249.65 724.441 1286.51C724.023 1293.91 720.941 1306.25 723.214 1313.3C724.187 1316.32 731.738 1320.75 734.839 1319.16C737.316 1317.88 736.374 1312.75 736.441 1310.51C737.124 1301.87 737.788 1293.13 738.613 1284.51C742.034 1248.54 743.441 1211.66 743.441 1175.51C743.441 1165.63 744.241 1155.51 743.382 1145.51C743.12 1142.53 740.941 1136.97 736.906 1138.69ZM1194.42 1138.69C1185.69 1140.17 1189.44 1165.98 1189.44 1172.51C1189.44 1208.51 1191.89 1244.66 1194.35 1280.51C1195.03 1290.51 1196.3 1300.57 1196.44 1310.51C1196.44 1313.11 1195.44 1319.57 1199.67 1319.51C1215.44 1318.76 1209.91 1296.51 1208.73 1286.51C1204.44 1250.51 1202.44 1212.76 1202.44 1176.51C1202.44 1166.56 1203.01 1156.51 1201.22 1146.51C1200.66 1143.51 1198.42 1138.01 1194.42 1138.69ZM78.4407 1163.51C79.1555 1160.51 87.2259 1142.04 91.6634 1144.82C93.4407 1145.96 91.3157 1149.51 90.6204 1150.51C87.6751 1155.51 83.4407 1160.8 78.4407 1163.51ZM1855.44 1162.51L1854.44 1163.51C1849.88 1160.16 1845.73 1155.33 1842.71 1150.51C1842.05 1149.51 1839.43 1144.98 1842.05 1144.51C1846.81 1143.51 1853.44 1159.08 1855.44 1162.51ZM754.441 1151.51C754.441 1196.84 751.698 1242.33 748.441 1287.51C747.909 1296.51 743.187 1312.89 746.214 1321.2C747.327 1324.25 756.281 1325.51 758.839 1323.91C761.331 1322.51 760.441 1316.95 760.866 1314.51C762.167 1304.59 761.441 1294.51 762.726 1284.51C766.441 1252.27 767.429 1217.98 767.441 1185.51C767.441 1170.85 770.659 1157.75 754.441 1151.51ZM1177.12 1152.82C1162.66 1152.13 1164.73 1173.86 1165.87 1182.51C1168.01 1198.85 1166.76 1216.04 1167.44 1232.51C1168.26 1250.51 1170.35 1268.52 1170.44 1286.51C1170.44 1296.19 1172.3 1305.84 1172.44 1315.51C1172.44 1319.02 1171.86 1323.83 1176.44 1324.27C1193.14 1325.86 1185.91 1305 1185.4 1294.51C1183.75 1260.51 1181.89 1226.56 1180.4 1192.51C1179.95 1182.15 1179.44 1171.92 1179.44 1161.51C1179.44 1159.51 1180.39 1152.97 1177.12 1152.82ZM138.441 1160.13C123.441 1161.04 124.441 1182.79 139.441 1182.51C155.312 1181.93 154.202 1159.17 138.441 1160.13ZM719.441 1159.51C716.05 1163.98 711.241 1168.14 709.32 1173.51C704.441 1186.99 708.031 1208.13 707.402 1222.51C706.702 1238.51 704.441 1254.51 704.441 1270.51C704.374 1283.26 698.847 1299.65 713.441 1306.51C713.441 1270.54 719.015 1234.56 719.441 1198.51C719.441 1186.98 724.003 1170.51 719.441 1159.51ZM1212.44 1159.51C1212.44 1189.22 1215.1 1218.88 1216.4 1248.51C1217.22 1267.15 1216.12 1288.51 1220.44 1306.51C1232.63 1297.85 1230.3 1283.9 1228.73 1270.51C1225.88 1246.51 1226.19 1221.72 1224.44 1197.51C1223.44 1181.87 1226.85 1170.12 1212.44 1159.51ZM1790.44 1160.09C1775.13 1164.51 1783.09 1186.05 1797.44 1181.7C1812.37 1177.18 1804.88 1156 1790.44 1160.09ZM254.441 1161.04C231.812 1163.1 235.113 1196.01 257.441 1193.98C280.07 1191.93 276.769 1159.01 254.441 1161.04ZM1672.44 1161.13C1649.3 1167.51 1661.35 1199.64 1683.44 1192.71C1704.7 1186.04 1692.8 1155.64 1672.44 1161.13ZM778.441 1166.65C776.409 1168.3 777.441 1174.2 777.441 1176.51C777.441 1185.87 776.441 1195.13 776.441 1204.51C776.441 1236.89 772.894 1269.2 771.441 1301.51C771.034 1311.73 766.347 1324.6 779.441 1324.51C781.433 1324.51 784.159 1324.81 785.839 1323.51C790.952 1319.51 787.015 1298.79 787.613 1292.51C790.87 1258.28 789.894 1222.9 791.402 1188.51C791.753 1180.51 793.441 1172.18 785.437 1168.26C783.773 1167.51 780.296 1165.18 778.441 1166.65ZM1152.29 1166.3C1136.44 1168.7 1142.42 1189.98 1142.44 1201.51C1142.44 1233.51 1145.44 1265.51 1145.44 1297.51C1145.44 1310.14 1141.43 1327.66 1159.29 1324.51C1165.44 1323.22 1161.76 1299.62 1161.16 1294.51C1157.44 1263.51 1156.44 1230.73 1156.44 1199.51C1156.44 1191.1 1156.41 1182.87 1155.61 1174.51C1155.37 1171.95 1156.44 1165.66 1152.29 1166.3ZM942.441 1252.51C950.417 1247.51 949.343 1239.09 949.441 1230.51C949.613 1216.54 950.441 1202.55 950.441 1188.51C950.441 1185.51 952.296 1168.51 948.839 1167.51C939.038 1164.67 941.441 1180.93 941.441 1185.51C941.441 1207.8 942.441 1230.15 942.441 1252.51ZM990.441 1252.51C990.906 1230.08 990.144 1206.85 992.269 1184.51C992.706 1179.92 993.382 1164.13 984.042 1167.33C980.441 1168.53 982.441 1184.28 982.441 1187.51C982.441 1201.9 983.417 1216.18 983.441 1230.51C983.441 1238.73 983.335 1247.34 990.441 1252.51ZM525.441 1173.25C510.628 1178.95 520.675 1199.51 534.441 1194.16C549.433 1188.51 539.441 1167.87 525.441 1173.25ZM1398.44 1173.25C1383.33 1179.06 1394.34 1199.51 1408.43 1193.51C1422.64 1187.57 1411.84 1168.11 1398.44 1173.25ZM796.441 1322.51C800.241 1322.02 807.796 1321.91 809.925 1318.2C814.327 1310.54 812.101 1295.18 812.441 1286.51C813.441 1262.18 815.441 1237.91 815.441 1213.51C815.441 1206.11 819.71 1185.9 815.413 1180.07C813.843 1177.95 803.796 1174.51 802.042 1177.16C798.753 1182.51 800.441 1198.25 800.441 1204.51C800.441 1211.61 800.015 1218.51 799.441 1225.51C798.698 1237.65 798.441 1250.51 798.441 1262.51C798.441 1281.52 800.843 1304.01 796.441 1322.51ZM919.441 1269.51C923.441 1267.6 930.003 1264.7 931.839 1260.33C934.441 1254.03 932.441 1243.3 932.441 1236.51C932.441 1216.21 930.609 1195.8 930.441 1175.51C916.038 1178.81 919.441 1188.82 919.441 1201.51V1269.51ZM1013.44 1268.51V1208.51C1013.44 1200.22 1015.44 1188.67 1013.12 1180.74C1012.33 1178.13 1005.94 1174.63 1003.44 1176.65C1000.23 1179.28 1001.44 1196.29 1001.44 1200.51C1001.44 1214.14 1002 1227.9 1001.4 1241.51C1001.16 1247.11 998.929 1254.02 1001.04 1259.51C1002.87 1264.2 1008.94 1267.08 1013.44 1268.51ZM1128.29 1176.18C1112.92 1177.07 1117.44 1192.27 1117.44 1203.51C1117.44 1232.62 1117.85 1262.55 1120.61 1291.51C1121.44 1301.61 1118 1324.51 1134.12 1321.91C1137.18 1321.51 1136.44 1316.74 1136.4 1314.51C1136.07 1306.51 1135.44 1298.59 1135.44 1290.51C1135.44 1261.16 1132.44 1231.82 1132.44 1202.51C1132.44 1198.23 1133.28 1175.88 1128.29 1176.18ZM827.234 1182.67C824.831 1184.11 825.441 1189.2 825.441 1191.52C825.382 1199.85 825.441 1208.18 825.441 1216.51C825.441 1241.19 822.441 1265.86 822.441 1290.51C822.433 1296.25 819.023 1310.09 822.042 1314.87C823.831 1317.69 832.128 1313.9 834.292 1312.71C840.32 1309.51 838.441 1288.9 838.441 1282.51C838.441 1255.79 839.441 1229.23 839.441 1202.51C839.441 1193.54 843.179 1184.62 832.441 1182.71C830.866 1182.51 828.73 1181.77 827.234 1182.67ZM898.441 1282.51C902.05 1280.59 907.21 1278.51 908.839 1274.51C911.128 1268.71 909.441 1259.61 909.441 1253.51V1207.51C909.441 1202.94 911.988 1185.34 907.839 1182.71C896.714 1175.66 896.156 1194.06 896.441 1199.51C897.784 1217.8 897.441 1236.15 897.441 1254.51C897.441 1263.51 895.909 1273.95 898.441 1282.51ZM1024.44 1181.51V1253.51C1024.44 1266.64 1021.7 1276.59 1035.44 1282.51C1035.44 1262.55 1033.39 1241.33 1035.73 1221.51C1036.73 1212.97 1040.03 1192.75 1035.84 1185.07C1034.16 1181.99 1027.44 1182.09 1024.44 1181.51ZM1104.29 1182.27C1089.76 1180.64 1092.44 1197.66 1093.73 1207.51C1096.83 1233.83 1095.44 1262 1095.44 1288.51C1095.44 1300.75 1092.44 1315.51 1109.29 1315.9C1114.69 1316.06 1110.44 1291.98 1110.44 1287.51C1110.4 1260.51 1107.44 1233.55 1107.44 1206.51C1107.44 1202.13 1109.95 1182.91 1104.29 1182.27ZM73.4407 1183.72C75.9407 1183.72 77.1048 1187.8 77.7454 1189.51C80.2376 1196.2 82.1204 1203.06 85.2259 1209.51C94.9016 1229.64 110.05 1241.51 131.441 1246.88C132.441 1247.15 142.077 1249.75 137.105 1251.21C111.945 1258.61 86.4407 1235.51 78.0462 1214.51C75.011 1207.03 73.6438 1199.51 72.3626 1191.51C72.1126 1189.98 70.4407 1183.72 73.4407 1183.72ZM1793.44 1250.51V1248.51C1817.39 1245.29 1835.29 1232.51 1846.86 1211.51C1850.67 1204.61 1852.85 1196.92 1855.44 1189.51C1856.02 1187.87 1857.33 1182.84 1859.94 1183.51C1862.44 1184.03 1860.68 1190.83 1860.44 1192.51C1859.39 1202.27 1856.81 1211.83 1852.13 1220.51C1839.18 1244.56 1819.25 1250.51 1793.44 1250.51ZM697.441 1185.51C693.441 1189.79 687.073 1195.01 685.042 1200.51C682.702 1206.87 684.644 1215.97 685.269 1222.51C687.003 1240.64 689.366 1257.73 693.441 1275.51H694.441C694.441 1255.67 696.175 1235.32 697.441 1215.51C698.136 1206.65 700.96 1193.9 697.441 1185.51ZM847.441 1307.51C851.202 1306.62 858.999 1304.98 860.757 1301.09C863.695 1294.6 861.171 1283.55 861.441 1276.51C862.37 1256.22 864.441 1235.84 864.441 1215.51C864.441 1209.26 868.249 1191.96 864.413 1187.12C861.812 1183.83 851.648 1184.51 850.304 1188.66C846.663 1199.9 849.441 1215.77 849.441 1227.51C849.441 1238.2 848.441 1248.79 848.441 1259.51C848.441 1275.57 847.441 1291.51 847.441 1307.51ZM871.441 1296.51C876.144 1295.16 885.773 1292.09 887.823 1287.18C890.042 1281.86 887.441 1270.51 887.441 1264.51V1205.51C887.441 1199.73 889.308 1178.95 877.042 1186.12C874.437 1187.64 875.441 1193 875.269 1195.51C874.382 1204.83 875.156 1214.22 874.269 1223.51C873.323 1233.51 874.323 1243.61 873.156 1253.51C871.441 1267.53 871.441 1282.51 871.441 1296.51ZM1062.44 1296.51C1059.77 1282.13 1060.44 1266.14 1060.44 1251.51C1060.44 1242.14 1059.44 1232.9 1059.44 1223.51C1059.44 1213.34 1061 1198.51 1058.12 1188.66C1057.1 1185.2 1049.98 1184.03 1047.44 1186.54C1043.33 1190.68 1046.82 1207.75 1046.27 1213.51C1044.63 1230.72 1045.44 1248.22 1045.44 1265.51C1045.44 1271.71 1043.44 1281.56 1046.04 1287.3C1048.25 1292.51 1057.41 1295.61 1062.44 1296.51ZM1085.44 1307.51C1085.44 1291.51 1084.44 1275.54 1084.44 1259.51C1084.44 1248.79 1084.62 1238.17 1083.61 1227.51C1082.98 1220.93 1083.44 1214.12 1083.44 1207.51C1083.44 1202.32 1085.44 1191.66 1082.84 1187.12C1081.27 1184.51 1070.61 1184.51 1069.04 1187.12C1065 1194.05 1068.82 1210.79 1069.35 1218.51C1070.62 1237.02 1070.97 1255.98 1071.43 1274.51C1071.62 1282.27 1069.62 1293.94 1073.04 1301.12C1074.83 1304.86 1081.79 1306.51 1085.44 1307.51ZM1234.44 1185.51C1234.44 1214.93 1238.44 1244.13 1238.44 1273.51C1243.94 1269.51 1244.12 1256.97 1245.19 1250.51C1248.88 1228.51 1255.11 1200.07 1234.44 1185.51ZM67.4407 1218.51C71.7298 1221.56 74.8899 1225.54 78.3118 1229.51C80.6399 1232.22 82.9134 1234.95 85.4407 1237.51C86.6243 1238.64 96.6712 1246.97 92.7805 1248.8C89.8821 1250.16 85.3548 1245.86 83.4407 1244.21C77.4407 1239.06 66.9446 1226.73 67.4407 1218.51ZM1866.44 1218.51C1864.34 1227.51 1856.44 1238.27 1849.44 1244.04C1847.73 1245.51 1842.69 1250.02 1840.19 1248.27C1837.44 1246.51 1843.37 1241.34 1844.44 1240.23C1851.44 1233.59 1857.74 1222.69 1866.44 1218.51ZM469.441 1299.51C466.968 1290.87 463.804 1283.74 466.202 1274.51C475.949 1236.95 523.152 1237.27 542.441 1265.51C547.784 1250.62 529.441 1232.04 517.441 1226.85C483.894 1212.51 440.89 1240.15 453.187 1278.51C455.949 1287.13 461.281 1295.28 469.441 1299.51ZM1390.44 1264.51H1391.44C1409.21 1238.51 1449.71 1237 1464.44 1267.51C1470.31 1279.51 1466.44 1287.57 1464.44 1299.51C1470.19 1295.51 1475.07 1289.91 1478.12 1283.51C1480.72 1278.03 1482.41 1271.6 1482.41 1265.51C1482.41 1210.09 1390.44 1208.87 1390.44 1264.51ZM523.441 1240.51C506.995 1239.07 491.691 1230.51 475.441 1239.51C469.413 1242.75 465.859 1248.52 460.441 1252.51C463.441 1223.51 507.441 1221.88 523.441 1240.51ZM1473.44 1251.51C1466.44 1248.29 1462.44 1241.25 1455.44 1238.03C1440.44 1231.16 1425.32 1238.31 1410.44 1240.51C1413.41 1235.29 1420.92 1232.73 1426.44 1230.87C1445.77 1224.51 1467.19 1230.28 1473.44 1251.51ZM654.441 1230.51C625.14 1259.81 593.011 1287.74 559.441 1312.09C547.222 1320.95 534.999 1329.81 522.441 1338.18C516.921 1341.86 508.085 1345.55 504.042 1350.84C501.128 1354.66 502.863 1360.2 503.269 1364.51C504.163 1373.88 504.335 1383.15 505.714 1392.51C510.234 1423.2 521.441 1455.68 538.796 1481.51C547.179 1494.08 558.991 1506.27 574.441 1509.05C590.441 1511.95 607.241 1504.62 621.441 1497.77C643.441 1487.11 665.265 1475.76 687.441 1465.29C731.073 1444.7 776.71 1427.75 821.441 1409.71C850.796 1397.88 884.765 1386.23 908.441 1364.51C929.265 1345.24 941.214 1313.51 943.441 1285.51C928.82 1290.87 915.648 1302.09 901.441 1308.88C889.87 1314.51 878.343 1319.55 866.441 1324.31C811.429 1346.31 724.441 1369.27 681.327 1313.51C668.441 1296.93 662.109 1276.88 658.245 1256.51C656.679 1248.25 657.757 1238.2 654.441 1230.51ZM1277.44 1230.51C1277.44 1247.94 1274.05 1265.05 1268.44 1281.51C1264.75 1292.51 1260.05 1302.15 1253.4 1311.51C1212.84 1368.62 1126.84 1346.81 1072.44 1326.51C1060.93 1322.15 1049.61 1317.33 1038.44 1312.2C1022.09 1304.7 1006.31 1290.89 989.441 1285.51C994.413 1311.16 1000.44 1337.3 1018.19 1357.51C1040.12 1382.54 1075.42 1394.9 1105.44 1407.12C1154.63 1427.14 1203.92 1446.75 1252.44 1468.51C1274.1 1478.02 1295.02 1489.58 1316.44 1499.77C1331.2 1506.79 1349.2 1513.05 1365.44 1507.51C1378.38 1502.92 1387.67 1491.51 1395.1 1480.51C1412.81 1454.51 1423.26 1421.54 1427.44 1390.51C1428.96 1380.55 1434 1361.26 1429.84 1351.84C1427.8 1347.23 1420.44 1344.51 1416.44 1341.82C1406.23 1335.24 1396.44 1328.06 1386.44 1321.17C1361.63 1304.1 1337.82 1284.51 1315.44 1264.34C1304.1 1254.15 1291.13 1236.9 1277.44 1230.51ZM345.441 1234.51C345.441 1268.56 310.628 1294.23 278.441 1278.14C265.253 1271.54 258.636 1260.64 253.441 1247.51H252.441C247.159 1257.51 245.054 1269.51 247.058 1280.51C248.839 1290.51 253.441 1300.24 260.441 1307.51C282.312 1330.19 321.031 1332.04 344.441 1310.51C364.39 1291.99 369.656 1252.51 345.441 1234.51ZM1586.44 1234.51C1579.44 1243.07 1574.22 1251.51 1572.36 1262.51C1570.91 1271.14 1571.64 1280.2 1574.44 1288.51C1577.13 1296.06 1581.44 1302.58 1587.02 1308.34C1628.67 1352.11 1712.44 1303.09 1680.44 1246.51C1674.68 1255.93 1672.44 1264.65 1663.44 1272.18C1643.94 1288.27 1613.74 1284.78 1597.77 1265.51C1589.7 1255.77 1590.9 1245.13 1586.44 1234.51ZM471.441 1245.51C469.874 1257.51 462.425 1270.51 459.441 1282.51H458.441C457.277 1267.66 460.159 1255.98 471.441 1245.51ZM1462.44 1245.51C1472.82 1256.89 1475.44 1266.54 1475.44 1281.51C1469.44 1277.31 1468.68 1261.51 1465.12 1254.51C1463.44 1251.51 1461.44 1248.95 1462.44 1245.51ZM644.441 1260.51C640.781 1271.3 629.249 1279.51 621.14 1287.03C601.933 1304.84 582.05 1320.19 559.441 1333.51C551.644 1338.09 542.441 1345.52 533.441 1346.51C539.253 1336.62 555.202 1329.76 564.441 1323.09C581.808 1310.55 599.316 1297.51 615.441 1283.51C624.046 1275.82 633.402 1264.17 644.441 1260.51ZM1400.44 1346.51C1390.1 1345.51 1379.09 1336.65 1370.44 1331.19C1348.96 1317.67 1328.44 1303.51 1310.44 1285.51C1303.37 1278.51 1292.03 1270.51 1289.44 1260.51C1301.12 1264.51 1310.94 1277.84 1320.44 1285.51C1337.8 1299.54 1355.37 1313.25 1373.44 1326.51C1382.14 1332.67 1393.98 1337.81 1400.44 1346.51ZM349.441 1263.51C349.386 1283.7 336.64 1307.05 316.441 1313.07C307.933 1315.61 298.933 1313.99 290.441 1312.09C288.39 1311.63 282.968 1310.99 282.363 1308.51C281.777 1305.92 299.171 1306.28 301.441 1305.92C316.749 1303.53 327.441 1295.1 336.398 1282.51C340.757 1276.32 343.429 1268.23 349.441 1263.51ZM1652.44 1307.51V1308.51C1618.44 1323.13 1583.76 1301.71 1583.44 1263.51C1588.73 1266.26 1590.81 1272.6 1593.87 1277.51C1598.87 1285.56 1604.72 1292.95 1612.44 1298.59C1625.3 1307.96 1639.29 1302.22 1652.44 1307.51ZM312.441 1291.51C309.441 1296.11 301.441 1296.51 296.441 1297.08C280.07 1299.51 265.96 1294.86 257.05 1280.51C254.616 1276.59 251.734 1273.22 252.441 1268.51C258.648 1273.08 262.831 1279.71 269.441 1283.96C282.031 1292.06 298.241 1291.81 312.441 1291.51ZM1681.44 1268.51C1678.63 1289.98 1655.44 1299.91 1636.44 1296.92C1630.96 1296.07 1624.41 1295.61 1620.44 1291.51C1634.8 1291.63 1650.62 1291.95 1663.44 1284.04C1670.27 1279.84 1674.37 1271.96 1681.44 1268.51ZM689.441 1349.51C683.132 1346.32 678.808 1339.03 674.441 1333.51C663.167 1318.72 652.89 1303.51 650.441 1284.51C656.87 1287.86 658.132 1296.51 661.331 1302.51C668.87 1316.82 687.32 1333.55 689.441 1349.51ZM1282.44 1284.51C1281.41 1307.02 1261.85 1336.19 1244.44 1349.51C1244.04 1343.51 1248.81 1338.3 1252.1 1333.51C1258.82 1323.72 1265.86 1314.17 1271.19 1303.51C1274.3 1297.31 1276.27 1288.29 1282.44 1284.51ZM400.441 1295.27C391.843 1296.58 394.136 1309.51 402.425 1307.97C410.702 1306.58 408.761 1294.01 400.441 1295.27ZM1529.44 1295.27C1521.82 1298.22 1526.73 1309.76 1534.4 1307.27C1543.12 1304.51 1537.44 1292.22 1529.44 1295.27ZM622.441 1301.84C645.441 1297.74 651.929 1331.17 628.441 1335.03C607.191 1338.52 600.675 1305.7 622.441 1301.84ZM1303.44 1301.84C1325.14 1297.99 1333.76 1330.78 1311.44 1334.3C1289.05 1337.83 1280.37 1305.93 1303.44 1301.84ZM155.441 1303.98C122.851 1310.13 135.101 1355.68 166.441 1350.18C198.749 1344.52 186.441 1298.13 155.441 1303.98ZM1766.44 1303.98C1734.83 1309.95 1747.05 1355.52 1777.44 1350.18C1810.27 1344.51 1798.43 1297.93 1766.44 1303.98ZM881.441 1329.84C903.702 1327.91 906.988 1361.08 884.441 1363.31C861.679 1365.56 858.152 1331.86 881.441 1329.84ZM1048.44 1329.83C1070.93 1327.04 1075.43 1360.51 1052.44 1363.2C1030.09 1365.91 1025.44 1332.67 1048.44 1329.83ZM955.441 1346.51C955.175 1378.79 955.054 1410.19 956.441 1442.51H957.441V1377.51C957.441 1368.13 959.441 1355.17 955.441 1346.51ZM976.441 1347.51C976.441 1369.15 975.441 1390.81 975.441 1412.51C975.441 1422 973.745 1433.51 976.441 1442.51H977.441L978.441 1347.51H976.441ZM676.441 1351.81C699.093 1348.54 704.433 1381.89 681.441 1385.06C659.374 1388.1 654.058 1355.05 676.441 1351.81ZM1250.44 1351.84C1271.93 1348 1280.44 1379.91 1258.44 1384.51C1235.89 1388.92 1227.44 1355.93 1250.44 1351.84ZM1377.44 1355.9C1399.44 1354.27 1402.9 1387.77 1380.44 1389.51C1357.36 1391.11 1354.18 1357.63 1377.44 1355.9ZM550.441 1356.84C572.863 1352.79 581.421 1385.08 558.441 1389.18C536.808 1393.04 528.097 1360.88 550.441 1356.84ZM297.441 1358.07C282.441 1361.93 289.241 1383.3 303.441 1379.94C318.441 1376.51 312.378 1354.21 297.441 1358.07ZM1628.44 1358.16C1614.07 1362.73 1622.44 1384.07 1636.44 1379.23C1651.18 1374.14 1642.88 1353.58 1628.44 1358.16ZM807.441 1359.9C829.363 1358.28 832.656 1391.11 810.441 1393.33C787.093 1395.68 783.792 1361.65 807.441 1359.9ZM1124.44 1359.98C1147.05 1359.51 1148.28 1392.93 1125.44 1393.51C1102.78 1393.98 1101.74 1360.52 1124.44 1359.98ZM607.441 1487.51C590.691 1487.17 563.976 1481.08 551.441 1469.33C536.21 1454.85 529.156 1429.29 524.07 1409.51C521.187 1398.3 519.284 1387.05 518.355 1375.51C518.152 1372.95 515.917 1365.51 518.968 1363.86C521.288 1362.61 523.007 1369.25 523.437 1370.51C526.222 1378.71 527.898 1387.24 530.441 1395.51C537.441 1418.04 544.441 1450.53 563.441 1466.18C572.015 1473.29 583.198 1476.82 593.441 1480.7C598.093 1482.51 604.441 1483.26 607.441 1487.51ZM1414.44 1362.51C1419.28 1373.01 1412.94 1393.54 1410.31 1404.51C1405.13 1426.14 1397.74 1456.6 1379.44 1471.12C1371 1477.82 1359.66 1480.33 1349.44 1482.89C1342.03 1484.74 1333 1488.59 1325.44 1486.51C1341.44 1475.89 1364.41 1476.75 1376.44 1459.51C1389.23 1441.51 1396.34 1417.54 1402.3 1396.51C1405.17 1386.51 1406.99 1370.22 1414.44 1362.51ZM1316.44 1367.98C1338.44 1367 1341.13 1399.83 1318.44 1401.51C1295.44 1403.01 1293.25 1369 1316.44 1367.98ZM611.441 1368.9C633.374 1364.13 643.32 1396 620.441 1400.99C598.769 1405.72 589.257 1373.73 611.441 1368.9ZM736.441 1372.89C758.355 1371.63 760.441 1404.86 738.441 1406.51C715.019 1408.06 713.167 1374.24 736.441 1372.89ZM1195.44 1372.89C1218.22 1371.51 1220.44 1405.12 1197.44 1406.51C1174.44 1407.68 1172.34 1374.32 1195.44 1372.89ZM925.441 1379.51C925.421 1411.74 924.417 1441.17 934.441 1472.51H935.441C935.382 1451.33 932.441 1429.61 930.441 1408.51C929.714 1399.88 929.945 1387.02 925.441 1379.51ZM1006.44 1379.51C1005.12 1410.25 998.441 1440.59 998.441 1471.51H999.441C1006.62 1448.92 1011.44 1422.16 1008.73 1398.51C1008.02 1392.52 1010.22 1384.51 1006.44 1379.51ZM668.441 1409.83C690.691 1407.09 694.855 1439.96 672.441 1443.17C649.796 1446.51 645.195 1412.68 668.441 1409.83ZM1260.44 1409.84C1282.98 1406.15 1288.44 1439.28 1265.44 1443.03C1243.44 1446.61 1238.1 1413.51 1260.44 1409.84ZM931.441 1528.51C928.253 1517.51 921.409 1507.2 917.042 1496.51C909.933 1479.1 904.831 1461.15 898.386 1443.51C895.964 1436.88 893.886 1430.11 891.386 1423.52C890.843 1422.08 889.718 1417.96 887.441 1418.51C884.948 1418.97 885.441 1423.71 885.441 1425.51C885.386 1433.27 885.441 1440.9 887.327 1448.51C892.441 1471.05 903.409 1490.82 916.73 1509.51C921.241 1515.84 925.406 1523.6 931.441 1528.51ZM1002.44 1528.51C1008.78 1522.88 1013.34 1514.51 1018.1 1507.51C1030.44 1489.51 1041.66 1470.27 1046.04 1448.51C1047.44 1441.17 1048.43 1433 1048.41 1425.51C1048.41 1423.69 1048.44 1418.95 1046.06 1418.51C1043.74 1417.96 1042.44 1421.99 1041.87 1423.52C1039.26 1430.06 1037.44 1436.92 1035.01 1443.51C1028.31 1461.51 1023.07 1479.75 1015.84 1497.51C1011.76 1507.54 1004.34 1517.89 1002.44 1528.51ZM587.441 1426.84C610.441 1422.71 616.988 1456.62 593.441 1460C572.128 1463.07 565.683 1430.73 587.441 1426.84ZM1338.44 1426.84C1360.08 1422.98 1369.06 1455.1 1346.44 1459.18C1324.25 1463.19 1315.44 1430.95 1338.44 1426.84ZM1315.44 1478.51C1304.78 1478.51 1283.16 1471.97 1275.44 1464.51C1284.74 1463.91 1309.31 1471.51 1315.44 1478.51ZM657.441 1464.51C651.792 1472.79 627.073 1478.51 617.441 1478.51C624.827 1471.11 647.054 1465.51 657.441 1464.51ZM960.441 1480.51C948.749 1511.73 959.863 1548.92 962.441 1580.51H964.441C964.441 1555.02 966.038 1529.98 963.613 1504.51C962.874 1496.78 963.679 1487.72 960.441 1480.51ZM972.441 1480.51C963.179 1511.77 969.441 1549.51 969.441 1581.51H970.441C976.413 1558.51 976.441 1535.12 976.441 1511.51C976.425 1502.8 976.96 1488.06 972.441 1480.51ZM943.441 1497.51C939.613 1510.51 946.874 1526.28 947.441 1539.51H948.441C948.441 1528.61 950.863 1506.05 943.441 1497.51ZM984.441 1539.51H985.441C986.441 1525.68 990.441 1512.51 990.441 1498.51C982.113 1503.76 984.441 1530.51 984.441 1539.51Z" fill="black"/>
</svg>
