<svg width="322" height="74" viewBox="0 0 322 74" fill="none" xmlns="http://www.w3.org/2000/svg">
<path fill-rule="evenodd" clip-rule="evenodd" d="M268.041 11.0249C270.573 8.31246 274.012 7.48465 276.844 8.30535C279.211 8.99117 282.805 11.0875 282.805 15.1916V15.1749L290.985 15.1749C290.483 7.55418 284.999 2.3391 279.071 0.621377C273.176 -1.08639 266.661 0.778833 262.193 5.56633C259.968 7.95027 258.326 11.1266 256.943 14.1573C256.337 15.4867 255.741 16.879 255.158 18.2433L254.871 18.9141C254.187 20.5122 253.508 22.0769 252.786 23.596C250.938 27.4882 249.008 30.6188 246.623 32.7333C247.141 34.3231 247.401 36.0757 247.401 37.991C247.401 39.4109 247.257 40.7436 246.969 41.9892C248.395 41.3341 249.688 40.5275 250.865 39.609C250.822 39.0828 250.801 38.5435 250.801 37.991C250.801 35.1856 251.351 32.7294 252.452 30.6224C253.565 28.5035 255.145 26.8582 257.193 25.6863C258.419 24.9815 259.788 24.4865 261.3 24.2014C261.618 23.4785 261.925 22.7632 262.225 22.0639L262.519 21.3756C263.105 20.0056 263.658 18.7126 264.222 17.4777C265.565 14.5326 266.766 12.3909 268.041 11.0249ZM221.161 31.3096C221.266 31.0766 221.377 30.8475 221.495 30.6224C222.608 28.5035 224.188 26.8582 226.236 25.6863C226.405 25.5893 226.576 25.4962 226.75 25.4072C226.443 24.9874 226.132 24.5586 225.817 24.1213C225.613 23.8386 225.406 23.5521 225.198 23.263C223.757 21.2606 222.217 19.1211 220.554 17.0753V22.3127L214.503 22.3127C215.928 24.0848 217.338 26.0403 218.823 28.1005L218.823 28.101L218.824 28.1014L218.839 28.1223L219.014 28.3653L219.33 28.8034C219.923 29.625 220.532 30.4662 221.161 31.3096ZM189.819 16.7815V15.1749H194.409C196.679 14.6156 199.235 14.2957 202.117 14.2957C203.582 14.2957 204.96 14.5945 206.295 15.1749H218.943C218.121 14.2497 217.271 13.3613 216.388 12.534C212.682 9.05873 208.046 6.29567 202.117 6.29567C187.371 6.29567 178.706 13.2255 173.878 20.2881C171.723 23.4403 170.759 27.2718 169.803 31.0699L169.803 31.07C169.613 31.8274 169.423 32.5835 169.223 33.3326H175.562C175.562 35.5097 175.332 37.533 174.87 39.4026L174.936 39.1378C177.2 29.9618 179.715 19.7667 189.819 16.7815ZM238.383 35.624C236.81 35.3954 235.355 34.6643 233.86 33.4919C232.978 32.8004 232.117 31.9814 231.257 31.052C231.149 31.1276 231.043 31.2094 230.941 31.2971C230.207 31.9363 229.645 32.8241 229.254 33.9604C228.875 35.0968 228.686 36.4226 228.686 37.9377C228.686 38.5462 228.718 39.1251 228.781 39.6745C228.828 39.7122 228.875 39.7497 228.923 39.787C231.328 41.6729 234.072 43.0713 237.187 43.5365C237.501 43.0601 237.763 42.5078 237.972 41.8795C238.363 40.7431 238.558 39.4292 238.558 37.9377C238.558 37.1099 238.5 36.3387 238.383 35.624Z" fill="#FBEE97"/>
<path fill-rule="evenodd" clip-rule="evenodd" d="M275.099 8.0134L273.722 0.0283531C275.513 -0.0780321 277.319 0.113953 279.071 0.621377C284.999 2.3391 290.483 7.55418 290.985 15.1749C291.488 22.7957 291.488 51.5386 291.488 51.5386H282.805V15.1916C282.805 11.0875 279.211 8.99117 276.844 8.30535C276.282 8.14255 275.697 8.04462 275.099 8.0134Z" fill="url(#paint0_linear_7_362)"/>
<path fill-rule="evenodd" clip-rule="evenodd" d="M154.2 15.6766C155.545 15.0893 157.061 14.7956 158.748 14.7956C160.736 14.7956 162.453 15.204 163.897 16.0208C165.341 16.8375 166.454 17.9206 167.235 19.2701C168.016 20.6195 168.407 22.0991 168.407 23.709C168.407 25.4135 167.986 26.982 167.146 28.4142C166.306 29.8347 165.116 31.0954 163.577 32.1962L161.639 33.5818L166.973 39.5787C167.218 39.1393 167.441 38.679 167.643 38.1976C168.572 35.9638 169.186 33.5238 169.803 31.0699L169.803 31.0699C170.759 27.2718 171.723 23.4403 173.878 20.2881C177.08 15.6045 181.969 10.9793 189.2 8.39478V16.9764C179.611 20.1891 177.153 30.1521 174.936 39.1378L174.87 39.405C174.408 41.2634 173.716 42.9325 172.792 44.4121C172.584 44.7478 172.364 45.0705 172.133 45.3802L174.963 49H154.2L154.2 43.6334C154.572 44.1534 155.076 44.5669 155.711 44.8738C156.398 45.2052 157.203 45.3709 158.126 45.3709C159.357 45.3709 160.588 45.0809 161.819 44.5009C161.925 44.4503 162.029 44.3979 162.133 44.3438L155.96 37.6443C155.234 38.1828 154.66 38.7579 154.238 39.3695C154.225 39.3876 154.212 39.4057 154.2 39.4239L154.2 15.6766ZM157.661 28.903L159.369 27.8106C160.233 27.2661 160.843 26.692 161.198 26.0883C161.565 25.4846 161.748 24.8809 161.748 24.2772C161.748 23.6261 161.494 23.0343 160.985 22.5016C160.488 21.9689 159.748 21.7085 158.765 21.7204C158.138 21.7204 157.593 21.8506 157.132 22.111C156.67 22.3714 156.309 22.7206 156.049 23.1586C155.8 23.5965 155.676 24.0937 155.676 24.6501C155.676 25.3721 155.883 26.1119 156.297 26.8695C156.649 27.5132 157.104 28.191 157.661 28.903Z" fill="#D9D9D9"/>
<path fill-rule="evenodd" clip-rule="evenodd" d="M154.2 15.6766C155.545 15.0893 157.061 14.7956 158.748 14.7956C160.736 14.7956 162.453 15.204 163.897 16.0208C165.341 16.8375 166.454 17.9206 167.235 19.2701C168.016 20.6195 168.407 22.0991 168.407 23.709C168.407 25.4135 167.986 26.982 167.146 28.4142C166.306 29.8347 165.116 31.0954 163.577 32.1962L161.639 33.5818L166.973 39.5787C167.218 39.1393 167.441 38.679 167.643 38.1976C168.572 35.9638 169.186 33.5238 169.803 31.0699L169.803 31.0699C170.759 27.2718 171.723 23.4403 173.878 20.2881C177.08 15.6045 181.969 10.9793 189.2 8.39478V16.9764C179.611 20.1891 177.153 30.1521 174.936 39.1378L174.87 39.405C174.408 41.2634 173.716 42.9325 172.792 44.4121C172.584 44.7478 172.364 45.0705 172.133 45.3802L174.963 49H154.2L154.2 43.6334C154.572 44.1534 155.076 44.5669 155.711 44.8738C156.398 45.2052 157.203 45.3709 158.126 45.3709C159.357 45.3709 160.588 45.0809 161.819 44.5009C161.925 44.4503 162.029 44.3979 162.133 44.3438L155.96 37.6443C155.234 38.1828 154.66 38.7579 154.238 39.3695C154.225 39.3876 154.212 39.4057 154.2 39.4239L154.2 15.6766ZM157.661 28.903L159.369 27.8106C160.233 27.2661 160.843 26.692 161.198 26.0883C161.565 25.4846 161.748 24.8809 161.748 24.2772C161.748 23.6261 161.494 23.0343 160.985 22.5016C160.488 21.9689 159.748 21.7085 158.765 21.7204C158.138 21.7204 157.593 21.8506 157.132 22.111C156.67 22.3714 156.309 22.7206 156.049 23.1586C155.8 23.5965 155.676 24.0937 155.676 24.6501C155.676 25.3721 155.883 26.1119 156.297 26.8695C156.649 27.5132 157.104 28.191 157.661 28.903Z" fill="url(#paint1_linear_7_362)"/>
<path fill-rule="evenodd" clip-rule="evenodd" d="M166.2 38.7099V49H174.963L177.269 51.9491C177.459 52.2095 177.63 52.4812 177.784 52.763H169.863L168.904 51.692L166.852 49.4648C165.472 50.4472 163.979 51.1541 162.37 51.5854C160.748 52.0234 159.15 52.2424 157.576 52.2424C155.019 52.2424 152.811 51.7867 150.953 50.8752C149.106 49.9637 147.686 48.7386 146.691 47.1998C145.697 45.6491 145.2 43.9268 145.2 42.0329C145.2 40.6361 145.472 39.405 146.017 38.3397C146.573 37.2625 147.337 36.2741 148.307 35.3745C149.278 34.4743 150.404 33.5914 151.686 32.7259C150.788 31.5882 150.028 30.3463 149.408 29.0002C148.781 27.6271 148.467 26.1356 148.467 24.5258C148.467 22.7147 148.893 21.0752 149.745 19.6074C150.598 18.1396 151.793 16.9737 153.332 16.1096C154.883 15.2336 156.688 14.7957 158.748 14.7957C160.736 14.7957 162.453 15.204 163.897 16.0208C165.341 16.8376 166.454 17.9207 167.235 19.2701C168.016 20.6195 168.407 22.0992 168.407 23.709C168.407 25.4136 167.986 26.982 167.146 28.4143C166.306 29.8347 165.116 31.0954 163.577 32.1962L161.639 33.5818L166.2 38.7099ZM189.819 22.3127V15.1749H220.554V22.3127H209.528V51.5386H200.863V22.3127H189.819ZM233.622 52.0535C230.758 52.0535 228.295 51.4675 226.236 50.2957C224.188 49.1119 222.608 47.4666 221.495 45.3596C220.394 43.2407 219.844 40.7845 219.844 37.991C219.844 35.1856 220.394 32.7294 221.495 30.6224C222.608 28.5035 224.188 26.8582 226.236 25.6863C228.295 24.5026 230.758 23.9107 233.622 23.9107C236.487 23.9107 238.943 24.5026 240.991 25.6863C243.05 26.8582 244.631 28.5035 245.732 30.6224C246.844 32.7294 247.401 35.1856 247.401 37.991C247.401 40.7845 246.844 43.2407 245.732 45.3596C244.631 47.4666 243.05 49.1119 240.991 50.2957C238.943 51.4675 236.487 52.0535 233.622 52.0535ZM233.675 45.5016C234.717 45.5016 235.599 45.182 236.321 44.5428C237.043 43.9036 237.594 43.0158 237.972 41.8795C238.363 40.7431 238.558 39.4292 238.558 37.9377C238.558 36.4226 238.363 35.0968 237.972 33.9604C237.594 32.8241 237.043 31.9363 236.321 31.2971C235.599 30.6579 234.717 30.3383 233.675 30.3383C232.598 30.3383 231.687 30.6579 230.941 31.2971C230.207 31.9363 229.645 32.8241 229.254 33.9604C228.875 35.0968 228.686 36.4226 228.686 37.9377C228.686 39.4292 228.875 40.7431 229.254 41.8795C229.645 43.0158 230.207 43.9036 230.941 44.5428C231.687 45.182 232.598 45.5016 233.675 45.5016ZM264.579 52.0535C261.715 52.0535 259.252 51.4675 257.193 50.2957C255.145 49.1119 253.565 47.4666 252.452 45.3596C251.351 43.2407 250.801 40.7845 250.801 37.991C250.801 35.1856 251.351 32.7294 252.452 30.6224C253.565 28.5035 255.145 26.8582 257.193 25.6863C259.252 24.5026 261.715 23.9107 264.579 23.9107C267.444 23.9107 269.9 24.5026 271.948 25.6863C274.007 26.8582 275.588 28.5035 276.689 30.6224C277.801 32.7294 278.358 35.1856 278.358 37.991C278.358 40.7845 277.801 43.2407 276.689 45.3596C275.588 47.4666 274.007 49.1119 271.948 50.2957C269.9 51.4675 267.444 52.0535 264.579 52.0535ZM264.632 45.5016C265.674 45.5016 266.556 45.182 267.278 44.5428C268 43.9036 268.551 43.0158 268.929 41.8795C269.32 40.7431 269.515 39.4292 269.515 37.9377C269.515 36.4226 269.32 35.0968 268.929 33.9604C268.551 32.8241 268 31.9363 267.278 31.2971C266.556 30.6579 265.674 30.3383 264.632 30.3383C263.555 30.3383 262.644 30.6579 261.898 31.2971C261.164 31.9363 260.602 32.8241 260.211 33.9604C259.832 35.0968 259.643 36.4226 259.643 37.9377C259.643 39.4292 259.832 40.7431 260.211 41.8795C260.602 43.0158 261.164 43.9036 261.898 44.5428C262.644 45.182 263.555 45.5016 264.632 45.5016ZM320.825 32.5932L312.852 32.8063C312.77 32.2381 312.545 31.7351 312.178 31.2971C311.811 30.8473 311.331 30.4981 310.739 30.2495C310.159 29.9891 309.485 29.8589 308.715 29.8589C307.709 29.8589 306.851 30.0601 306.141 30.4626C305.442 30.865 305.099 31.4095 305.111 32.0961C305.099 32.6287 305.312 33.0904 305.75 33.481C306.2 33.8717 306.999 34.1853 308.147 34.4221L313.403 35.4164C316.125 35.9372 318.15 36.8013 319.475 38.0087C320.813 39.2161 321.488 40.8141 321.499 42.8028C321.488 44.673 320.931 46.3006 319.83 47.6856C318.741 49.0705 317.25 50.1477 315.356 50.9171C313.462 51.6747 311.296 52.0535 308.857 52.0535C304.963 52.0535 301.891 51.2545 299.642 49.6565C297.405 48.0466 296.127 45.8922 295.807 43.1934L304.383 42.9803C304.572 43.9746 305.064 44.7322 305.857 45.253C306.65 45.7739 307.662 46.0343 308.893 46.0343C310.006 46.0343 310.911 45.8271 311.61 45.4128C312.308 44.9985 312.663 44.4481 312.675 43.7616C312.663 43.146 312.391 42.6548 311.858 42.2878C311.325 41.9091 310.491 41.6131 309.355 41.4001L304.596 40.4945C301.862 39.9974 299.826 39.08 298.488 37.7424C297.15 36.393 296.488 34.6766 296.499 32.5932C296.488 30.7703 296.973 29.2137 297.955 27.9235C298.938 26.6214 300.335 25.6271 302.146 24.9405C303.957 24.254 306.093 23.9107 308.556 23.9107C312.249 23.9107 315.161 24.686 317.291 26.2367C319.422 27.7755 320.6 29.8944 320.825 32.5932ZM155.96 37.6443C155.234 38.1828 154.66 38.7579 154.238 39.3695C153.788 40.0087 153.563 40.7071 153.563 41.4647C153.563 42.2459 153.746 42.9266 154.113 43.5066C154.492 44.0866 155.025 44.5423 155.711 44.8738C156.398 45.2052 157.203 45.3709 158.126 45.3709C159.357 45.3709 160.588 45.0809 161.819 44.5009C161.925 44.4503 162.029 44.3979 162.133 44.3438L155.96 37.6443ZM157.661 28.903L159.369 27.8106C160.233 27.2661 160.843 26.692 161.198 26.0883C161.565 25.4846 161.748 24.8809 161.748 24.2772C161.748 23.6261 161.494 23.0343 160.985 22.5016C160.488 21.969 159.748 21.7085 158.765 21.7204C158.138 21.7204 157.593 21.8506 157.132 22.111C156.67 22.3714 156.309 22.7206 156.049 23.1586C155.8 23.5966 155.676 24.0937 155.676 24.6501C155.676 25.3721 155.883 26.1119 156.297 26.8695C156.649 27.5132 157.104 28.191 157.661 28.903Z" fill="black"/>
<path fill-rule="evenodd" clip-rule="evenodd" d="M135 69.139C137.988 70.6696 141.145 71.7957 144.652 72.3207C150.087 73.1343 156.652 73.8832 163.652 71.8207C176.454 68.0485 180.756 58.1024 177.715 52.6673H169.745C171.171 54.6137 173.114 58.8556 167.452 63.1207C159.193 68.2949 145.093 67.1325 135 59.2857V69.139Z" fill="url(#paint2_linear_7_362)"/>
<path fill-rule="evenodd" clip-rule="evenodd" d="M135 59.2825C134.899 59.2047 134.798 59.1263 134.697 59.0471C131.592 56.9577 128.462 54.2145 124.933 50.7883C124.861 50.8188 124.789 50.8489 124.716 50.8785C122.822 51.6361 120.656 52.0149 118.217 52.0149C116.569 52.0149 115.067 51.8717 113.713 51.5852C114.789 52.6828 115.852 53.7595 116.919 54.8251C121.364 59.2599 125.558 63.1425 129.952 66.0991C131.592 67.203 133.266 68.1822 135 69.0198V59.2825ZM63.1713 42.6172L63.7474 42.2471V51.5H65.0654C62.7494 52.9777 60.4323 54.4308 58.1792 55.7553C53.8295 58.3123 49.3727 60.6033 45.1196 61.8288C40.8681 63.0538 36.2464 63.3757 32.0495 61.1944C28.1509 59.168 25.4372 55.4104 23.6445 50.3331C25.4515 49.4793 26.8637 48.3235 27.881 46.8657C29.0292 45.2204 29.6092 43.2495 29.621 40.9531C29.6092 39.4971 29.3606 38.1832 28.8753 37.0113C28.39 35.8395 27.6738 34.8037 26.7268 33.9041C25.7917 33.0045 24.6317 32.2291 23.2467 31.5781C22.4604 31.2053 21.6042 30.8751 20.678 30.5877C20.6259 28.9631 20.6 27.2679 20.6 25.5L20.6327 25.5019C20.6659 25.6749 20.6909 25.8537 20.7077 26.0383H29.1C29.1022 35.7369 29.9272 41.9852 31.3369 46.5284C32.7456 51.0685 34.5185 52.898 35.9696 53.6523C37.4447 54.419 39.5622 54.5843 42.7662 53.6611C45.0321 53.0082 47.5547 51.8916 50.3198 50.4223L50.9989 51.5H61.0308L57.5545 46.1912C59.3935 45.0447 61.2623 43.8438 63.1707 42.6176L63.1713 42.6172ZM72.43 36.8098V46.79C74.304 45.6082 76.148 44.4731 77.9564 43.4184V33.6991C76.1161 34.6623 74.2679 35.7137 72.43 36.8098ZM92.1654 37.2301C90.5005 37.5612 88.666 38.1475 86.639 38.9882V29.9345C88.4624 29.341 90.315 28.8835 92.1654 28.6287V37.2301ZM100.848 38.6899V29.2176C102.586 29.7672 104.274 30.6162 105.882 31.8283C105.865 32.0656 105.858 32.3077 105.859 32.5547C105.848 34.638 106.511 36.3544 107.848 37.7038C109.186 39.0414 111.222 39.9588 113.956 40.4559L114.904 40.6363C115.715 41.4654 116.508 42.2782 117.281 43.0703L117.289 43.0793C118.203 44.0164 119.089 44.9245 119.944 45.7964C119.447 45.9293 118.883 45.9957 118.253 45.9957C117.022 45.9957 116.01 45.7353 115.217 45.2145C114.424 44.6936 113.932 43.9361 113.743 42.9417L105.451 43.1478C104.295 41.9827 103.089 40.7791 101.819 39.5291C101.507 39.2224 101.184 38.9427 100.848 38.6899Z" fill="#FBEE97"/>
<path fill-rule="evenodd" clip-rule="evenodd" d="M196.2 15.0792H189.702V22.217H196.2V15.0792ZM63.7429 51.4429V24.1701H72.4254V51.4429H63.7429ZM68.093 20.9919C66.8738 20.9919 65.8262 20.5894 64.9503 19.7845C64.0743 18.9677 63.6364 17.9852 63.6364 16.837C63.6364 15.7007 64.0743 14.73 64.9503 13.9251C65.8262 13.1083 66.8738 12.7 68.093 12.7C69.3241 12.7 70.3717 13.1083 71.2358 13.9251C72.1117 14.73 72.5497 15.7007 72.5497 16.837C72.5497 17.9852 72.1117 18.9677 71.2358 19.7845C70.3717 20.5894 69.3241 20.9919 68.093 20.9919ZM50.3307 50.3897L44.4952 41.1284L42.7379 43.2556V51.4429H34.0554V15.0792H42.7379V33.9357H43.1286L50.799 24.1701H60.6357L50.9512 36.0569L61.0263 51.4429H51.9238L50.3531 50.3779L50.3307 50.3897ZM15.2282 14.5821L15.1811 14.5821C12.4231 14.5821 9.96686 15.0555 7.8125 16.0025C5.65814 16.9495 3.97135 18.2693 2.75213 19.962C1.53291 21.6547 0.929214 23.6256 0.941051 25.8747C0.929214 28.6327 1.82884 30.8226 3.63991 32.4443C5.45099 34.0541 7.93087 35.2201 11.0795 35.9421L14.8793 36.8299C16.205 37.1377 17.294 37.475 18.1463 37.842C19.0104 38.1971 19.6496 38.6232 20.0639 39.1204C20.4782 39.6057 20.6913 40.1917 20.7031 40.8782C20.6913 41.6121 20.4605 42.2632 20.0107 42.8313C19.5608 43.3995 18.9157 43.8434 18.0753 44.163C17.2467 44.4826 16.2405 44.6424 15.0568 44.6424C13.7666 44.6424 12.6302 44.4412 11.6477 44.0387C10.6771 43.6363 9.91359 43.0444 9.35724 42.2632C8.8009 41.4819 8.48722 40.5054 8.41619 39.3335H0C0.0355113 42.1744 0.680634 44.5241 1.93537 46.3825C3.1901 48.2409 4.94792 49.6259 7.20881 50.5373C9.4697 51.4488 12.1212 51.9045 15.1634 51.9045C18.1937 51.9045 20.7801 51.4665 22.9226 50.5906C25.0769 49.7146 26.7282 48.454 27.8764 46.8086C29.0246 45.1633 29.6046 43.1924 29.6165 40.896C29.6046 39.44 29.3561 38.1261 28.8707 36.9542C28.3854 35.7823 27.6693 34.7466 26.7223 33.847C25.7872 32.9473 24.6271 32.172 23.2422 31.521C21.8691 30.8699 20.2829 30.3491 18.4837 29.9585L15.3587 29.2482C14.5301 29.0707 13.7843 28.8635 13.1215 28.6268C12.4586 28.3901 11.8904 28.1178 11.4169 27.81C10.9553 27.4904 10.6001 27.1235 10.3516 26.7092C10.1148 26.2949 10.0083 25.8155 10.032 25.271C10.0438 24.6081 10.2391 24.0222 10.6179 23.5132C10.9967 22.9923 11.5649 22.5839 12.3224 22.288C13.08 21.9921 14.027 21.8441 15.1634 21.8441L15.2 21.8442L15.2178 14.5929L15.2282 14.5821ZM20.5542 25.1194C20.586 25.2399 20.6135 25.3635 20.6366 25.4902L20.6366 25.4537L20.6647 25.4554C20.6408 25.3306 20.6032 25.2195 20.5542 25.1194ZM86.6344 51.4429V15.0792H77.9519V51.4429H86.6344ZM100.843 15.0792V51.4429H92.1609V15.0792H100.843ZM122.208 32.7106L130.18 32.4975C129.955 29.7987 128.778 27.6798 126.647 26.141C124.516 24.5903 121.604 23.815 117.911 23.815C115.449 23.815 113.312 24.1583 111.501 24.8448C109.69 25.5314 108.293 26.5257 107.311 27.8278C106.328 29.118 105.843 30.6746 105.855 32.4975C105.843 34.5809 106.506 36.2973 107.844 37.6467C109.181 38.9843 111.217 39.9017 113.952 40.3988L118.71 41.3044C119.846 41.5174 120.681 41.8134 121.214 42.1921C121.746 42.5591 122.019 43.0503 122.03 43.6659C122.019 44.3524 121.663 44.9028 120.965 45.3171C120.267 45.7314 119.361 45.9386 118.248 45.9386C117.017 45.9386 116.005 45.6782 115.212 45.1573C114.419 44.6365 113.928 43.8789 113.738 42.8846L105.162 43.0977C105.482 45.7965 106.76 47.9509 108.998 49.5607C111.247 51.1588 114.318 51.9578 118.213 51.9578C120.651 51.9578 122.818 51.579 124.711 50.8214C126.605 50.052 128.097 48.9748 129.186 47.5899C130.287 46.2049 130.843 44.5773 130.855 42.7071C130.843 40.7184 130.168 39.1204 128.831 37.913C127.505 36.7056 125.481 35.8415 122.758 35.3207L117.503 34.3264C116.354 34.0896 115.555 33.7759 115.106 33.3853C114.668 32.9947 114.455 32.533 114.466 32.0004C114.455 31.3138 114.798 30.7693 115.496 30.3669C116.207 29.9644 117.065 29.7632 118.071 29.7632C118.84 29.7632 119.515 29.8934 120.095 30.1538C120.687 30.4024 121.166 30.7516 121.533 31.2014C121.9 31.6393 122.125 32.1424 122.208 32.7106Z" fill="black"/>
<path d="M45.1563 61.7896C49.4094 60.5641 53.8661 58.2731 58.2159 55.7161L50.3531 50.3849C47.5893 51.8533 45.0678 52.9692 42.8028 53.6219C39.5988 54.5451 37.4813 54.3798 36.0062 53.6131C34.5551 52.8588 32.7823 51.0293 31.3735 46.4892C29.9638 41.946 29.1388 35.6976 29.1367 25.9991H29.156C29.1323 23.7382 28.5464 21.7496 27.3982 20.0332C26.25 18.3168 24.6342 16.9852 22.5509 16.0382C20.4794 15.0794 18.035 14.6 15.2178 14.6L15.2 21.8621C16.9164 21.8621 18.2362 22.229 19.1595 22.9629C19.962 23.5825 20.4637 24.4157 20.6647 25.4624L20.6367 25.4608C20.6367 27.2287 20.6625 28.9239 20.7147 30.5485C21.6408 30.8359 22.497 31.1661 23.2834 31.5389C24.6683 32.1899 25.8284 32.9653 26.7635 33.8649C27.7105 34.7645 28.4266 35.8003 28.9119 36.9721C29.3973 38.144 29.6458 39.4579 29.6577 40.9139C29.6458 43.2103 29.0658 45.1812 27.9176 46.8265C26.9003 48.2843 25.4882 49.4401 23.6811 50.2939C25.4738 55.3711 28.1875 59.1288 32.0862 61.1551C36.283 63.3365 40.9047 63.0146 45.1563 61.7896Z" fill="url(#paint3_linear_7_362)"/>
<defs>
<linearGradient id="paint0_linear_7_362" x1="279.2" y1="5.5" x2="328.2" y2="69.5" gradientUnits="userSpaceOnUse">
<stop stop-color="#FBEE97"/>
<stop offset="0.285493"/>
</linearGradient>
<linearGradient id="paint1_linear_7_362" x1="172.2" y1="36" x2="185.2" y2="13.5" gradientUnits="userSpaceOnUse">
<stop/>
<stop offset="1" stop-color="#FBEE97"/>
</linearGradient>
<linearGradient id="paint2_linear_7_362" x1="173" y1="56.1999" x2="154.704" y2="73.276" gradientUnits="userSpaceOnUse">
<stop/>
<stop offset="0.333333" stop-color="#C8B21D"/>
<stop offset="0.666667" stop-color="#E8D76A"/>
<stop offset="1" stop-color="#FBEE97"/>
</linearGradient>
<linearGradient id="paint3_linear_7_362" x1="15.2" y1="18.6" x2="40.7" y2="38.6" gradientUnits="userSpaceOnUse">
<stop/>
<stop offset="0.729167" stop-color="#FBEE97"/>
</linearGradient>
</defs>
</svg>
